<svg width="41" height="15" viewBox="0 0 41 15" fill="none" xmlns="http://www.w3.org/2000/svg">
<path d="M6.59685 0L0 14.7014H3.1464L4.2336 12.1747H9.83079L8.65607 9.58111H5.34843L7.82225 3.84135L12.4981 14.7014H15.6399L9.04764 0H6.59685Z" fill="#EB0017"/>
<path d="M38.1162 2.09894V9.58111L31.8786 2.09894H29.368V14.7014H32.2518V6.9296L38.7335 14.7014H41V2.09894H38.1162Z" fill="#EB0017"/>
<path d="M21.4029 1.78253C17.63 1.78253 14.5711 4.73708 14.5665 8.38681C14.5665 12.0365 17.6208 14.9955 21.3937 15C25.1666 15 28.2255 12.0499 28.2301 8.40018C28.2301 4.75045 25.1758 1.78699 21.4029 1.78253ZM21.4029 12.2014C19.2239 12.2059 17.4549 10.5036 17.4503 8.39572C17.4457 6.28788 19.2055 4.57665 21.3845 4.57219C23.5635 4.56774 25.3325 6.27005 25.3371 8.3779C25.3371 8.38681 25.3371 8.39127 25.3371 8.40018C25.3371 10.5036 23.5773 12.2059 21.4029 12.2148V12.2014Z" fill="#EB0017"/>
</svg>
