<svg width="68" height="68" viewBox="0 0 68 68" fill="none" xmlns="http://www.w3.org/2000/svg">
<circle cx="34" cy="34" r="34" fill="black"/>
<mask id="path-2-inside-1_918_3457" fill="white">
<path d="M48.9102 47.3343C49.4953 47.3343 50.0565 47.1166 50.4709 46.7289C50.8852 46.3412 51.119 45.8152 51.1208 45.266V42.4198L51.1155 25.1466C51.1155 24.0469 50.6501 22.9922 49.8216 22.2145C48.9931 21.4369 47.8695 21 46.6978 21H20.4177C19.8375 21 19.2631 21.1073 18.7271 21.3156C18.1911 21.524 17.7041 21.8295 17.2939 22.2145C16.8837 22.5996 16.5583 23.0567 16.3363 23.5598C16.1142 24.0629 16 24.6021 16 25.1466V39.0958C16 39.6404 16.1142 40.1796 16.3363 40.6827C16.5583 41.1858 16.8837 41.6429 17.2939 42.0279C17.7041 42.413 18.1911 42.7184 18.7271 42.9268C19.2631 43.1352 19.8375 43.2424 20.4177 43.2424H42.5452C42.8932 43.2416 43.2379 43.3055 43.5594 43.4305C43.8809 43.5555 44.1728 43.7391 44.4183 43.9706L47.3481 46.7256C47.5529 46.9187 47.7963 47.0719 48.0644 47.1764C48.3325 47.2808 48.6199 47.3345 48.9102 47.3343ZM46.6978 22.662C47.4008 22.662 48.075 22.9241 48.5721 23.3907C49.0692 23.8573 49.3485 24.4901 49.3485 25.1499L49.3626 42.4181V45.261C49.3624 45.343 49.3363 45.4231 49.2877 45.4912C49.239 45.5592 49.1699 45.6122 49.0892 45.6435C49.0084 45.6747 48.9196 45.6828 48.834 45.6667C48.7484 45.6506 48.6697 45.611 48.6081 45.5529L45.6676 42.7946C45.2586 42.4085 44.772 42.1023 44.236 41.8939C43.7 41.6855 43.1253 41.579 42.5452 41.5805H20.4177C19.7147 41.5805 19.0405 41.3184 18.5434 40.8518C18.0463 40.3852 17.7671 39.7524 17.7671 39.0925V25.1499C17.7671 24.4901 18.0463 23.8573 18.5434 23.3907C19.0405 22.9241 19.7147 22.662 20.4177 22.662H46.6978Z"/>
</mask>
<path d="M48.9102 47.3343C49.4953 47.3343 50.0565 47.1166 50.4709 46.7289C50.8852 46.3412 51.119 45.8152 51.1208 45.266V42.4198L51.1155 25.1466C51.1155 24.0469 50.6501 22.9922 49.8216 22.2145C48.9931 21.4369 47.8695 21 46.6978 21H20.4177C19.8375 21 19.2631 21.1073 18.7271 21.3156C18.1911 21.524 17.7041 21.8295 17.2939 22.2145C16.8837 22.5996 16.5583 23.0567 16.3363 23.5598C16.1142 24.0629 16 24.6021 16 25.1466V39.0958C16 39.6404 16.1142 40.1796 16.3363 40.6827C16.5583 41.1858 16.8837 41.6429 17.2939 42.0279C17.7041 42.413 18.1911 42.7184 18.7271 42.9268C19.2631 43.1352 19.8375 43.2424 20.4177 43.2424H42.5452C42.8932 43.2416 43.2379 43.3055 43.5594 43.4305C43.8809 43.5555 44.1728 43.7391 44.4183 43.9706L47.3481 46.7256C47.5529 46.9187 47.7963 47.0719 48.0644 47.1764C48.3325 47.2808 48.6199 47.3345 48.9102 47.3343ZM46.6978 22.662C47.4008 22.662 48.075 22.9241 48.5721 23.3907C49.0692 23.8573 49.3485 24.4901 49.3485 25.1499L49.3626 42.4181V45.261C49.3624 45.343 49.3363 45.4231 49.2877 45.4912C49.239 45.5592 49.1699 45.6122 49.0892 45.6435C49.0084 45.6747 48.9196 45.6828 48.834 45.6667C48.7484 45.6506 48.6697 45.611 48.6081 45.5529L45.6676 42.7946C45.2586 42.4085 44.772 42.1023 44.236 41.8939C43.7 41.6855 43.1253 41.579 42.5452 41.5805H20.4177C19.7147 41.5805 19.0405 41.3184 18.5434 40.8518C18.0463 40.3852 17.7671 39.7524 17.7671 39.0925V25.1499C17.7671 24.4901 18.0463 23.8573 18.5434 23.3907C19.0405 22.9241 19.7147 22.662 20.4177 22.662H46.6978Z" fill="#FAF9F4"/>
<path d="M48.9102 47.3343L48.9095 46.3343H48.9102L48.9102 47.3343ZM51.1208 45.266H52.1209L52.1208 45.2694L51.1208 45.266ZM51.1208 42.4198L52.1208 42.4195V42.4198H51.1208ZM51.1155 25.1466L50.1155 25.1469V25.1466H51.1155ZM20.4177 21V20V21ZM16 39.0958H17H16ZM20.4177 43.2424V42.2424V43.2424ZM42.5452 43.2424L42.5476 44.2424H42.5452V43.2424ZM44.4183 43.9706L43.7332 44.6991L43.7321 44.698L44.4183 43.9706ZM47.3481 46.7256L48.0332 45.9971L48.0342 45.9981L47.3481 46.7256ZM46.6978 22.662V23.662V22.662ZM49.3485 25.1499L48.3485 25.1508V25.1499H49.3485ZM49.3626 42.4181L50.3626 42.4173V42.4181H49.3626ZM49.3626 45.261H50.3626L50.3626 45.2634L49.3626 45.261ZM48.6081 45.5529L49.2922 44.8236L49.2934 44.8247L48.6081 45.5529ZM45.6676 42.7946L44.9834 43.524L44.9811 43.5218L45.6676 42.7946ZM42.5452 41.5805L42.5478 42.5805H42.5452V41.5805ZM20.4177 41.5805V42.5805V41.5805ZM48.9102 46.3343C49.2503 46.3343 49.5648 46.2072 49.7877 45.9987L51.1541 47.4592C50.5482 48.0261 49.7403 48.3343 48.9102 48.3343L48.9102 46.3343ZM49.7877 45.9987C50.0084 45.7922 50.12 45.526 50.1209 45.2626L52.1208 45.2694C52.118 46.1043 51.7621 46.8903 51.1541 47.4592L49.7877 45.9987ZM50.1208 45.266V42.4198H52.1208V45.266H50.1208ZM50.1208 42.4201L50.1155 25.1469L52.1155 25.1463L52.1208 42.4195L50.1208 42.4201ZM50.1155 25.1466C50.1155 24.3333 49.7719 23.5393 49.1372 22.9436L50.506 21.4854C51.5283 22.445 52.1155 23.7605 52.1155 25.1466H50.1155ZM49.1372 22.9436C48.5005 22.3459 47.624 22 46.6978 22V20C48.115 20 49.4858 20.5278 50.506 21.4854L49.1372 22.9436ZM46.6978 22H20.4177V20H46.6978V22ZM20.4177 22C19.9604 22 19.5089 22.0846 19.0895 22.2477L18.3647 20.3836C19.0173 20.1299 19.7147 20 20.4177 20V22ZM19.0895 22.2477C18.6701 22.4107 18.293 22.6482 17.9783 22.9436L16.6095 21.4854C17.1152 21.0108 17.7121 20.6373 18.3647 20.3836L19.0895 22.2477ZM17.9783 22.9436C17.6636 23.239 17.4177 23.5861 17.2511 23.9635L15.4214 23.156C15.6989 22.5272 16.1037 21.9602 16.6095 21.4854L17.9783 22.9436ZM17.2511 23.9635C17.0847 24.3407 17 24.7425 17 25.1466H15C15 24.4616 15.1438 23.785 15.4214 23.156L17.2511 23.9635ZM17 25.1466V39.0958H15V25.1466H17ZM17 39.0958C17 39.4999 17.0847 39.9018 17.2511 40.2789L15.4214 41.0864C15.1438 40.4574 15 39.7808 15 39.0958H17ZM17.2511 40.2789C17.4177 40.6563 17.6636 41.0035 17.9783 41.2988L16.6095 42.7571C16.1037 42.2823 15.6989 41.7152 15.4214 41.0864L17.2511 40.2789ZM17.9783 41.2988C18.293 41.5943 18.6701 41.8317 19.0895 41.9948L18.3647 43.8588C17.7121 43.6051 17.1152 43.2317 16.6095 42.7571L17.9783 41.2988ZM19.0895 41.9948C19.5089 42.1578 19.9604 42.2424 20.4177 42.2424V44.2424C19.7147 44.2424 19.0173 44.1126 18.3647 43.8588L19.0895 41.9948ZM20.4177 42.2424H42.5452V44.2424H20.4177V42.2424ZM42.5428 42.2425C43.0144 42.2413 43.4829 42.3279 43.9217 42.4985L43.1971 44.3626C42.9929 44.2832 42.7719 44.2419 42.5476 44.2424L42.5428 42.2425ZM43.9217 42.4985C44.3606 42.6691 44.7631 42.9212 45.1045 43.2432L43.7321 44.698C43.5825 44.5569 43.4012 44.4419 43.1971 44.3626L43.9217 42.4985ZM45.1033 43.2421L48.0332 45.9971L46.6631 47.4541L43.7332 44.6991L45.1033 43.2421ZM48.0342 45.9981C48.1433 46.101 48.2765 46.1858 48.4275 46.2446L47.7013 48.1081C47.3162 47.958 46.9625 47.7364 46.662 47.4531L48.0342 45.9981ZM48.4275 46.2446C48.5786 46.3035 48.7426 46.3344 48.9095 46.3343L48.9109 48.3343C48.4973 48.3346 48.0864 48.2582 47.7013 48.1081L48.4275 46.2446ZM46.6978 21.662C47.6463 21.662 48.5677 22.015 49.2565 22.6615L47.8877 24.1198C47.5823 23.8331 47.1553 23.662 46.6978 23.662V21.662ZM49.2565 22.6615C49.9474 23.3101 50.3485 24.2037 50.3485 25.1499H48.3485C48.3485 24.7765 48.191 24.4044 47.8877 24.1198L49.2565 22.6615ZM50.3485 25.1491L50.3626 42.4173L48.3626 42.4189L48.3485 25.1508L50.3485 25.1491ZM50.3626 42.4181V45.261H48.3626V42.4181H50.3626ZM50.3626 45.2634C50.3619 45.5577 50.268 45.8394 50.1012 46.0727L48.4742 44.9096C48.4047 45.0068 48.3629 45.1283 48.3626 45.2587L50.3626 45.2634ZM50.1012 46.0727C49.935 46.3052 49.706 46.4771 49.45 46.5761L48.7284 44.7108C48.6339 44.7474 48.543 44.8133 48.4742 44.9096L50.1012 46.0727ZM49.45 46.5761C49.1944 46.675 48.9165 46.6998 48.6491 46.6494L49.0189 44.6839C48.9228 44.6658 48.8225 44.6744 48.7284 44.7108L49.45 46.5761ZM48.6491 46.6494C48.3815 46.5991 48.1277 46.4741 47.9227 46.2812L49.2934 44.8247C49.2118 44.7479 49.1152 44.702 49.0189 44.6839L48.6491 46.6494ZM47.9239 46.2823L44.9835 43.5239L46.3518 42.0653L49.2922 44.8236L47.9239 46.2823ZM44.9811 43.5218C44.668 43.2262 44.2921 42.9887 43.8736 42.8259L44.5984 40.9619C45.2519 41.216 45.8491 41.5908 46.3541 42.0675L44.9811 43.5218ZM43.8736 42.8259C43.455 42.6632 43.0042 42.5793 42.5478 42.5805L42.5426 40.5805C43.2464 40.5786 43.945 40.7078 44.5984 40.9619L43.8736 42.8259ZM42.5452 42.5805H20.4177V40.5805H42.5452V42.5805ZM20.4177 42.5805C19.4692 42.5805 18.5478 42.2274 17.859 41.5809L19.2278 40.1227C19.5332 40.4093 19.9602 40.5805 20.4177 40.5805V42.5805ZM17.859 41.5809C17.1681 40.9324 16.7671 40.0388 16.7671 39.0925H18.7671C18.7671 39.466 18.9245 39.838 19.2278 40.1227L17.859 41.5809ZM16.7671 39.0925V25.1499H18.7671V39.0925H16.7671ZM16.7671 25.1499C16.7671 24.2037 17.1681 23.3101 17.859 22.6615L19.2278 24.1198C18.9245 24.4044 18.7671 24.7765 18.7671 25.1499H16.7671ZM17.859 22.6615C18.5478 22.015 19.4692 21.662 20.4177 21.662V23.662C19.9602 23.662 19.5332 23.8331 19.2278 24.1198L17.859 22.6615ZM20.4177 21.662H46.6978V23.662H20.4177V21.662Z" fill="white" mask="url(#path-2-inside-1_918_3457)"/>
</svg>
