<svg width="68" height="69" viewBox="0 0 68 69" fill="none" xmlns="http://www.w3.org/2000/svg">
<circle cx="34" cy="34.3438" r="34" fill="#C92031"/>
<mask id="path-2-inside-1_1402_2972" fill="white">
<path d="M48.9102 47.6781C49.4953 47.6781 50.0565 47.4604 50.4709 47.0727C50.8852 46.685 51.119 46.1589 51.1208 45.6097V42.7635L51.1155 25.4904C51.1155 24.3906 50.6501 23.3359 49.8216 22.5583C48.9931 21.7806 47.8695 21.3438 46.6978 21.3438H20.4177C19.8375 21.3438 19.2631 21.451 18.7271 21.6594C18.1911 21.8678 17.7041 22.1732 17.2939 22.5583C16.8837 22.9433 16.5583 23.4004 16.3363 23.9035C16.1142 24.4066 16 24.9458 16 25.4904V39.4396C16 39.9841 16.1142 40.5233 16.3363 41.0264C16.5583 41.5295 16.8837 41.9866 17.2939 42.3717C17.7041 42.7567 18.1911 43.0622 18.7271 43.2706C19.2631 43.4789 19.8375 43.5862 20.4177 43.5862H42.5452C42.8932 43.5854 43.2379 43.6493 43.5594 43.7743C43.8809 43.8992 44.1728 44.0828 44.4183 44.3143L47.3481 47.0694C47.5529 47.2625 47.7963 47.4157 48.0644 47.5201C48.3325 47.6246 48.6199 47.6783 48.9102 47.6781ZM46.6978 23.0057C47.4008 23.0057 48.075 23.2678 48.5721 23.7344C49.0692 24.201 49.3485 24.8338 49.3485 25.4937L49.3626 42.7619V45.6048C49.3624 45.6868 49.3363 45.7668 49.2877 45.8349C49.239 45.903 49.1699 45.956 49.0892 45.9872C49.0084 46.0185 48.9196 46.0265 48.834 46.0104C48.7484 45.9943 48.6697 45.9547 48.6081 45.8967L45.6676 43.1384C45.2586 42.7522 44.772 42.4461 44.236 42.2377C43.7 42.0292 43.1253 41.9227 42.5452 41.9242H20.4177C19.7147 41.9242 19.0405 41.6621 18.5434 41.1955C18.0463 40.7289 17.7671 40.0961 17.7671 39.4363V25.4937C17.7671 24.8338 18.0463 24.201 18.5434 23.7344C19.0405 23.2678 19.7147 23.0057 20.4177 23.0057H46.6978Z"/>
</mask>
<path d="M48.9102 47.6781C49.4953 47.6781 50.0565 47.4604 50.4709 47.0727C50.8852 46.685 51.119 46.1589 51.1208 45.6097V42.7635L51.1155 25.4904C51.1155 24.3906 50.6501 23.3359 49.8216 22.5583C48.9931 21.7806 47.8695 21.3438 46.6978 21.3438H20.4177C19.8375 21.3438 19.2631 21.451 18.7271 21.6594C18.1911 21.8678 17.7041 22.1732 17.2939 22.5583C16.8837 22.9433 16.5583 23.4004 16.3363 23.9035C16.1142 24.4066 16 24.9458 16 25.4904V39.4396C16 39.9841 16.1142 40.5233 16.3363 41.0264C16.5583 41.5295 16.8837 41.9866 17.2939 42.3717C17.7041 42.7567 18.1911 43.0622 18.7271 43.2706C19.2631 43.4789 19.8375 43.5862 20.4177 43.5862H42.5452C42.8932 43.5854 43.2379 43.6493 43.5594 43.7743C43.8809 43.8992 44.1728 44.0828 44.4183 44.3143L47.3481 47.0694C47.5529 47.2625 47.7963 47.4157 48.0644 47.5201C48.3325 47.6246 48.6199 47.6783 48.9102 47.6781ZM46.6978 23.0057C47.4008 23.0057 48.075 23.2678 48.5721 23.7344C49.0692 24.201 49.3485 24.8338 49.3485 25.4937L49.3626 42.7619V45.6048C49.3624 45.6868 49.3363 45.7668 49.2877 45.8349C49.239 45.903 49.1699 45.956 49.0892 45.9872C49.0084 46.0185 48.9196 46.0265 48.834 46.0104C48.7484 45.9943 48.6697 45.9547 48.6081 45.8967L45.6676 43.1384C45.2586 42.7522 44.772 42.4461 44.236 42.2377C43.7 42.0292 43.1253 41.9227 42.5452 41.9242H20.4177C19.7147 41.9242 19.0405 41.6621 18.5434 41.1955C18.0463 40.7289 17.7671 40.0961 17.7671 39.4363V25.4937C17.7671 24.8338 18.0463 24.201 18.5434 23.7344C19.0405 23.2678 19.7147 23.0057 20.4177 23.0057H46.6978Z" fill="#FAF9F4"/>
<path d="M48.9102 47.6781L48.9095 46.6781H48.9102L48.9102 47.6781ZM51.1208 45.6097H52.1209L52.1208 45.6132L51.1208 45.6097ZM51.1208 42.7635L52.1208 42.7632V42.7635H51.1208ZM51.1155 25.4904L50.1155 25.4907V25.4904H51.1155ZM20.4177 21.3438V20.3438V21.3438ZM16 39.4396H17H16ZM20.4177 43.5862V42.5862V43.5862ZM42.5452 43.5862L42.5476 44.5862H42.5452V43.5862ZM44.4183 44.3143L43.7332 45.0429L43.7321 45.0418L44.4183 44.3143ZM47.3481 47.0694L48.0332 46.3408L48.0342 46.3418L47.3481 47.0694ZM46.6978 23.0057V24.0057V23.0057ZM49.3485 25.4937L48.3485 25.4945V25.4937H49.3485ZM49.3626 42.7619L50.3626 42.761V42.7619H49.3626ZM49.3626 45.6048H50.3626L50.3626 45.6071L49.3626 45.6048ZM48.6081 45.8967L49.2922 45.1674L49.2934 45.1684L48.6081 45.8967ZM45.6676 43.1384L44.9834 43.8677L44.9811 43.8655L45.6676 43.1384ZM42.5452 41.9242L42.5478 42.9242H42.5452V41.9242ZM20.4177 41.9242V42.9242V41.9242ZM48.9102 46.6781C49.2503 46.6781 49.5648 46.551 49.7877 46.3425L51.1541 47.8029C50.5482 48.3698 49.7403 48.6781 48.9102 48.6781L48.9102 46.6781ZM49.7877 46.3425C50.0084 46.136 50.12 45.8697 50.1209 45.6063L52.1208 45.6132C52.118 46.4481 51.7621 47.234 51.1541 47.8029L49.7877 46.3425ZM50.1208 45.6097V42.7635H52.1208V45.6097H50.1208ZM50.1208 42.7638L50.1155 25.4907L52.1155 25.4901L52.1208 42.7632L50.1208 42.7638ZM50.1155 25.4904C50.1155 24.677 49.7719 23.8831 49.1372 23.2874L50.506 21.8291C51.5283 22.7887 52.1155 24.1042 52.1155 25.4904H50.1155ZM49.1372 23.2874C48.5005 22.6897 47.624 22.3438 46.6978 22.3438V20.3438C48.115 20.3438 49.4858 20.8716 50.506 21.8291L49.1372 23.2874ZM46.6978 22.3438H20.4177V20.3438H46.6978V22.3438ZM20.4177 22.3438C19.9604 22.3438 19.5089 22.4284 19.0895 22.5914L18.3647 20.7274C19.0173 20.4736 19.7147 20.3438 20.4177 20.3438V22.3438ZM19.0895 22.5914C18.6701 22.7545 18.293 22.9919 17.9783 23.2874L16.6095 21.8291C17.1152 21.3545 17.7121 20.9811 18.3647 20.7274L19.0895 22.5914ZM17.9783 23.2874C17.6636 23.5827 17.4177 23.9299 17.2511 24.3073L15.4214 23.4998C15.6989 22.871 16.1037 22.3039 16.6095 21.8291L17.9783 23.2874ZM17.2511 24.3073C17.0847 24.6844 17 25.0863 17 25.4904H15C15 24.8054 15.1438 24.1288 15.4214 23.4998L17.2511 24.3073ZM17 25.4904V39.4396H15V25.4904H17ZM17 39.4396C17 39.8437 17.0847 40.2455 17.2511 40.6227L15.4214 41.4302C15.1438 40.8012 15 40.1246 15 39.4396H17ZM17.2511 40.6227C17.4177 41.0001 17.6636 41.3472 17.9783 41.6426L16.6095 43.1008C16.1037 42.626 15.6989 42.059 15.4214 41.4302L17.2511 40.6227ZM17.9783 41.6426C18.293 41.938 18.6701 42.1755 19.0895 42.3385L18.3647 44.2026C17.7121 43.9489 17.1152 43.5754 16.6095 43.1008L17.9783 41.6426ZM19.0895 42.3385C19.5089 42.5016 19.9604 42.5862 20.4177 42.5862V44.5862C19.7147 44.5862 19.0173 44.4563 18.3647 44.2026L19.0895 42.3385ZM20.4177 42.5862H42.5452V44.5862H20.4177V42.5862ZM42.5428 42.5862C43.0144 42.5851 43.4829 42.6716 43.9217 42.8422L43.1971 44.7063C42.9929 44.6269 42.7719 44.5857 42.5476 44.5862L42.5428 42.5862ZM43.9217 42.8422C44.3606 43.0128 44.7631 43.2649 45.1045 43.5869L43.7321 45.0418C43.5825 44.9007 43.4012 44.7857 43.1971 44.7063L43.9217 42.8422ZM45.1033 43.5858L48.0332 46.3408L46.6631 47.7979L43.7332 45.0429L45.1033 43.5858ZM48.0342 46.3418C48.1433 46.4447 48.2765 46.5295 48.4275 46.5884L47.7013 48.4519C47.3162 48.3018 46.9625 48.0802 46.662 47.7969L48.0342 46.3418ZM48.4275 46.5884C48.5786 46.6472 48.7426 46.6782 48.9095 46.6781L48.9109 48.6781C48.4973 48.6784 48.0864 48.6019 47.7013 48.4519L48.4275 46.5884ZM46.6978 22.0057C47.6463 22.0057 48.5677 22.3588 49.2565 23.0053L47.8877 24.4635C47.5823 24.1769 47.1553 24.0057 46.6978 24.0057V22.0057ZM49.2565 23.0053C49.9474 23.6538 50.3485 24.5474 50.3485 25.4937H48.3485C48.3485 25.1202 48.191 24.7482 47.8877 24.4635L49.2565 23.0053ZM50.3485 25.4929L50.3626 42.761L48.3626 42.7627L48.3485 25.4945L50.3485 25.4929ZM50.3626 42.7619V45.6048H48.3626V42.7619H50.3626ZM50.3626 45.6071C50.3619 45.9014 50.268 46.1832 50.1012 46.4165L48.4742 45.2533C48.4047 45.3505 48.3629 45.4721 48.3626 45.6024L50.3626 45.6071ZM50.1012 46.4165C49.935 46.6489 49.706 46.8208 49.45 46.9199L48.7284 45.0546C48.6339 45.0911 48.543 45.157 48.4742 45.2533L50.1012 46.4165ZM49.45 46.9199C49.1944 47.0188 48.9165 47.0435 48.6491 46.9932L49.0189 45.0277C48.9228 45.0096 48.8225 45.0182 48.7284 45.0546L49.45 46.9199ZM48.6491 46.9932C48.3815 46.9428 48.1277 46.8178 47.9227 46.625L49.2934 45.1684C49.2118 45.0917 49.1152 45.0458 49.0189 45.0277L48.6491 46.9932ZM47.9239 46.626L44.9835 43.8677L46.3518 42.409L49.2922 45.1674L47.9239 46.626ZM44.9811 43.8655C44.668 43.5699 44.2921 43.3324 43.8736 43.1697L44.5984 41.3056C45.2519 41.5597 45.8491 41.9345 46.3541 42.4112L44.9811 43.8655ZM43.8736 43.1697C43.455 43.0069 43.0042 42.923 42.5478 42.9242L42.5426 40.9242C43.2464 40.9224 43.945 41.0516 44.5984 41.3056L43.8736 43.1697ZM42.5452 42.9242H20.4177V40.9242H42.5452V42.9242ZM20.4177 42.9242C19.4692 42.9242 18.5478 42.5712 17.859 41.9247L19.2278 40.4664C19.5332 40.7531 19.9602 40.9242 20.4177 40.9242V42.9242ZM17.859 41.9247C17.1681 41.2761 16.7671 40.3825 16.7671 39.4363H18.7671C18.7671 39.8097 18.9245 40.1818 19.2278 40.4664L17.859 41.9247ZM16.7671 39.4363V25.4937H18.7671V39.4363H16.7671ZM16.7671 25.4937C16.7671 24.5474 17.1681 23.6538 17.859 23.0053L19.2278 24.4635C18.9245 24.7482 18.7671 25.1202 18.7671 25.4937H16.7671ZM17.859 23.0053C18.5478 22.3588 19.4692 22.0057 20.4177 22.0057V24.0057C19.9602 24.0057 19.5332 24.1769 19.2278 24.4635L17.859 23.0053ZM20.4177 22.0057H46.6978V24.0057H20.4177V22.0057Z" fill="white" mask="url(#path-2-inside-1_1402_2972)"/>
</svg>
