<svg width="57" height="13" viewBox="0 0 57 13" fill="none" xmlns="http://www.w3.org/2000/svg">
<g clip-path="url(#clip0_301_5429)">
<path d="M8.59053 8.72032L10.0305 9.93509C9.75504 10.3136 9.42221 10.649 9.04339 10.9298C8.57229 11.2925 8.04886 11.5852 7.48997 11.7983C6.87146 12.0343 6.21237 12.1523 5.54831 12.1459C4.53857 12.1632 3.54304 11.9121 2.66837 11.4194C1.84404 10.9474 1.16713 10.2649 0.710431 9.44547C0.226884 8.57398 -0.0175129 7.59525 0.000976311 6.60434C-0.00562801 5.85979 0.130933 5.12065 0.403575 4.42525C0.669112 3.75733 1.06481 3.146 1.56877 2.62508C2.06546 2.10687 2.66566 1.69345 3.33235 1.41032C4.05287 1.10952 4.8298 0.958824 5.61342 0.967874C6.54907 0.933888 7.47675 1.14661 8.29903 1.58366C8.97967 1.97005 9.56944 2.49185 10.03 3.11519L8.57428 4.37853C8.25109 3.91163 7.8391 3.50957 7.36069 3.19415C6.83595 2.88127 6.22782 2.72744 5.61342 2.75216C4.95798 2.73336 4.31297 2.91538 3.76893 3.27264C3.24756 3.62731 2.83406 4.11288 2.57215 4.67802C2.28906 5.27174 2.14515 5.91959 2.15088 6.57441C2.1436 7.21361 2.2876 7.8458 2.57167 8.42177C2.83194 8.95646 3.23346 9.41385 3.73494 9.74682C4.25851 10.0804 4.87345 10.2511 5.49853 10.2364C6.02496 10.2585 6.54981 10.1668 7.03568 9.96777C7.38498 9.81427 7.70287 9.60026 7.97396 9.33614L8.58865 8.72032" fill="#182954"/>
<path d="M10.5974 8.11913C10.5902 7.42324 10.7687 6.73745 11.1153 6.12928C11.4607 5.52801 11.9632 5.02681 12.5716 4.67672C13.2313 4.32449 13.9713 4.13989 14.7234 4.13989C15.4754 4.13989 16.2154 4.32449 16.8752 4.67672C17.4836 5.02681 17.9861 5.52801 18.3315 6.12928C18.6712 6.74003 18.8492 7.42397 18.8492 8.11891C18.8492 8.81384 18.6712 9.49778 18.3315 10.1086C17.9631 10.7224 17.4369 11.2318 16.8048 11.5863C16.1729 11.9408 15.457 12.1282 14.7281 12.1298C13.9991 12.1313 13.2824 11.9472 12.6487 11.5955C12.0151 11.2438 11.4865 10.7367 11.1153 10.1244C10.7688 9.51634 10.5903 8.83077 10.5974 8.13505V8.11913ZM14.7071 10.5038C15.142 10.5201 15.5698 10.3922 15.9207 10.1408C16.2409 9.90258 16.4919 9.58693 16.6488 9.22502C16.8034 8.88134 16.886 8.51086 16.8915 8.1355C16.8877 7.75992 16.8051 7.38916 16.6488 7.04598C16.4912 6.68447 16.2403 6.36895 15.9207 6.13021C15.5624 5.89352 15.1397 5.76702 14.7071 5.76702C14.2745 5.76702 13.8518 5.89352 13.4935 6.13021C13.1815 6.36601 12.9365 6.67578 12.7817 7.03006C12.6254 7.37323 12.5428 7.74405 12.539 8.11963C12.5419 8.50038 12.6245 8.87652 12.7817 9.22502C12.938 9.58726 13.1891 9.90308 13.5098 10.1408C13.8607 10.3922 14.2885 10.5201 14.7234 10.5038" fill="#182954"/>
<path d="M19.2369 1.21973H21.1623V3.20959H19.2369V1.21973ZM19.2369 4.37809H21.1623V11.8787H19.2369V4.37809Z" fill="#182954"/>
<path d="M21.9225 11.8779V4.39318H23.7669L23.8148 5.24585C24.069 4.98839 24.3574 4.76526 24.6722 4.5824C25.114 4.33397 25.6191 4.2134 26.1285 4.23479C26.5332 4.20944 26.9386 4.27125 27.3161 4.41586C27.6936 4.56046 28.0339 4.78433 28.3128 5.07158C28.8467 5.70497 29.1181 6.51059 29.0735 7.3296V11.8775H27.1318V7.34553C27.144 7.14419 27.1144 6.94253 27.045 6.75258C26.9754 6.56263 26.8674 6.38833 26.7273 6.24007C26.5918 6.10835 26.4299 6.00531 26.2517 5.93739C26.0736 5.86946 25.883 5.83811 25.6918 5.84528C25.4415 5.83876 25.1927 5.88636 24.9634 5.98466C24.7341 6.08296 24.5298 6.22953 24.3653 6.41388C24.0166 6.80146 23.8315 7.3037 23.8474 7.81928V11.8775L21.9225 11.8779Z" fill="#182954"/>
<path d="M52.8592 6.16088L56.2581 1.21636H53.0383L51.2747 3.97993L49.4604 1.21636H45.9007L46.0625 1.43735L45.949 1.39063C45.1071 1.07916 44.2126 0.924945 43.3123 0.936032C42.2746 0.917137 41.2513 1.17374 40.3514 1.67844C39.7088 2.04605 39.1521 2.54084 38.7171 3.131C38.2445 2.55285 37.6332 2.09727 36.9372 1.80458C35.9862 1.41091 34.961 1.21655 33.928 1.23411H29.7374V11.8772H33.9118C34.946 11.8937 35.972 11.6945 36.921 11.2927C37.6123 10.9997 38.2223 10.5505 38.7008 9.98221C39.1429 10.5776 39.7112 11.0731 40.3672 11.4348C41.2675 11.9206 42.2832 12.1658 43.3118 12.1454C44.2853 12.1624 45.2494 11.957 46.1271 11.5455L45.9007 11.8772H49.0717L51.1914 8.60676L53.3758 11.8772H57.0001L52.8592 6.16088ZM36.0162 8.59038C35.7243 8.86247 35.3782 9.073 34.9993 9.20884C34.6205 9.34469 34.217 9.40294 33.8141 9.37996H32.6336V3.69773H33.8146C34.2281 3.66353 34.6443 3.71632 35.035 3.85254C35.4258 3.98875 35.7821 4.20522 36.0799 4.48732C36.5811 5.05641 36.8415 5.79049 36.808 6.54025C36.8238 6.91688 36.7617 7.29269 36.6255 7.6454C36.4894 7.99811 36.2818 8.32043 36.0152 8.59319L36.0162 8.59038ZM47.6159 9.36689L46.2406 8.10542C45.9183 8.51318 45.5239 8.86129 45.0758 9.13327C44.5968 9.37491 44.0611 9.48928 43.5224 9.46501C42.9894 9.47773 42.4631 9.34665 42.0015 9.08612C41.5694 8.83494 41.2204 8.46777 40.9962 8.02833C40.7542 7.55283 40.6321 7.02772 40.6401 6.4968C40.6297 5.97748 40.7462 5.46322 40.98 4.99658C41.2014 4.56101 41.5434 4.1946 41.9671 3.93881C42.4414 3.66498 42.9855 3.52808 43.5363 3.54402C44.0465 3.53399 44.5498 3.65947 44.9926 3.90704C45.4244 4.15719 45.7992 4.49112 46.0936 4.88819L47.5336 3.48281L49.637 6.4356L47.6159 9.36689Z" fill="#FA4A29"/>
</g>
<defs>
<clipPath id="clip0_301_5429">
<rect width="57" height="11.2131" fill="white" transform="translate(0 0.935059)"/>
</clipPath>
</defs>
</svg>
