<svg width="534" height="67" viewBox="0 0 534 67" fill="none" xmlns="http://www.w3.org/2000/svg">
<path d="M0 38.9763V0H17.1729V37.4761C17.1729 46.8206 21.5767 51.6448 28.7623 51.6448C35.948 51.6448 40.2436 46.8108 40.2436 37.4761V0H57.4165V39.0842C57.4165 57.126 46.1514 67 28.7623 67C11.3732 67 0 57.1162 0 38.9763Z" fill="#C72030"/>
<path d="M85.6091 44.1241V65.9214H68.5444V0H98.1619C112.327 0 122.098 8.0502 122.098 22.4445C122.098 32.4263 117.055 39.2999 109.004 42.3101L124.457 65.9312H105.357L91.6152 44.1339H85.6091V44.1241ZM85.6091 30.377H96.3434C102.458 30.377 105.249 27.2589 105.249 22.4347C105.249 17.6104 102.458 14.4923 96.3434 14.4923H85.6091V30.3868V30.377Z" fill="#C72030"/>
<path d="M183.642 47.4579C183.642 59.3714 175.483 65.9214 161.751 65.9214H131.485V0H159.706C173.449 0 181.706 6.11854 181.706 17.934C181.706 25.0233 177.734 30.1711 172.908 31.8968C179.13 33.9363 183.642 40.0549 183.642 47.4677V47.4579ZM157.78 26.0921C162.822 26.0921 165.506 24.1604 165.506 20.0814C165.506 16.0023 162.822 14.1785 157.78 14.1785H147.901V26.0921H157.78ZM147.901 51.7527H159.49C164.317 51.7527 167 49.1739 167 45.4184C167 41.4472 164.317 38.9763 159.49 38.9763H147.901V51.7527Z" fill="#C72030"/>
<path d="M298.996 65.9214L271.413 27.3766V65.9214H254.781V0H270.882L296.322 36.2896V0H312.954V65.9214H298.996Z" fill="#C72030"/>
<path d="M368.907 0L378.993 38.7606L388.115 0H405.504L388.115 65.9214H372.338L362.144 27.2687L351.843 65.9214H336.066L318.785 0H336.39L345.62 38.7606L355.814 0H368.907Z" fill="#C72030"/>
<path d="M428.456 44.1241V65.9214H411.391V0H441.009C455.174 0 464.945 8.0502 464.945 22.4445C464.945 32.4263 459.902 39.2999 451.851 42.3101L467.304 65.9312H448.204L434.462 44.1339H428.456V44.1241ZM428.456 30.377H439.19C445.304 30.377 448.096 27.2589 448.096 22.4347C448.096 17.6104 445.304 14.4923 439.19 14.4923H428.456V30.3868V30.377Z" fill="#C72030"/>
<path d="M491.614 27.053L512.866 0H533.047L509.976 28.9944L534.02 65.9312H513.732L497.099 40.5942L491.624 47.5756V65.9312H474.343V0H491.624V27.053H491.614Z" fill="#C72030"/>
<path d="M244.009 0.0588896V43.8986H229.362V23.9643L205.741 43.8986H194.112V33.8089L216.042 14.6689H194.112V0.0588896H244.009Z" fill="#C72030"/>
<path d="M244.009 51.2038H194.112V65.8138H244.009V51.2038Z" fill="#C72030"/>
</svg>
