<svg width="80" height="80" viewBox="0 0 80 80" fill="none" xmlns="http://www.w3.org/2000/svg">
<g clip-path="url(#clip0_1386_15459)">
<path d="M40 0C43.6719 0 47.2135 0.46875 50.625 1.40625C54.0365 2.34375 57.2135 3.69792 60.1562 5.46875C63.099 7.23958 65.7943 9.32292 68.2422 11.7188C70.6901 14.1146 72.7865 16.8099 74.5312 19.8047C76.276 22.7995 77.6172 25.9896 78.5547 29.375C79.4922 32.7604 79.974 36.3021 80 40C80 43.6719 79.5312 47.2135 78.5938 50.625C77.6562 54.0365 76.3021 57.2135 74.5312 60.1562C72.7604 63.099 70.6771 65.7943 68.2812 68.2422C65.8854 70.6901 63.1901 72.7865 60.1953 74.5312C57.2005 76.276 54.0104 77.6172 50.625 78.5547C47.2396 79.4922 43.6979 79.974 40 80C36.3281 80 32.7865 79.5312 29.375 78.5938C25.9635 77.6562 22.7865 76.3021 19.8438 74.5312C16.901 72.7604 14.2057 70.6771 11.7578 68.2812C9.3099 65.8854 7.21354 63.1901 5.46875 60.1953C3.72396 57.2005 2.38281 54.0104 1.44531 50.625C0.507812 47.2396 0.0260417 43.6979 0 40C0 36.3281 0.46875 32.7865 1.40625 29.375C2.34375 25.9635 3.69792 22.7865 5.46875 19.8438C7.23958 16.901 9.32292 14.2057 11.7188 11.7578C14.1146 9.3099 16.8099 7.21354 19.8047 5.46875C22.7995 3.72396 25.9896 2.38281 29.375 1.44531C32.7604 0.507812 36.3021 0.0260417 40 0ZM63.5547 26.7578L58.2422 21.4453L32.5 47.1875L21.7578 36.4453L16.4453 41.7578L32.5 57.8125L63.5547 26.7578Z" fill="#C72030"/>
</g>
<defs>
<clipPath id="clip0_1386_15459">
<rect width="80" height="80" fill="white"/>
</clipPath>
</defs>
</svg>
