<svg width="210" height="28" viewBox="0 0 210 28" fill="none" xmlns="http://www.w3.org/2000/svg">
<path d="M0 16.3122V0.746094H6.75311V15.7131C6.75311 19.445 8.48487 21.3717 11.3106 21.3717C14.1363 21.3717 15.8255 19.4411 15.8255 15.7131V0.746094H22.5787V16.3553C22.5787 23.5607 18.1487 27.5042 11.3106 27.5042C4.47244 27.5042 0 23.5568 0 16.3122Z" fill="#C72030"/>
<path d="M33.6652 18.3681V27.0734H26.9546V0.746094H38.6015C44.1718 0.746094 48.0141 3.96113 48.0141 9.70983C48.0141 13.6963 46.0311 16.4414 42.8652 17.6437L48.9419 27.0773H41.4311L36.0271 18.372H33.6652V18.3681ZM33.6652 12.8779H37.8864C40.2908 12.8779 41.3886 11.6326 41.3886 9.70591C41.3886 7.77924 40.2908 6.53395 37.8864 6.53395H33.6652V12.8818V12.8779Z" fill="#C72030"/>
<path d="M72.2161 19.6996C72.2161 24.4575 69.0076 27.0734 63.6075 27.0734H51.7055V0.746094H62.8034C68.2075 0.746094 71.4545 3.18968 71.4545 7.90847C71.4545 10.7397 69.8929 12.7956 67.9949 13.4849C70.4418 14.2994 72.2161 16.743 72.2161 19.7035V19.6996ZM62.0458 11.1666C64.0288 11.1666 65.0841 10.3951 65.0841 8.76607C65.0841 7.13701 64.0288 6.40864 62.0458 6.40864H58.1609V11.1666H62.0458ZM58.1609 21.4148H62.7184C64.6164 21.4148 65.6717 20.3849 65.6717 18.885C65.6717 17.299 64.6164 16.3122 62.7184 16.3122H58.1609V21.4148Z" fill="#C72030"/>
<path d="M117.578 27.0734L106.731 11.6796V27.0734H100.191V0.746094H106.523L116.527 15.2392V0.746094H123.067V27.0734H117.578Z" fill="#C72030"/>
<path d="M145.07 0.746094L149.036 16.2261L152.624 0.746094H159.462L152.624 27.0734H146.419L142.411 11.6365L138.36 27.0734H132.156L125.36 0.746094H132.283L135.913 16.2261L139.921 0.746094H145.07Z" fill="#C72030"/>
<path d="M168.487 18.3681V27.0734H161.777V0.746094H173.424C178.994 0.746094 182.836 3.96113 182.836 9.70983C182.836 13.6963 180.853 16.4414 177.687 17.6437L183.764 27.0773H176.253L170.849 18.372H168.487V18.3681ZM168.487 12.8779H172.709C175.113 12.8779 176.211 11.6326 176.211 9.70591C176.211 7.77924 175.113 6.53395 172.709 6.53395H168.487V12.8818V12.8779Z" fill="#C72030"/>
<path d="M193.324 11.5504L201.681 0.746094H209.617L200.545 12.3257L210 27.0773H202.021L195.481 16.9584L193.328 19.7466V27.0773H186.532V0.746094H193.328V11.5504H193.324Z" fill="#C72030"/>
<path d="M95.9547 0.769613V18.2781H90.1951V10.3168L80.9062 18.2781H76.3332V14.2485L84.9573 6.60446H76.3332V0.769613H95.9547Z" fill="#C72030"/>
<path d="M95.9547 21.1956H76.3332V27.0304H95.9547V21.1956Z" fill="#C72030"/>
</svg>
