<svg width="132" height="60" viewBox="0 0 132 60" fill="none" xmlns="http://www.w3.org/2000/svg">
<path d="M12.0671 37.6705C12.1237 37.814 3.98646 26.5162 16.3925 17.3311V17.5236C16.3925 17.5236 4.80773 25.0247 12.3088 37.6705H12.069H12.0671Z" fill="url(#paint0_linear_1186_8534)"/>
<path d="M12.6332 23.5922C12.9881 21.3738 14.7968 17.3901 18.9315 15.9476C23.9989 14.1805 31.9021 17.5808 30.9996 17.9187C30.0991 18.2567 24.9165 17.6752 22.1997 21.7174C20.2475 24.6211 22.0279 28.6142 23.6685 30.5645C25.8529 33.1605 30.758 35.3733 33.6428 35.0844C36.5277 34.7955 30.2614 37.1367 26.6704 37.2009C19.0184 37.3368 15.3141 31.6652 14.4098 30.5173C13.2732 29.0749 12.2461 25.9975 12.6313 23.594L12.6332 23.5922Z" fill="url(#paint1_radial_1186_8534)"/>
<path d="M12.1046 37.7294H12.873C12.873 37.7294 11.3513 35.1976 12.873 33.1623C14.6704 30.757 17.9517 31.8011 17.4401 29.3637C17.0077 27.2963 12.822 28.9653 11.7025 31.5349C10.0599 35.3014 12.1027 37.7313 12.1027 37.7313L12.1046 37.7294Z" fill="url(#paint2_radial_1186_8534)"/>
<path style="mix-blend-mode:multiply" opacity="0.1" d="M12.1046 37.7294H12.873C12.873 37.7294 11.3513 35.1976 12.873 33.1623C14.6704 30.757 17.9517 31.8011 17.4401 29.3637C17.0077 27.2963 12.822 28.9653 11.7025 31.5349C10.0599 35.3033 12.1027 37.7313 12.1027 37.7313L12.1046 37.7294Z" fill="url(#paint3_radial_1186_8534)"/>
<path d="M18.934 15.9481C20.9315 15.0589 32.5824 12.4308 37.9084 23.1509C43.023 33.448 34.899 41.5929 30.2582 43.2826C24.3375 45.4387 17.8767 44.6042 13.4041 39.4632C13.3116 39.3575 14.2216 39.2196 14.2216 39.2196C14.2216 39.2196 20.2669 43.4034 27.8303 38.8345C32.7051 35.8911 37.3571 26.7267 31.1966 19.3598C27.0109 14.3603 18.934 15.9481 18.934 15.9481Z" fill="url(#paint4_radial_1186_8534)"/>
<path opacity="0.02" d="M21.122 17.3108L21.762 18.7702C21.762 18.7702 24.9546 18.1623 27.4072 18.1623C27.4072 18.1623 26.718 16.6254 26.5953 16.6217C23.4122 16.5008 21.1201 17.3108 21.1201 17.3108H21.122Z" fill="#FCFCFC"/>
<path opacity="0.03" d="M27.5596 16.7517C28.0561 17.2482 28.1788 17.9373 28.1788 18.1205C28.1788 18.2488 29.238 17.943 31.6452 18.819C31.6452 18.819 31.4319 17.6919 31.3412 17.6541C28.9284 16.6403 27.5596 16.7517 27.5596 16.7517Z" fill="#FCFCFC"/>
<path opacity="0.1" d="M32.0703 18.121L32.3346 19.3369C32.3346 19.3369 33.6676 19.807 35.0515 21.0191C35.0515 21.0191 35.0722 20.1884 35.0118 20.1261C34.3227 19.437 32.0722 18.1191 32.0722 18.1191L32.0703 18.121Z" fill="#FCFCFC"/>
<path style="mix-blend-mode:screen" opacity="0.44" d="M38.271 23.934C38.1578 23.6735 38.0388 23.4129 37.9066 23.1505C33.332 13.9408 24.3697 14.6243 20.6296 15.4399C20.3539 16.3518 20.2236 17.2562 20.2236 18.2568C20.2236 20.0523 20.7013 21.7364 21.5358 23.1883C21.6736 22.6785 21.8888 22.182 22.2041 21.7137C24.3281 18.5551 27.9569 18.2209 29.8713 18.0642C30.3395 18.4399 30.7851 18.8685 31.1967 19.3594C33.332 21.912 34.1684 24.6798 34.1457 27.3305C35.8129 26.5942 37.2383 25.4104 38.2729 23.9321L38.271 23.934Z" fill="url(#paint5_radial_1186_8534)"/>
<path d="M38.4541 40.6121L36.8682 43.4007C36.8682 43.4007 40.0136 45.2641 44.4655 43.7367C49.514 42.0054 50.7639 36.3792 50.7639 36.3792L55.2365 15.6074L50.9564 17.0027L47.0237 35.371C46.3761 38.1124 45.3302 40.5404 43.0948 41.0199C40.3289 41.6146 38.4541 40.6102 38.4541 40.6102V40.6121Z" fill="#095AA6"/>
<path d="M57.3505 28.5917L56.7728 25.9466C56.7728 25.9466 60.7885 23.8113 64.3361 24.0718C70.2361 24.5042 69.5961 29.2242 69.5961 29.2242L67.1568 40.9487C67.1568 40.9487 65.484 43.0028 59.9918 44.2187C54.5581 45.4214 52.4209 41.6869 52.5115 39.2797C52.7966 31.6031 60.8395 31.5011 60.8395 31.5011L64.0321 31.4766L63.3109 34.5049C63.3109 34.5049 56.6274 33.4949 56.6274 38.6397C56.6274 40.2747 58.5985 42.4855 61.6759 41.0922C61.9383 40.9732 63.4544 40.2275 63.4544 40.2275L65.6671 29.9379C65.6671 29.9379 66.0523 26.7641 62.3971 27.053C59.3291 27.2947 57.3486 28.5917 57.3486 28.5917H57.3505Z" fill="#095AA6"/>
<path d="M72.8646 27.457L69.3076 44.0544H71.3051L73.582 43.118L76.701 28.2368C76.701 28.2368 79.197 26.4904 81.1624 27.1757C83.1278 27.8611 82.754 30.2947 82.754 30.2947L79.8219 43.9903H83.9094L87.2172 28.4237C87.2172 28.4237 87.2172 24.7345 82.6312 24.1814C77.9282 23.6131 72.8665 27.457 72.8665 27.457H72.8646Z" fill="#095AA6"/>
<path d="M87.3701 25.2419C87.3701 25.2419 88.401 26.4578 88.401 27.5811C88.401 27.5811 91.8334 26.2406 92.9246 28.0494C93.6307 29.2199 93.2984 30.2961 93.2984 30.2961L90.4589 43.9916H94.452L97.5729 29.4219C97.5729 29.4219 98.2979 25.9197 94.7635 24.4961C91.6276 23.2331 87.3701 25.2419 87.3701 25.2419Z" fill="#095AA6"/>
<path d="M112.639 42.1512L111.954 39.7799C111.954 39.7799 107.149 42.2438 104.902 41.1525C102.535 40.0008 101.953 35.6867 103.686 31.9806C106.15 26.7074 109.364 26.7395 111.204 27.3002C113.045 27.861 113.434 28.2518 113.434 28.2518L115.228 25.8333C115.228 25.8333 112.906 23.8055 109.222 24.0661C104.77 24.3814 99.9331 28.5501 98.8815 35.0052C97.5391 43.2406 103.107 45.644 108.365 43.9902C111.495 43.0065 112.639 42.1494 112.639 42.1494V42.1512Z" fill="#095AA6"/>
<path d="M125.68 24.1678C120.195 23.7883 116.664 27.4567 114.948 30.7626C114.948 30.7626 110.517 40.4952 117.661 43.8974C120.282 45.1454 127.602 44.7243 130.732 37.0345C133.602 29.9847 131.468 24.568 125.678 24.1678H125.68ZM126.616 37.1591C125.119 41.2145 122.092 41.5261 121.218 41.5261C121.218 41.5261 116.476 41.9622 118.192 33.7588C118.483 32.3674 120.344 26.5221 124.681 27.1754C129.018 27.8305 128.113 33.1037 126.614 37.1591H126.616Z" fill="#095AA6"/>
<path d="M8.30619 28.5443C8.30619 28.5443 -0.973338 33.7853 0.0839422 37.6803C0.905222 40.7068 9.06327 40.6218 19.1244 38.1126C34.3663 34.314 44.5615 27.0527 44.5615 27.0527C44.5615 27.0527 28.5493 36.6853 12.9223 37.6312C1.42253 38.3279 3.23313 34.146 4.12238 32.5336C4.97764 30.9854 8.30619 28.5424 8.30619 28.5424V28.5443Z" fill="url(#paint6_radial_1186_8534)"/>
<path d="M19.1243 38.1127C9.46715 40.5199 1.56776 40.6955 0.219727 38.0315C0.219727 38.0315 1.03912 41.4148 12.1443 39.693C31.7135 36.6589 44.5613 27.0547 44.5613 27.0547C44.5613 27.0547 34.368 34.3159 19.1243 38.1146V38.1127Z" fill="url(#paint7_radial_1186_8534)"/>
<defs>
<linearGradient id="paint0_linear_1186_8534" x1="14.008" y1="16.8647" x2="10.4604" y2="36.9266" gradientUnits="userSpaceOnUse">
<stop stop-color="#859BC2"/>
<stop offset="0.14" stop-color="#7E96BF"/>
<stop offset="0.35" stop-color="#6A8AB9"/>
<stop offset="0.59" stop-color="#4B76AF"/>
<stop offset="0.87" stop-color="#1F5AA0"/>
<stop offset="1" stop-color="#084B99"/>
</linearGradient>
<radialGradient id="paint1_radial_1186_8534" cx="0" cy="0" r="1" gradientUnits="userSpaceOnUse" gradientTransform="translate(17.2455 35.6036) scale(12.8365)">
<stop stop-color="#859BC2"/>
<stop offset="0.16" stop-color="#7892BD"/>
<stop offset="0.46" stop-color="#557CB2"/>
<stop offset="0.85" stop-color="#1F59A0"/>
<stop offset="1" stop-color="#084B99"/>
</radialGradient>
<radialGradient id="paint2_radial_1186_8534" cx="0" cy="0" r="1" gradientUnits="userSpaceOnUse" gradientTransform="translate(16.1317 29.628) scale(4.67091 4.67091)">
<stop stop-color="#FBFCFD"/>
<stop offset="0.04" stop-color="#CDDBEA"/>
<stop offset="0.09" stop-color="#A4BDD9"/>
<stop offset="0.14" stop-color="#7FA1CA"/>
<stop offset="0.19" stop-color="#5E8ABC"/>
<stop offset="0.25" stop-color="#4376B1"/>
<stop offset="0.32" stop-color="#2D66A8"/>
<stop offset="0.39" stop-color="#1C59A1"/>
<stop offset="0.49" stop-color="#10519C"/>
<stop offset="0.62" stop-color="#094C99"/>
<stop offset="1" stop-color="#084B99"/>
</radialGradient>
<radialGradient id="paint3_radial_1186_8534" cx="0" cy="0" r="1" gradientUnits="userSpaceOnUse" gradientTransform="translate(16.3564 26.4958) scale(5.89811 5.89812)">
<stop stop-color="white"/>
<stop offset="1"/>
</radialGradient>
<radialGradient id="paint4_radial_1186_8534" cx="0" cy="0" r="1" gradientUnits="userSpaceOnUse" gradientTransform="translate(32.0046 21.8935) scale(13.6521)">
<stop stop-color="white"/>
<stop offset="0.05" stop-color="#E2E7F0"/>
<stop offset="0.13" stop-color="#BAC6DC"/>
<stop offset="0.2" stop-color="#9DAECE"/>
<stop offset="0.27" stop-color="#8BA0C5"/>
<stop offset="0.31" stop-color="#859BC2"/>
<stop offset="0.4" stop-color="#6687B7"/>
<stop offset="0.51" stop-color="#4471AC"/>
<stop offset="0.63" stop-color="#2960A4"/>
<stop offset="0.75" stop-color="#16549D"/>
<stop offset="0.87" stop-color="#0B4D9A"/>
<stop offset="1" stop-color="#084B99"/>
</radialGradient>
<radialGradient id="paint5_radial_1186_8534" cx="0" cy="0" r="1" gradientUnits="userSpaceOnUse" gradientTransform="translate(29.8147 17.6262) scale(8.60173)">
<stop stop-color="#FCFCFC"/>
<stop offset="1"/>
</radialGradient>
<radialGradient id="paint6_radial_1186_8534" cx="0" cy="0" r="1" gradientUnits="userSpaceOnUse" gradientTransform="translate(23.9558 25.0345) scale(33.4856)">
<stop stop-color="#FBFCFD"/>
<stop offset="0.04" stop-color="#CDDBEA"/>
<stop offset="0.09" stop-color="#A4BDD9"/>
<stop offset="0.14" stop-color="#7FA1CA"/>
<stop offset="0.19" stop-color="#5E8ABC"/>
<stop offset="0.25" stop-color="#4376B1"/>
<stop offset="0.32" stop-color="#2D66A8"/>
<stop offset="0.39" stop-color="#1C59A1"/>
<stop offset="0.49" stop-color="#10519C"/>
<stop offset="0.62" stop-color="#094C99"/>
<stop offset="1" stop-color="#084B99"/>
</radialGradient>
<radialGradient id="paint7_radial_1186_8534" cx="0" cy="0" r="1" gradientUnits="userSpaceOnUse" gradientTransform="translate(41.9275 24.4285) scale(37.4202 37.4202)">
<stop stop-color="white"/>
<stop offset="0.41" stop-color="#F4F4F4"/>
<stop offset="0.99" stop-color="#DEDEDE"/>
</radialGradient>
</defs>
</svg>
