<svg width="132" height="60" viewBox="0 0 132 60" fill="none" xmlns="http://www.w3.org/2000/svg">
<g clip-path="url(#clip0_1352_37260)">
<path d="M7.23684 37.9986C5.24145 37.9986 3.53738 37.2834 2.12681 35.8554C0.709666 34.4339 0 32.7167 0 30.706C0 28.6952 0.709666 26.9692 2.12681 25.5455C3.53738 24.1175 5.24145 23.4023 7.23684 23.4023C8.88396 23.4023 10.3537 23.9078 11.6525 24.9165C11.7861 25.018 11.865 25.1527 11.8847 25.3226C11.9044 25.4926 11.865 25.6404 11.7642 25.7685C11.6635 25.9031 11.5299 25.9826 11.3612 26.0024C11.1926 26.0289 11.0458 25.9892 10.9188 25.881C9.83675 25.0489 8.61017 24.6318 7.23903 24.6318C5.57876 24.6318 4.16162 25.2233 2.98541 26.4086C1.80921 27.5938 1.2222 29.0263 1.2222 30.706C1.2222 32.3857 1.80921 33.8071 2.98541 34.9924C4.16162 36.1776 5.57876 36.7692 7.23903 36.7692C8.79854 36.7692 10.1522 36.2438 11.3021 35.1954C11.4226 35.0806 11.5671 35.0255 11.7358 35.0321C11.9044 35.0387 12.0446 35.1071 12.1585 35.2351C12.2724 35.3565 12.3272 35.5022 12.3206 35.6722C12.314 35.8421 12.2461 35.9834 12.1191 36.0982C10.7414 37.3651 9.11614 37.9986 7.24122 37.9986H7.23684Z" fill="#414141"/>
<path d="M23.7935 23.4531C24.9566 23.4531 25.951 23.835 26.7767 24.6009C27.5959 25.3668 28.0055 26.2894 28.0055 27.3731C28.0055 28.3355 27.6704 29.1808 26.998 29.9114C26.3387 30.6354 25.5086 31.0768 24.5076 31.2313L27.3813 37.1334C27.4558 37.2834 27.4645 37.4357 27.4119 37.5902C27.3572 37.747 27.2564 37.8617 27.1097 37.9346C27.0286 37.9743 26.941 37.9964 26.8468 37.9964C26.5971 37.9964 26.4197 37.8838 26.3124 37.6609L23.1978 31.2931H19.8312V37.2967C19.8312 37.46 19.7699 37.6013 19.6494 37.7227C19.5355 37.8375 19.3932 37.8948 19.2267 37.8948C19.0602 37.8948 18.9244 37.8375 18.804 37.7227C18.6901 37.6013 18.6331 37.4578 18.6331 37.2967V24.0513C18.6331 23.8813 18.6901 23.7401 18.804 23.6253C18.9244 23.5105 19.0668 23.4531 19.2267 23.4531H23.7935ZM26.8184 27.3731C26.8184 26.6205 26.5227 25.9826 25.9313 25.4528C25.3399 24.9187 24.628 24.6494 23.7935 24.6494H19.8312V30.0836H23.8636C24.6828 30.0703 25.3793 29.7988 25.951 29.2713C26.5292 28.7438 26.8184 28.1103 26.8184 27.3709V27.3731Z" fill="#414141"/>
<path d="M35.1482 37.9978C34.9795 37.9978 34.8393 37.936 34.7254 37.8146C34.605 37.6998 34.5436 37.5563 34.5436 37.3886V24.0218C34.5436 23.8518 34.605 23.7106 34.7254 23.5958C34.8459 23.4678 34.9883 23.406 35.1482 23.4126L43.1516 23.4325C43.3203 23.4325 43.4605 23.4943 43.5744 23.6157C43.6948 23.737 43.7562 23.8805 43.7562 24.0416C43.7562 24.2028 43.6948 24.3573 43.5744 24.4787C43.4605 24.5934 43.3181 24.6508 43.1516 24.6508L35.7527 24.631V30.096H41.2855C41.4541 30.096 41.5943 30.1578 41.7082 30.2792C41.8287 30.394 41.89 30.5374 41.89 30.7052C41.89 30.8729 41.8287 31.0164 41.7082 31.1312C41.5943 31.2526 41.4519 31.3144 41.2855 31.3144H35.7527V36.7794H43.1516C43.3203 36.7794 43.4605 36.8412 43.5744 36.9626C43.6948 37.0774 43.7562 37.2208 43.7562 37.3886C43.7562 37.5563 43.6948 37.6998 43.5744 37.8146C43.4605 37.936 43.3181 37.9978 43.1516 37.9978H35.1482Z" fill="#414141"/>
<path d="M50.6272 37.9995C50.4585 37.9995 50.3184 37.9421 50.2045 37.8273C50.084 37.7059 50.0227 37.5603 50.0227 37.3903V24.0323C50.0227 23.8624 50.084 23.7167 50.2045 23.5953C50.3184 23.4739 50.4607 23.4121 50.6272 23.4121H53.9828C55.9716 23.4121 57.6713 24.1228 59.0841 25.5443C60.4946 26.9657 61.1999 28.6785 61.1999 30.6826C61.1999 32.6868 60.4946 34.3996 59.0841 35.8232C57.6735 37.2446 55.9738 37.9554 53.9828 37.9554L50.636 37.9951H50.625L50.6272 37.9995ZM51.2317 36.7701L53.974 36.7304C55.6343 36.7304 57.0514 36.141 58.2276 34.9624C59.4038 33.7771 59.9908 32.3513 59.9908 30.687C59.9908 29.0228 59.4038 27.597 58.2276 26.4117C57.0514 25.2331 55.6365 24.6437 53.985 24.6437H51.2339V36.7723L51.2317 36.7701Z" fill="#414141"/>
<path d="M80.569 37.5142C80.1046 37.8232 79.5767 37.9688 79.0554 37.9688C78.1464 37.9688 77.2572 37.5208 76.7293 36.7019L73.8687 32.2919C75.6736 31.1309 78.015 30.5416 80.5164 32.3052C80.5164 32.3118 80.523 32.3118 80.523 32.3118L81.3772 33.6339C82.2183 34.9295 81.8569 36.6644 80.5711 37.512L80.569 37.5142Z" fill="url(#paint0_linear_1352_37260)"/>
<path d="M80.5142 32.3076C78.0128 30.544 75.6736 31.1311 73.8665 32.2943C72.7692 32.9918 71.8164 33.9166 71.0016 34.9275C70.5482 35.4881 70.1671 36.0995 69.775 36.7021C68.9339 37.9977 67.2123 38.3619 65.9266 37.5143C64.6409 36.6668 64.2795 34.9319 65.1206 33.6363L70.9206 24.6927C71.4353 23.9003 72.3092 23.4258 73.2467 23.4258C74.1841 23.4258 75.0603 23.9025 75.5728 24.6927L80.512 32.3076H80.5142Z" fill="url(#paint1_linear_1352_37260)"/>
<path d="M86.2769 37.9978C86.1083 37.9978 85.9681 37.936 85.8542 37.8146C85.7338 37.6998 85.6724 37.5563 85.6724 37.3886V24.0505C85.6724 23.8805 85.7294 23.7393 85.8433 23.6245C85.9637 23.5031 86.1083 23.4413 86.2769 23.4413L90.9226 23.4214C92.112 23.4214 93.1173 23.7966 93.9365 24.5493C94.7557 25.3086 95.1653 26.2312 95.1653 27.3215C95.1653 27.9992 94.9966 28.6326 94.6615 29.2219C94.3395 29.798 93.8927 30.2682 93.321 30.6346C93.9716 30.9745 94.4863 31.4402 94.863 32.0361C95.2463 32.6453 95.4369 33.3119 95.4369 34.0381C95.4369 35.1284 95.0207 36.0599 94.1862 36.8324C93.3605 37.6115 92.3573 38 91.1833 38H86.2748L86.2769 37.9978ZM86.8837 30.1357L90.9248 30.1247C91.7637 30.1247 92.48 29.851 93.0713 29.3014C93.6627 28.7518 93.9584 28.0919 93.9584 27.3215C93.9584 26.5512 93.6671 25.9332 93.0823 25.4123C92.4975 24.898 91.779 24.6398 90.9248 24.6398L86.8837 24.6597V30.1335V30.1357ZM86.8837 36.7794H91.1877C92.0266 36.7794 92.7472 36.5123 93.3451 35.976C93.9365 35.4418 94.2322 34.7951 94.2322 34.0358C94.2322 33.2766 93.9409 32.6409 93.3561 32.1266C92.7713 31.6057 92.055 31.3453 91.2096 31.3453H86.8859V36.7794H86.8837ZM102.884 23.4634C103.046 23.4634 103.186 23.5252 103.307 23.6466C103.421 23.7613 103.478 23.9048 103.478 24.0725V36.7882H110.02C110.189 36.7882 110.329 36.8456 110.443 36.9604C110.563 37.0818 110.625 37.2253 110.625 37.3864C110.625 37.5475 110.563 37.702 110.443 37.8234C110.329 37.9382 110.187 37.9956 110.02 37.9956H102.884C102.715 37.9956 102.571 37.9382 102.45 37.8234C102.336 37.702 102.279 37.5563 102.279 37.3864V24.0725C102.279 23.9026 102.336 23.7613 102.45 23.6466C102.571 23.5252 102.715 23.4634 102.884 23.4634ZM117.244 37.9978C117.075 37.9978 116.935 37.936 116.821 37.8146C116.701 37.6998 116.639 37.5563 116.639 37.3886V24.0218C116.639 23.8518 116.701 23.7106 116.821 23.5958C116.942 23.4678 117.084 23.406 117.244 23.4126L125.247 23.4325C125.416 23.4325 125.556 23.4943 125.67 23.6157C125.79 23.737 125.852 23.8805 125.852 24.0416C125.852 24.2028 125.79 24.3573 125.67 24.4787C125.556 24.5934 125.414 24.6508 125.247 24.6508L117.848 24.631V30.096H123.381C123.55 30.096 123.69 30.1578 123.804 30.2792C123.924 30.394 123.986 30.5374 123.986 30.7052C123.986 30.8729 123.924 31.0164 123.804 31.1312C123.69 31.2526 123.548 31.3144 123.381 31.3144H117.848V36.7794H125.247C125.416 36.7794 125.556 36.8412 125.67 36.9626C125.79 37.0774 125.852 37.2208 125.852 37.3886C125.852 37.5563 125.79 37.6998 125.67 37.8146C125.556 37.936 125.414 37.9978 125.247 37.9978H117.244Z" fill="#F69220"/>
<path d="M130.156 24.2349H129.711V25.0472H129.291V22.9746H130.3C130.445 22.9768 130.557 22.9945 130.633 23.0276C130.71 23.0607 130.778 23.1092 130.831 23.1733C130.874 23.2262 130.912 23.2836 130.936 23.3476C130.962 23.4116 130.975 23.4845 130.975 23.5661C130.975 23.6655 130.951 23.7604 130.901 23.8575C130.852 23.9524 130.769 24.0208 130.655 24.0583C130.749 24.0959 130.817 24.151 130.857 24.2217C130.896 24.2923 130.916 24.4005 130.916 24.5461V24.6852C130.916 24.7801 130.92 24.8441 130.927 24.8772C130.938 24.9302 130.964 24.9699 131.006 24.9964V25.0494H130.533C130.52 25.003 130.511 24.9655 130.504 24.939C130.493 24.8816 130.487 24.822 130.487 24.7602V24.5682C130.482 24.4358 130.458 24.3475 130.412 24.3033C130.366 24.2592 130.281 24.2371 130.154 24.2371L130.156 24.2349ZM130.417 23.8575C130.502 23.8178 130.546 23.7405 130.546 23.6235C130.546 23.4977 130.504 23.4138 130.421 23.3697C130.375 23.3454 130.305 23.3322 130.211 23.3322H129.711V23.8884H130.198C130.294 23.8884 130.366 23.8774 130.414 23.8553L130.417 23.8575Z" fill="black"/>
<path d="M130.025 25.9818C128.934 25.9818 128.049 25.0879 128.049 23.9909C128.049 22.8939 128.936 22 130.025 22C131.113 22 132 22.8939 132 23.9909C132 25.0879 131.113 25.9818 130.025 25.9818ZM130.025 22.2185C129.056 22.2185 128.268 23.0131 128.268 23.9887C128.268 24.9643 129.056 25.7589 130.025 25.7589C130.993 25.7589 131.781 24.9643 131.781 23.9887C131.781 23.0131 130.993 22.2185 130.025 22.2185Z" fill="#231F20"/>
</g>
<defs>
<linearGradient id="paint0_linear_1352_37260" x1="81.64" y1="39.6816" x2="77.3096" y2="32.5553" gradientUnits="userSpaceOnUse">
<stop stop-color="#F59120"/>
<stop offset="0.49" stop-color="#F7961F"/>
<stop offset="1" stop-color="#414141"/>
</linearGradient>
<linearGradient id="paint1_linear_1352_37260" x1="64.6672" y1="30.6985" x2="80.5142" y2="30.6985" gradientUnits="userSpaceOnUse">
<stop stop-color="#FBED1F"/>
<stop offset="0.49" stop-color="#F7961F"/>
<stop offset="1" stop-color="#F59120"/>
</linearGradient>
<clipPath id="clip0_1352_37260">
<rect width="132" height="60" fill="white"/>
</clipPath>
</defs>
</svg>
