<svg width="132" height="60" viewBox="0 0 132 60" fill="none" xmlns="http://www.w3.org/2000/svg">
<path d="M12.0671 37.6715C12.1237 37.8149 3.98642 26.5172 16.3925 17.332V17.5246C16.3925 17.5246 4.8077 25.0256 12.3087 37.6715H12.069H12.0671Z" fill="url(#paint0_linear_1352_37657)"/>
<path d="M12.6335 23.5922C12.9884 21.3738 14.7971 17.3901 18.9318 15.9476C23.9992 14.1805 31.9024 17.5808 30.9999 17.9187C30.0994 18.2567 24.9168 17.6752 22.2 21.7174C20.2478 24.6211 22.0282 28.6142 23.6688 30.5645C25.8532 33.1605 30.7583 35.3733 33.6431 35.0844C36.528 34.7955 30.2617 37.1367 26.6707 37.2009C19.0187 37.3368 15.3144 31.6652 14.4101 30.5173C13.2735 29.0749 12.2464 25.9975 12.6316 23.594L12.6335 23.5922Z" fill="url(#paint1_radial_1352_37657)"/>
<path d="M12.1049 37.7294H12.8733C12.8733 37.7294 11.3516 35.1976 12.8733 33.1623C14.6707 30.757 17.952 31.8011 17.4404 29.3637C17.008 27.2963 12.8223 28.9653 11.7028 31.5349C10.0602 35.3014 12.103 37.7313 12.103 37.7313L12.1049 37.7294Z" fill="url(#paint2_radial_1352_37657)"/>
<path style="mix-blend-mode:multiply" opacity="0.1" d="M12.1049 37.7294H12.8733C12.8733 37.7294 11.3516 35.1976 12.8733 33.1623C14.6707 30.757 17.952 31.8011 17.4404 29.3637C17.008 27.2963 12.8223 28.9653 11.7028 31.5349C10.0602 35.3033 12.103 37.7313 12.103 37.7313L12.1049 37.7294Z" fill="url(#paint3_radial_1352_37657)"/>
<path d="M18.9338 15.9472C20.9313 15.0579 32.5822 12.4298 37.9082 23.1499C43.0228 33.447 34.8987 41.5919 30.258 43.2816C24.3373 45.4377 17.8765 44.6032 13.4039 39.4622C13.3113 39.3565 14.2214 39.2187 14.2214 39.2187C14.2214 39.2187 20.2667 43.4025 27.8301 38.8335C32.7049 35.8901 37.3569 26.7258 31.1964 19.3588C27.0107 14.3594 18.9338 15.9472 18.9338 15.9472Z" fill="url(#paint4_radial_1352_37657)"/>
<path opacity="0.02" d="M21.1219 17.3108L21.7619 18.7702C21.7619 18.7702 24.9545 18.1623 27.407 18.1623C27.407 18.1623 26.7179 16.6254 26.5952 16.6217C23.412 16.5008 21.12 17.3108 21.12 17.3108H21.1219Z" fill="#FCFCFC"/>
<path opacity="0.03" d="M27.56 16.7517C28.0566 17.2482 28.1793 17.9373 28.1793 18.1205C28.1793 18.2488 29.2385 17.943 31.6457 18.819C31.6457 18.819 31.4323 17.6919 31.3417 17.6541C28.9288 16.6403 27.56 16.7517 27.56 16.7517Z" fill="#FCFCFC"/>
<path opacity="0.1" d="M32.0704 18.121L32.3347 19.3369C32.3347 19.3369 33.6676 19.807 35.0515 21.0191C35.0515 21.0191 35.0723 20.1884 35.0119 20.1261C34.3228 19.437 32.0723 18.1191 32.0723 18.1191L32.0704 18.121Z" fill="#FCFCFC"/>
<path style="mix-blend-mode:screen" opacity="0.44" d="M38.2706 23.934C38.1573 23.6735 38.0384 23.4129 37.9062 23.1505C33.3316 13.9408 24.3692 14.6243 20.6291 15.4399C20.3534 16.3518 20.2232 17.2562 20.2232 18.2568C20.2232 20.0523 20.7008 21.7364 21.5353 23.1883C21.6732 22.6785 21.8884 22.182 22.2037 21.7137C24.3277 18.5551 27.9564 18.2209 29.8709 18.0642C30.3391 18.4399 30.7847 18.8685 31.1962 19.3594C33.3316 21.912 34.1679 24.6798 34.1453 27.3305C35.8124 26.5942 37.2378 25.4104 38.2725 23.9321L38.2706 23.934Z" fill="url(#paint5_radial_1352_37657)"/>
<path d="M38.4537 40.6121L36.8678 43.4007C36.8678 43.4007 40.0132 45.2641 44.4651 43.7367C49.5137 42.0054 50.7635 36.3792 50.7635 36.3792L55.2362 15.6074L50.9561 17.0027L47.0234 35.371C46.3758 38.1124 45.3298 40.5404 43.0945 41.0199C40.3285 41.6146 38.4537 40.6102 38.4537 40.6102V40.6121Z" fill="#095AA6"/>
<path d="M57.3508 28.5907L56.7731 25.9457C56.7731 25.9457 60.7888 23.8103 64.3364 24.0709C70.2364 24.5032 69.5964 29.2232 69.5964 29.2232L67.1571 40.9477C67.1571 40.9477 65.4843 43.0019 59.9921 44.2177C54.5584 45.4204 52.4212 41.6859 52.5119 39.2787C52.7969 31.6021 60.8398 31.5002 60.8398 31.5002L64.0324 31.4756L63.3112 34.504C63.3112 34.504 56.6277 33.4939 56.6277 38.6387C56.6277 40.2737 58.5988 42.4845 61.6762 41.0912C61.9386 40.9723 63.4547 40.2265 63.4547 40.2265L65.6674 29.9369C65.6674 29.9369 66.0526 26.7632 62.3974 27.052C59.3294 27.2937 57.3489 28.5907 57.3489 28.5907H57.3508Z" fill="#095AA6"/>
<path d="M72.8645 27.4561L69.3075 44.0535H71.305L73.5819 43.117L76.7009 28.2358C76.7009 28.2358 79.1968 26.4894 81.1622 27.1747C83.1277 27.8601 82.7538 30.2937 82.7538 30.2937L79.8218 43.9893H83.9093L87.2171 28.4227C87.2171 28.4227 87.2171 24.7336 82.6311 24.1804C77.9281 23.6121 72.8664 27.4561 72.8664 27.4561H72.8645Z" fill="#095AA6"/>
<path d="M87.37 25.2429C87.37 25.2429 88.4008 26.4587 88.4008 27.5821C88.4008 27.5821 91.8332 26.2416 92.9245 28.0503C93.6306 29.2209 93.2983 30.297 93.2983 30.297L90.4588 43.9926H94.4519L97.5728 29.4229C97.5728 29.4229 98.2977 25.9207 94.7634 24.4971C91.6274 23.234 87.37 25.2429 87.37 25.2429Z" fill="#095AA6"/>
<path d="M112.639 42.1512L111.954 39.7799C111.954 39.7799 107.149 42.2438 104.902 41.1525C102.535 40.0008 101.953 35.6867 103.686 31.9806C106.15 26.7074 109.363 26.7395 111.204 27.3002C113.045 27.861 113.434 28.2518 113.434 28.2518L115.228 25.8333C115.228 25.8333 112.905 23.8055 109.222 24.0661C104.77 24.3814 99.9328 28.5501 98.8812 35.0052C97.5389 43.2406 103.107 45.644 108.365 43.9902C111.495 43.0065 112.639 42.1494 112.639 42.1494V42.1512Z" fill="#095AA6"/>
<path d="M125.679 24.1678C120.195 23.7883 116.664 27.4567 114.948 30.7626C114.948 30.7626 110.517 40.4952 117.661 43.8974C120.282 45.1454 127.601 44.7243 130.732 37.0345C133.601 29.9847 131.468 24.568 125.677 24.1678H125.679ZM126.616 37.1591C125.119 41.2145 122.092 41.5261 121.218 41.5261C121.218 41.5261 116.475 41.9622 118.192 33.7588C118.482 32.3674 120.344 26.5221 124.681 27.1754C129.017 27.8305 128.113 33.1037 126.614 37.1591H126.616Z" fill="#095AA6"/>
<path d="M8.30619 28.5443C8.30619 28.5443 -0.973338 33.7853 0.0839422 37.6803C0.905222 40.7068 9.06327 40.6218 19.1244 38.1126C34.3663 34.314 44.5615 27.0527 44.5615 27.0527C44.5615 27.0527 28.5493 36.6853 12.9223 37.6312C1.42253 38.3279 3.23313 34.146 4.12238 32.5336C4.97764 30.9854 8.30619 28.5424 8.30619 28.5424V28.5443Z" fill="url(#paint6_radial_1352_37657)"/>
<path d="M19.1245 38.1127C9.4674 40.5199 1.568 40.6955 0.219971 38.0315C0.219971 38.0315 1.03936 41.4148 12.1446 39.693C31.7137 36.6589 44.5616 27.0547 44.5616 27.0547C44.5616 27.0547 34.3682 34.3159 19.1245 38.1146V38.1127Z" fill="url(#paint7_radial_1352_37657)"/>
<defs>
<linearGradient id="paint0_linear_1352_37657" x1="14.0079" y1="16.8657" x2="10.4604" y2="36.9276" gradientUnits="userSpaceOnUse">
<stop stop-color="#859BC2"/>
<stop offset="0.14" stop-color="#7E96BF"/>
<stop offset="0.35" stop-color="#6A8AB9"/>
<stop offset="0.59" stop-color="#4B76AF"/>
<stop offset="0.87" stop-color="#1F5AA0"/>
<stop offset="1" stop-color="#084B99"/>
</linearGradient>
<radialGradient id="paint1_radial_1352_37657" cx="0" cy="0" r="1" gradientUnits="userSpaceOnUse" gradientTransform="translate(17.2458 35.6036) scale(12.8365)">
<stop stop-color="#859BC2"/>
<stop offset="0.16" stop-color="#7892BD"/>
<stop offset="0.46" stop-color="#557CB2"/>
<stop offset="0.85" stop-color="#1F59A0"/>
<stop offset="1" stop-color="#084B99"/>
</radialGradient>
<radialGradient id="paint2_radial_1352_37657" cx="0" cy="0" r="1" gradientUnits="userSpaceOnUse" gradientTransform="translate(16.132 29.628) scale(4.67091 4.67091)">
<stop stop-color="#FBFCFD"/>
<stop offset="0.04" stop-color="#CDDBEA"/>
<stop offset="0.09" stop-color="#A4BDD9"/>
<stop offset="0.14" stop-color="#7FA1CA"/>
<stop offset="0.19" stop-color="#5E8ABC"/>
<stop offset="0.25" stop-color="#4376B1"/>
<stop offset="0.32" stop-color="#2D66A8"/>
<stop offset="0.39" stop-color="#1C59A1"/>
<stop offset="0.49" stop-color="#10519C"/>
<stop offset="0.62" stop-color="#094C99"/>
<stop offset="1" stop-color="#084B99"/>
</radialGradient>
<radialGradient id="paint3_radial_1352_37657" cx="0" cy="0" r="1" gradientUnits="userSpaceOnUse" gradientTransform="translate(16.3567 26.4958) scale(5.89811 5.89812)">
<stop stop-color="white"/>
<stop offset="1"/>
</radialGradient>
<radialGradient id="paint4_radial_1352_37657" cx="0" cy="0" r="1" gradientUnits="userSpaceOnUse" gradientTransform="translate(32.0044 21.8925) scale(13.6521)">
<stop stop-color="white"/>
<stop offset="0.05" stop-color="#E2E7F0"/>
<stop offset="0.13" stop-color="#BAC6DC"/>
<stop offset="0.2" stop-color="#9DAECE"/>
<stop offset="0.27" stop-color="#8BA0C5"/>
<stop offset="0.31" stop-color="#859BC2"/>
<stop offset="0.4" stop-color="#6687B7"/>
<stop offset="0.51" stop-color="#4471AC"/>
<stop offset="0.63" stop-color="#2960A4"/>
<stop offset="0.75" stop-color="#16549D"/>
<stop offset="0.87" stop-color="#0B4D9A"/>
<stop offset="1" stop-color="#084B99"/>
</radialGradient>
<radialGradient id="paint5_radial_1352_37657" cx="0" cy="0" r="1" gradientUnits="userSpaceOnUse" gradientTransform="translate(29.8142 17.6262) scale(8.60173)">
<stop stop-color="#FCFCFC"/>
<stop offset="1"/>
</radialGradient>
<radialGradient id="paint6_radial_1352_37657" cx="0" cy="0" r="1" gradientUnits="userSpaceOnUse" gradientTransform="translate(23.9558 25.0345) scale(33.4856)">
<stop stop-color="#FBFCFD"/>
<stop offset="0.04" stop-color="#CDDBEA"/>
<stop offset="0.09" stop-color="#A4BDD9"/>
<stop offset="0.14" stop-color="#7FA1CA"/>
<stop offset="0.19" stop-color="#5E8ABC"/>
<stop offset="0.25" stop-color="#4376B1"/>
<stop offset="0.32" stop-color="#2D66A8"/>
<stop offset="0.39" stop-color="#1C59A1"/>
<stop offset="0.49" stop-color="#10519C"/>
<stop offset="0.62" stop-color="#094C99"/>
<stop offset="1" stop-color="#084B99"/>
</radialGradient>
<radialGradient id="paint7_radial_1352_37657" cx="0" cy="0" r="1" gradientUnits="userSpaceOnUse" gradientTransform="translate(41.9278 24.4285) scale(37.4202 37.4202)">
<stop stop-color="white"/>
<stop offset="0.41" stop-color="#F4F4F4"/>
<stop offset="0.99" stop-color="#DEDEDE"/>
</radialGradient>
</defs>
</svg>
