<svg width="132" height="60" viewBox="0 0 132 60" fill="none" xmlns="http://www.w3.org/2000/svg">
<path d="M84.9958 40.8158L84.8118 40.2461C84.8118 40.2461 84.7999 40.2344 84.794 40.2344H83.4291C83.4291 40.2344 83.4113 40.2344 83.4113 40.2461L83.2274 40.8158C83.2274 40.8158 83.1977 40.851 83.174 40.851H82.9307C82.8951 40.851 82.8832 40.8334 82.8951 40.7981L83.9039 37.7208C83.9039 37.7208 83.9336 37.6855 83.9573 37.6855H84.2659C84.2659 37.6855 84.3133 37.6973 84.3193 37.7208L85.334 40.7981V40.8158C85.334 40.8158 85.3281 40.8451 85.2984 40.8451H85.0492C85.0492 40.8451 85.0017 40.8334 84.9958 40.8099M83.5063 39.9642C83.5063 39.9642 83.5182 39.9701 83.5241 39.9701H84.705C84.705 39.9701 84.7169 39.9701 84.7228 39.9642C84.7228 39.9642 84.7228 39.9525 84.7228 39.9466L84.1294 38.1025C84.1294 38.1025 84.1235 38.0908 84.1175 38.0908C84.1116 38.0908 84.1056 38.0908 84.1056 38.1025L83.5122 39.9466C83.5122 39.9466 83.5122 39.9583 83.5122 39.9642" fill="#1D1D1B"/>
<path d="M87.043 40.6573C86.8413 40.5046 86.7463 40.299 86.7463 40.0406V39.8997C86.7463 39.8703 86.7641 39.8527 86.7938 39.8527H87.0193C87.049 39.8527 87.0668 39.8703 87.0668 39.8997V40.023C87.0668 40.1992 87.138 40.3402 87.2864 40.4459C87.4347 40.5516 87.6365 40.6044 87.8916 40.6044C88.129 40.6044 88.307 40.5574 88.4257 40.4576C88.5503 40.3578 88.6097 40.2286 88.6097 40.0641C88.6097 39.9584 88.58 39.8703 88.5266 39.794C88.4673 39.7176 88.3842 39.6472 88.2655 39.5826C88.1468 39.518 87.9806 39.4416 87.767 39.3535C87.5356 39.2654 87.3635 39.1832 87.2329 39.1186C87.1083 39.0481 87.0074 38.9659 86.9244 38.8543C86.8472 38.7486 86.8057 38.6135 86.8057 38.4491C86.8057 38.1966 86.8947 38.0028 87.0727 37.856C87.2507 37.715 87.4941 37.6445 87.8086 37.6445C88.1468 37.6445 88.4139 37.7209 88.6097 37.8794C88.8055 38.038 88.9004 38.2436 88.9004 38.502V38.6018C88.9004 38.6312 88.8826 38.6488 88.853 38.6488H88.6215C88.5919 38.6488 88.5741 38.6312 88.5741 38.6018V38.5196C88.5741 38.3434 88.5029 38.2024 88.3664 38.0909C88.2299 37.9793 88.0341 37.9206 87.7908 37.9206C87.5771 37.9206 87.411 37.9675 87.2923 38.0498C87.1795 38.1378 87.1202 38.2612 87.1202 38.4315C87.1202 38.5372 87.1499 38.6312 87.2033 38.7016C87.2626 38.7721 87.3398 38.8308 87.4466 38.8837C87.5534 38.9366 87.7136 39.007 87.9332 39.0892C88.1587 39.1773 88.3367 39.2654 88.4732 39.3418C88.6097 39.4181 88.7165 39.518 88.7996 39.6295C88.8826 39.7411 88.9242 39.8821 88.9242 40.0406C88.9242 40.2932 88.8292 40.4987 88.6393 40.6455C88.4495 40.7982 88.1884 40.8687 87.856 40.8687C87.5237 40.8687 87.2389 40.7924 87.0371 40.6397" fill="#1D1D1B"/>
<path d="M91.7963 37.7325V37.9263C91.7963 37.9557 91.7785 37.9733 91.7489 37.9733H90.8528C90.8528 37.9733 90.835 37.9792 90.835 37.9909V40.8099C90.835 40.8393 90.8172 40.8569 90.7875 40.8569H90.5561C90.5264 40.8569 90.5086 40.8393 90.5086 40.8099V37.9909C90.5086 37.9909 90.5027 37.9733 90.4908 37.9733H89.6304C89.6007 37.9733 89.5829 37.9616 89.5829 37.9263V37.7325C89.5829 37.7032 89.6007 37.6855 89.6304 37.6855H91.7429C91.7726 37.6855 91.7904 37.7032 91.7904 37.7325" fill="#1D1D1B"/>
<path d="M94.2769 40.8158L94.0929 40.2461C94.0929 40.2461 94.081 40.2344 94.0751 40.2344H92.7102C92.7102 40.2344 92.6924 40.2344 92.6924 40.2461L92.5085 40.8158C92.5085 40.8158 92.4788 40.851 92.4551 40.851H92.2058C92.1702 40.851 92.1584 40.8334 92.1702 40.7981L93.179 37.7208C93.179 37.7208 93.2087 37.6855 93.2324 37.6855H93.541C93.541 37.6855 93.5885 37.6973 93.5944 37.7208L94.6092 40.7981V40.8158C94.6092 40.8158 94.6032 40.8451 94.5736 40.8451H94.3243C94.3243 40.8451 94.2769 40.8334 94.2709 40.8099M92.7814 39.9642C92.7814 39.9642 92.7933 39.9701 92.7992 39.9701H93.9801C93.9801 39.9701 93.992 39.9701 93.9979 39.9642C93.9979 39.9642 93.9979 39.9525 93.9979 39.9466L93.4045 38.1025C93.4045 38.1025 93.3986 38.0908 93.3927 38.0908C93.3867 38.0908 93.3808 38.0908 93.3808 38.1025L92.7874 39.9466C92.7874 39.9466 92.7874 39.9583 92.7874 39.9642" fill="#1D1D1B"/>
<path d="M97.0422 39.2301C97.2083 39.2947 97.3329 39.3945 97.416 39.5237C97.4991 39.6529 97.5466 39.8115 97.5466 39.9936C97.5466 40.2637 97.4576 40.4751 97.2855 40.6278C97.1074 40.7805 96.876 40.8569 96.5912 40.8569H95.4874C95.4577 40.8569 95.4399 40.8393 95.4399 40.8099V37.7325C95.4399 37.7032 95.4577 37.6855 95.4874 37.6855H96.5615C96.8582 37.6855 97.0896 37.756 97.2558 37.9028C97.422 38.0497 97.511 38.2493 97.511 38.5136C97.511 38.6781 97.4694 38.819 97.3923 38.9365C97.3092 39.0539 97.1965 39.142 97.0481 39.2007C97.0362 39.2125 97.0362 39.2184 97.0481 39.2301M95.7604 37.9851V39.0715C95.7604 39.0715 95.7663 39.0892 95.7782 39.0892H96.5556C96.7455 39.0892 96.8997 39.0363 97.0125 38.9423C97.1252 38.8425 97.1846 38.7074 97.1846 38.543C97.1846 38.3668 97.1252 38.2317 97.0125 38.126C96.8997 38.0203 96.7455 37.9674 96.5556 37.9674H95.7782C95.7782 37.9674 95.7604 37.9733 95.7604 37.9851ZM97.0481 40.4047C97.1608 40.2931 97.2202 40.1521 97.2202 39.9642C97.2202 39.7763 97.1609 39.6353 97.0422 39.5237C96.9235 39.4122 96.7692 39.3593 96.5674 39.3593H95.7782C95.7782 39.3593 95.7604 39.3593 95.7604 39.3769V40.5456C95.7604 40.5456 95.7663 40.5632 95.7782 40.5632H96.5852C96.7751 40.5632 96.9294 40.5104 97.0422 40.3988" fill="#1D1D1B"/>
<path d="M98.7156 40.804V37.7267C98.7156 37.6973 98.7334 37.6797 98.7631 37.6797H98.9945C99.0242 37.6797 99.042 37.6914 99.042 37.7267V40.804C99.042 40.8334 99.0242 40.851 98.9945 40.851H98.7631C98.7334 40.851 98.7156 40.8393 98.7156 40.804Z" fill="#1D1D1B"/>
<path d="M100.353 40.804V37.7267C100.353 37.6973 100.371 37.6797 100.401 37.6797H100.632C100.662 37.6797 100.68 37.6914 100.68 37.7267V40.5456C100.68 40.5456 100.686 40.5632 100.698 40.5632H102.312C102.341 40.5632 102.359 40.5809 102.359 40.6102V40.7982C102.359 40.8275 102.341 40.8451 102.312 40.8451H100.401C100.371 40.8451 100.353 40.8334 100.353 40.7982" fill="#1D1D1B"/>
<path d="M103.516 40.7629C103.35 40.6807 103.226 40.5632 103.131 40.4105C103.042 40.2578 102.994 40.0816 102.994 39.882V37.7384C102.994 37.709 103.012 37.6914 103.042 37.6914H103.273C103.303 37.6914 103.321 37.709 103.321 37.7384V39.8937C103.321 40.1051 103.392 40.2813 103.528 40.4164C103.671 40.5515 103.855 40.6161 104.08 40.6161C104.306 40.6161 104.49 40.5515 104.632 40.4164C104.774 40.2813 104.84 40.111 104.84 39.8937V37.7384C104.84 37.709 104.857 37.6914 104.887 37.6914H105.119C105.148 37.6914 105.166 37.709 105.166 37.7384V39.882C105.166 40.0816 105.119 40.2637 105.03 40.4105C104.941 40.5632 104.81 40.6807 104.65 40.7629C104.484 40.8451 104.294 40.8921 104.08 40.8921C103.866 40.8921 103.677 40.851 103.516 40.7629Z" fill="#1D1D1B"/>
<path d="M106.418 40.6573C106.216 40.5046 106.121 40.299 106.121 40.0406V39.8997C106.121 39.8703 106.139 39.8527 106.169 39.8527H106.394C106.424 39.8527 106.442 39.8703 106.442 39.8997V40.023C106.442 40.1992 106.513 40.3402 106.661 40.4459C106.81 40.5516 107.012 40.6044 107.267 40.6044C107.504 40.6044 107.682 40.5574 107.801 40.4576C107.925 40.3578 107.985 40.2286 107.985 40.0641C107.985 39.9584 107.955 39.8703 107.902 39.794C107.842 39.7176 107.759 39.6472 107.641 39.5826C107.522 39.518 107.356 39.4416 107.148 39.3535C106.923 39.2654 106.745 39.1832 106.614 39.1186C106.489 39.0481 106.388 38.9659 106.311 38.8543C106.234 38.7486 106.193 38.6135 106.193 38.4491C106.193 38.1966 106.282 38.0028 106.46 37.856C106.638 37.715 106.881 37.6445 107.196 37.6445C107.534 37.6445 107.801 37.7209 107.997 37.8794C108.192 38.038 108.287 38.2436 108.287 38.502V38.6018C108.287 38.6312 108.27 38.6488 108.24 38.6488H108.014C107.985 38.6488 107.967 38.6312 107.967 38.6018V38.5196C107.967 38.3434 107.896 38.2024 107.759 38.0909C107.623 37.9793 107.427 37.9206 107.184 37.9206C106.964 37.9206 106.804 37.9675 106.685 38.0498C106.572 38.1378 106.513 38.2612 106.513 38.4315C106.513 38.5372 106.543 38.6312 106.596 38.7016C106.656 38.7721 106.733 38.8308 106.839 38.8837C106.946 38.9366 107.107 39.007 107.326 39.0892C107.552 39.1773 107.73 39.2654 107.866 39.3418C108.003 39.4181 108.109 39.518 108.192 39.6295C108.276 39.7411 108.317 39.8821 108.317 40.0406C108.317 40.2932 108.222 40.4987 108.032 40.6455C107.842 40.7982 107.581 40.8687 107.249 40.8687C106.917 40.8687 106.632 40.7924 106.43 40.6397" fill="#1D1D1B"/>
<path d="M110.715 40.7689C110.554 40.6867 110.43 40.5692 110.335 40.4165C110.246 40.2638 110.198 40.0876 110.198 39.8879V38.6429C110.198 38.4491 110.246 38.2729 110.335 38.1202C110.424 37.9675 110.548 37.856 110.715 37.7679C110.875 37.6856 111.065 37.6445 111.278 37.6445C111.492 37.6445 111.682 37.6856 111.842 37.7679C112.002 37.8501 112.127 37.9617 112.222 38.1144C112.311 38.2612 112.358 38.4315 112.358 38.6253C112.358 38.6429 112.358 38.6547 112.346 38.6605C112.34 38.6723 112.329 38.6723 112.317 38.6723L112.085 38.684C112.056 38.684 112.038 38.6723 112.038 38.6429V38.6312C112.038 38.4197 111.967 38.2494 111.83 38.1202C111.694 37.991 111.51 37.9264 111.284 37.9264C111.059 37.9264 110.881 37.991 110.738 38.1202C110.602 38.2494 110.531 38.4197 110.531 38.6312V39.8997C110.531 40.1111 110.602 40.2814 110.738 40.4106C110.875 40.5398 111.059 40.6044 111.284 40.6044C111.51 40.6044 111.694 40.5398 111.83 40.4106C111.967 40.2814 112.038 40.1111 112.038 39.8997C112.038 39.8645 112.056 39.8527 112.085 39.8527L112.317 39.8645C112.346 39.8645 112.364 39.8762 112.364 39.9056C112.364 40.0994 112.323 40.2756 112.228 40.4224C112.139 40.5692 112.014 40.6867 111.848 40.7689C111.682 40.8511 111.498 40.8922 111.284 40.8922C111.071 40.8922 110.887 40.8511 110.72 40.7689" fill="#1D1D1B"/>
<path d="M113.86 40.7571C113.693 40.669 113.569 40.5457 113.48 40.3871C113.391 40.2286 113.343 40.0465 113.343 39.8351V38.6958C113.343 38.4843 113.391 38.3023 113.48 38.1437C113.569 37.9852 113.699 37.8618 113.86 37.7737C114.026 37.6856 114.216 37.6445 114.429 37.6445C114.643 37.6445 114.839 37.6856 115.005 37.7737C115.171 37.8618 115.302 37.9852 115.391 38.1437C115.48 38.3023 115.527 38.4843 115.527 38.6958V39.8351C115.527 40.0465 115.48 40.2286 115.391 40.3871C115.302 40.5457 115.171 40.669 115.005 40.7571C114.839 40.8452 114.649 40.8863 114.429 40.8863C114.21 40.8863 114.02 40.8452 113.86 40.7571ZM114.987 40.4048C115.13 40.2697 115.195 40.0818 115.195 39.8527V38.6958C115.195 38.4667 115.124 38.2847 114.987 38.1437C114.845 38.0028 114.661 37.9323 114.429 37.9323C114.198 37.9323 114.014 38.0028 113.877 38.1437C113.735 38.2847 113.67 38.4667 113.67 38.6958V39.8527C113.67 40.0818 113.741 40.2638 113.877 40.4048C114.02 40.5457 114.204 40.6103 114.429 40.6103C114.655 40.6103 114.845 40.5398 114.987 40.4048Z" fill="#1D1D1B"/>
<path d="M118.69 37.6856H118.927C118.957 37.6856 118.975 37.7032 118.975 37.7326V40.8099C118.975 40.8393 118.957 40.8569 118.927 40.8569H118.696C118.666 40.8569 118.649 40.8393 118.649 40.8099V38.2963C118.649 38.2963 118.649 38.2787 118.637 38.2787C118.631 38.2787 118.625 38.2787 118.625 38.2846L117.877 39.4122C117.877 39.4122 117.841 39.4415 117.824 39.4415H117.705C117.705 39.4415 117.663 39.4298 117.652 39.4122L116.904 38.2905C116.904 38.2905 116.898 38.2787 116.892 38.2787C116.886 38.2787 116.88 38.2905 116.88 38.2963V40.7982C116.88 40.8275 116.868 40.8452 116.833 40.8452H116.601C116.572 40.8452 116.554 40.8275 116.554 40.7982V37.7208C116.554 37.6914 116.572 37.6738 116.601 37.6738H116.839C116.839 37.6738 116.88 37.6856 116.892 37.7032L117.752 38.9893C117.752 38.9893 117.758 38.9893 117.764 38.9893H117.776L118.625 37.7032C118.625 37.7032 118.66 37.6738 118.678 37.6738" fill="#1D1D1B"/>
<path d="M122.055 37.9263C122.221 38.0908 122.298 38.3022 122.298 38.5665C122.298 38.8307 122.215 39.0422 122.049 39.2007C121.883 39.3593 121.663 39.4415 121.396 39.4415H120.506C120.506 39.4415 120.488 39.4474 120.488 39.4591V40.8099C120.488 40.8393 120.47 40.8569 120.441 40.8569H120.209C120.18 40.8569 120.162 40.8393 120.162 40.8099V37.7325C120.162 37.7032 120.18 37.6855 120.209 37.6855H121.408C121.675 37.6855 121.895 37.7678 122.055 37.9322M121.811 39.0069C121.924 38.8953 121.978 38.7485 121.978 38.5723C121.978 38.3962 121.918 38.2376 121.811 38.126C121.699 38.0144 121.55 37.9616 121.372 37.9616H120.506C120.506 37.9616 120.488 37.9674 120.488 37.9792V39.1538C120.488 39.1538 120.488 39.1714 120.506 39.1714H121.372C121.55 39.1714 121.699 39.1185 121.811 39.0069Z" fill="#1D1D1B"/>
<path d="M124.998 40.8158L124.814 40.2461C124.814 40.2461 124.802 40.2344 124.796 40.2344H123.431C123.431 40.2344 123.414 40.2344 123.414 40.2461L123.23 40.8158C123.23 40.8158 123.2 40.851 123.176 40.851H122.927C122.891 40.851 122.88 40.8334 122.891 40.7981L123.9 37.7208C123.9 37.7208 123.93 37.6855 123.954 37.6855H124.262C124.262 37.6855 124.31 37.6973 124.316 37.7208L125.33 40.7981V40.8158C125.33 40.8158 125.324 40.8451 125.295 40.8451H125.046C125.046 40.8451 124.998 40.8334 124.992 40.8099M123.509 39.9642C123.509 39.9642 123.521 39.9701 123.526 39.9701H124.707C124.707 39.9701 124.719 39.9701 124.725 39.9642C124.725 39.9642 124.725 39.9525 124.725 39.9466L124.132 38.1025C124.132 38.1025 124.126 38.0908 124.12 38.0908C124.114 38.0908 124.108 38.0908 124.108 38.1025L123.515 39.9466C123.515 39.9466 123.515 39.9583 123.515 39.9642" fill="#1D1D1B"/>
<path d="M128.155 37.6855H128.387C128.387 37.6855 128.434 37.7032 128.434 37.7325V40.8099C128.434 40.8393 128.416 40.8569 128.387 40.8569H128.155C128.155 40.8569 128.114 40.8451 128.102 40.8275L126.541 38.3198C126.541 38.3198 126.535 38.3081 126.529 38.3081C126.523 38.3081 126.517 38.3139 126.517 38.3257V40.8158C126.517 40.8451 126.505 40.8627 126.476 40.8627H126.244C126.215 40.8627 126.197 40.8451 126.197 40.8158V37.7384C126.197 37.709 126.215 37.6914 126.244 37.6914H126.476C126.476 37.6914 126.517 37.7032 126.529 37.7208L128.084 40.2285C128.084 40.2285 128.09 40.2402 128.096 40.2402C128.102 40.2402 128.108 40.2344 128.108 40.2226V37.7325C128.108 37.7032 128.12 37.6855 128.149 37.6855" fill="#1D1D1B"/>
<path d="M130.274 40.804V39.465C130.274 39.465 130.274 39.4474 130.274 39.4415L129.324 37.7384C129.324 37.7384 129.312 37.7149 129.312 37.7091C129.312 37.6914 129.324 37.6797 129.354 37.6797H129.603C129.603 37.6797 129.651 37.6914 129.656 37.7091L130.422 39.0892C130.422 39.0892 130.428 39.0892 130.434 39.0892C130.44 39.0892 130.446 39.0892 130.446 39.0892L131.217 37.7091C131.217 37.7091 131.247 37.6797 131.271 37.6797H131.52C131.52 37.6797 131.549 37.6797 131.555 37.6973C131.561 37.7091 131.555 37.7208 131.555 37.7384L130.606 39.4415C130.606 39.4415 130.606 39.4533 130.606 39.465V40.804C130.606 40.8334 130.588 40.851 130.558 40.851H130.327C130.297 40.851 130.28 40.8393 130.28 40.804" fill="#1D1D1B"/>
<path d="M37.332 24.9375C39.1004 24.9375 40.0261 25.7832 40.0261 27.3277C40.0261 27.5509 40.0142 27.7976 39.9727 28.0442L39.5098 30.9689C39.1775 32.9539 38.1509 34.0756 35.8781 34.0756H25.0245C24.7337 34.0756 24.615 33.9347 24.6565 33.6469L25.9917 25.3721C26.0333 25.0843 26.1876 24.9434 26.4783 24.9434H37.332V24.9375ZM27.6949 26.5936L26.7573 32.4136H35.6407C36.7623 32.4136 37.4507 31.8263 37.6346 30.7281L38.0322 28.2733C38.0559 28.1264 38.0559 27.9972 38.0559 27.8798C38.0559 27.0341 37.5515 26.5878 36.5783 26.5878H27.6949V26.5936Z" fill="#1D1D1B"/>
<path d="M43.0644 34.0698C41.5452 34.0698 40.7263 33.3239 40.7263 32.0084C40.7263 31.8146 40.7382 31.6032 40.7797 31.38L41.3731 27.6214C41.6521 25.9124 42.5362 24.9316 44.5183 24.9316H55.4609C55.7517 24.9316 55.8704 25.0726 55.8288 25.3604L55.6983 26.1708C55.6567 26.4468 55.4846 26.5878 55.1998 26.5878H44.7556C43.913 26.5878 43.367 27.0459 43.2483 27.8798L43.1059 28.6902H53.5382C53.829 28.6902 53.9477 28.8312 53.9061 29.119L53.7756 29.8766C53.7341 30.1643 53.562 30.3053 53.289 30.3053H42.8567L42.7261 31.1157C42.7143 31.2214 42.7024 31.3271 42.7024 31.4152C42.7024 32.0671 43.0881 32.4077 43.824 32.4077H54.2681C54.5589 32.4077 54.6776 32.5487 54.636 32.8247L54.5055 33.6352C54.464 33.9229 54.3097 34.0639 54.0189 34.0639H43.0763L43.0644 34.0698Z" fill="#1D1D1B"/>
<path d="M70.0353 31.7617C69.7682 33.4707 68.8306 34.0697 66.8427 34.0697H55.9475C55.6686 34.0697 55.538 33.9288 55.5796 33.641L55.7101 32.8306C55.7635 32.5545 55.9238 32.4136 56.2145 32.4136H66.8545C67.6438 32.4136 68.071 32.1258 68.1719 31.4504L68.1957 31.2801C68.2075 31.2038 68.2075 31.1216 68.2075 31.0452C68.2075 30.5343 67.8752 30.317 67.175 30.317H58.7366C57.1937 30.317 56.2145 29.8472 56.2145 28.5434C56.2145 28.3848 56.2264 28.2145 56.2679 28.0207L56.3985 27.2514C56.6893 25.5424 57.615 24.9434 59.5911 24.9434H70.3498C70.6405 24.9434 70.7592 25.0843 70.7177 25.3721L70.5871 26.1825C70.5456 26.4585 70.3735 26.5995 70.0827 26.5995H59.5733C58.784 26.5995 58.3449 26.899 58.2381 27.5626L58.2144 27.7212C58.2025 27.7976 58.1906 27.8915 58.1906 27.9679C58.1906 28.4788 58.5348 28.6961 59.235 28.6961H67.6734C69.2282 28.6961 70.1836 29.1659 70.1836 30.4697C70.1836 30.6283 70.1717 30.8103 70.1421 30.9924L70.0234 31.7617H70.0353Z" fill="#1D1D1B"/>
<path d="M78.3431 33.641C78.3016 33.9288 78.1295 34.0697 77.8565 34.0697H76.8121C76.5213 34.0697 76.3908 33.9288 76.4264 33.641L77.5598 26.5936H71.7384C71.4595 26.5936 71.3408 26.4468 71.3823 26.1767L71.5129 25.3662C71.5544 25.0784 71.7087 24.9375 71.9995 24.9375H85.5591C85.8499 24.9375 85.9686 25.0784 85.927 25.3662L85.7965 26.1767C85.7549 26.4527 85.5828 26.5936 85.2921 26.5936H79.4588L78.3372 33.641H78.3431Z" fill="#1D1D1B"/>
<path d="M99.8367 33.641C99.7952 33.9288 99.6409 34.0697 99.3501 34.0697H98.3057C98.0149 34.0697 97.8963 33.9288 97.9378 33.641L98.3235 31.2684H87.7191L87.3334 33.641C87.2919 33.9288 87.1198 34.0697 86.8468 34.0697H85.7905C85.5116 34.0697 85.3811 33.9288 85.4226 33.641L86.3839 27.6273C86.6629 25.9183 87.547 24.9375 89.5291 24.9375H98.5194C100.039 24.9375 100.857 25.6833 100.857 27.0106C100.857 27.1927 100.846 27.4041 100.804 27.6214L99.8427 33.6352L99.8367 33.641ZM89.7605 26.5936C88.9178 26.5936 88.3897 27.0517 88.2532 27.8857L87.9624 29.6064H98.5668L98.8576 27.8857C98.8695 27.7799 98.8813 27.6742 98.8813 27.5861C98.8813 26.946 98.4956 26.5936 97.7479 26.5936H89.7605Z" fill="#1D1D1B"/>
<path d="M102.234 27.6273C102.513 25.9183 103.397 24.9375 105.379 24.9375H116.073C116.352 24.9375 116.482 25.0784 116.441 25.3662L116.298 26.1767C116.257 26.4527 116.085 26.5936 115.812 26.5936H105.617C104.774 26.5936 104.228 27.0517 104.109 27.8857L103.581 31.1216C103.569 31.2273 103.557 31.333 103.557 31.4211C103.557 32.073 103.943 32.4136 104.679 32.4136H114.874C115.153 32.4136 115.283 32.5546 115.242 32.8306L115.111 33.641C115.07 33.9288 114.898 34.0697 114.625 34.0697H103.931C102.412 34.0697 101.593 33.3239 101.593 32.0084C101.593 31.8146 101.605 31.6032 101.647 31.38L102.24 27.6214L102.234 27.6273Z" fill="#1D1D1B"/>
<path d="M117.194 27.6273C117.473 25.9183 118.357 24.9375 120.339 24.9375H129.662C131.181 24.9375 132 25.6833 132 27.0106C132 27.1927 131.988 27.4041 131.947 27.6214L131.353 31.38C131.074 33.089 130.19 34.0697 128.208 34.0697H118.885C117.366 34.0697 116.547 33.3239 116.547 32.0084C116.547 31.8146 116.559 31.6032 116.601 31.38L117.194 27.6214V27.6273ZM120.577 26.5936C119.734 26.5936 119.188 27.0517 119.069 27.8857L118.541 31.1216C118.529 31.2273 118.518 31.333 118.518 31.4211C118.518 32.073 118.903 32.4136 119.639 32.4136H127.959C128.801 32.4136 129.347 31.9555 129.478 31.1216L130.006 27.8857C130.018 27.7917 130.018 27.6919 130.018 27.6096C130.018 26.946 129.632 26.5936 128.896 26.5936H120.577Z" fill="#1D1D1B"/>
<path d="M30.5967 43.5243C30.5017 43.5243 30.4127 43.5243 30.3177 43.5243L30.294 39.0903L37.4091 36.2185L30.0982 38.7556L18.2773 32.871L17.4346 32.454L11.7556 29.6233L18.4375 26.0233L18.5621 25.9587L30.1041 19.7452L35.6941 22.0474L30.3177 19.5045V15.4816C30.4127 15.4816 30.5076 15.4816 30.6026 15.4816C33.7655 15.4816 36.7979 15.7635 39.6225 16.2861C36.0976 15.464 32.187 15 28.0628 15C12.5627 15 0 21.4895 0 29.5C0 37.5105 12.5627 44 28.0568 44C32.1751 44 36.0917 43.5419 39.6166 42.7139C36.7979 43.2365 33.7596 43.5184 30.5967 43.5184V43.5243ZM20.2296 34.9617L29.0953 38.7379H21.1791C20.3424 37.6221 19.654 36.3477 19.1496 34.9617H20.2296ZM19.1437 34.4978H18.9894C18.9894 34.4978 18.9716 34.4449 18.9657 34.4214L19.1437 34.4978ZM20.3127 38.7379H14.9601C13.702 37.6221 12.6695 36.3477 11.9099 34.9617H18.1645C18.6986 36.3477 19.4285 37.6162 20.3127 38.7379ZM17.8085 33.934C17.8678 34.1278 17.9272 34.3157 17.9924 34.5036H11.6666C11.0969 33.3526 10.7171 32.1252 10.5569 30.8507L17.8026 33.9399L17.8085 33.934ZM17.7788 25.0132L10.545 28.3137C10.6815 27.0099 11.0554 25.7531 11.6191 24.5727H17.9212C17.8738 24.7195 17.8263 24.8663 17.7847 25.0132H17.7788ZM18.0815 24.1087H11.8506C12.6992 22.5172 13.9157 21.0784 15.417 19.8392H20.5382C19.5057 21.0784 18.6689 22.5231 18.0815 24.1087ZM19.7668 24.1087H19.0784C19.6303 22.5172 20.4255 21.0784 21.4046 19.8392H29.1309L19.7668 24.1087ZM28.4307 15.5227C28.9173 15.5051 29.4098 15.4933 29.9024 15.4874V19.3987H21.7666C23.5409 17.355 25.8493 15.9573 28.4247 15.5227H28.4307ZM27.1074 15.599C24.7218 16.2157 22.5914 17.5606 20.918 19.4046H15.9748C18.0399 17.8424 20.5798 16.6561 23.4163 15.9866C24.615 15.8163 25.8493 15.6871 27.1074 15.599ZM19.8024 16.6503C17.939 17.3491 16.2478 18.2829 14.7999 19.3987H11.8921C14.1768 18.2535 16.8531 17.3198 19.8024 16.6503ZM11.0495 19.8392H14.2539C12.7763 21.0784 11.5895 22.5231 10.7587 24.1087H5.69682C6.97267 22.5172 8.8004 21.0725 11.0495 19.8392ZM5.34077 24.5727H10.5213C9.89228 25.9058 9.5125 27.3329 9.43535 28.8188L9.38195 28.8422H3.65546C3.78601 27.3447 4.37349 25.9117 5.34077 24.5727ZM3.65546 30.1578H8.94875L9.45909 30.3751C9.58371 31.8198 9.98723 33.2058 10.6281 34.4978H5.38824C4.3913 33.1412 3.78601 31.6788 3.64952 30.1578H3.65546ZM5.75022 34.9617H10.8714C11.6369 36.3477 12.6814 37.6162 13.9453 38.7379H10.3136C8.43248 37.6221 6.88365 36.3477 5.75616 34.9617H5.75022ZM11.0613 39.1667H14.4497C16.2597 40.6407 18.4731 41.8212 20.9536 42.5964C17.1735 41.8447 13.8029 40.6642 11.0613 39.1667ZM23.8495 43.078C20.5976 42.3791 17.7135 41.0049 15.4645 39.1667H20.6628C22.5796 41.3983 25.1491 42.9488 28.0331 43.4597C26.6029 43.3892 25.2025 43.26 23.8495 43.078ZM21.5174 39.1667H29.8727L29.8964 43.4773C26.6089 43.401 23.6418 41.7625 21.5233 39.1667H21.5174Z" fill="#B42222"/>
</svg>
