<svg width="132" height="60" viewBox="0 0 132 60" fill="none" xmlns="http://www.w3.org/2000/svg">
<g clip-path="url(#clip0_1186_8498)">
<path d="M7.23684 37.9976C5.24145 37.9976 3.53738 37.2825 2.12681 35.8544C0.709666 34.433 0 32.7158 0 30.705C0 28.6942 0.709666 26.9682 2.12681 25.5446C3.53738 24.1165 5.24145 23.4014 7.23684 23.4014C8.88396 23.4014 10.3537 23.9068 11.6525 24.9155C11.7861 25.017 11.865 25.1517 11.8847 25.3216C11.9044 25.4916 11.865 25.6395 11.7642 25.7675C11.6635 25.9021 11.5299 25.9816 11.3612 26.0014C11.1926 26.0279 11.0458 25.9882 10.9188 25.8801C9.83675 25.0479 8.61017 24.6308 7.23903 24.6308C5.57876 24.6308 4.16162 25.2223 2.98541 26.4076C1.80921 27.5928 1.2222 29.0253 1.2222 30.705C1.2222 32.3847 1.80921 33.8061 2.98541 34.9914C4.16162 36.1766 5.57876 36.7682 7.23903 36.7682C8.79854 36.7682 10.1522 36.2429 11.3021 35.1944C11.4226 35.0797 11.5671 35.0245 11.7358 35.0311C11.9044 35.0377 12.0446 35.1062 12.1585 35.2342C12.2724 35.3556 12.3272 35.5012 12.3206 35.6712C12.314 35.8412 12.2461 35.9824 12.1191 36.0972C10.7414 37.3641 9.11614 37.9976 7.24122 37.9976H7.23684Z" fill="#414141"/>
<path d="M23.7932 23.4521C24.9563 23.4521 25.9507 23.834 26.7764 24.5999C27.5956 25.3658 28.0052 26.2884 28.0052 27.3721C28.0052 28.3345 27.6701 29.1798 26.9977 29.9104C26.3384 30.6344 25.5082 31.0758 24.5073 31.2303L27.381 37.1324C27.4554 37.2825 27.4642 37.4348 27.4116 37.5893C27.3569 37.746 27.2561 37.8608 27.1094 37.9336C27.0283 37.9733 26.9407 37.9954 26.8465 37.9954C26.5968 37.9954 26.4194 37.8828 26.3121 37.6599L23.1975 31.2921H19.8309V37.2957C19.8309 37.459 19.7696 37.6003 19.6491 37.7217C19.5352 37.8365 19.3929 37.8939 19.2264 37.8939C19.0599 37.8939 18.9241 37.8365 18.8037 37.7217C18.6898 37.6003 18.6328 37.4568 18.6328 37.2957V24.0503C18.6328 23.8803 18.6898 23.7391 18.8037 23.6243C18.9241 23.5095 19.0665 23.4521 19.2264 23.4521H23.7932ZM26.8181 27.3721C26.8181 26.6195 26.5224 25.9816 25.931 25.4519C25.3396 24.9177 24.6277 24.6485 23.7932 24.6485H19.8309V30.0826H23.8633C24.6825 30.0693 25.379 29.7979 25.9507 29.2703C26.5289 28.7428 26.8181 28.1093 26.8181 27.3699V27.3721Z" fill="#414141"/>
<path d="M35.1485 37.9978C34.9798 37.9978 34.8396 37.936 34.7257 37.8146C34.6053 37.6998 34.5439 37.5563 34.5439 37.3886V24.0218C34.5439 23.8518 34.6053 23.7106 34.7257 23.5958C34.8462 23.4678 34.9886 23.406 35.1485 23.4126L43.1519 23.4325C43.3206 23.4325 43.4608 23.4943 43.5747 23.6157C43.6951 23.737 43.7565 23.8805 43.7565 24.0416C43.7565 24.2028 43.6951 24.3573 43.5747 24.4787C43.4608 24.5934 43.3184 24.6508 43.1519 24.6508L35.753 24.631V30.096H41.2858C41.4544 30.096 41.5946 30.1578 41.7085 30.2792C41.829 30.394 41.8903 30.5374 41.8903 30.7052C41.8903 30.8729 41.829 31.0164 41.7085 31.1312C41.5946 31.2526 41.4522 31.3144 41.2858 31.3144H35.753V36.7794H43.1519C43.3206 36.7794 43.4608 36.8412 43.5747 36.9626C43.6951 37.0774 43.7565 37.2208 43.7565 37.3886C43.7565 37.5563 43.6951 37.6998 43.5747 37.8146C43.4608 37.936 43.3184 37.9978 43.1519 37.9978H35.1485Z" fill="#414141"/>
<path d="M50.627 37.9975C50.4583 37.9975 50.3182 37.9402 50.2043 37.8254C50.0838 37.704 50.0225 37.5583 50.0225 37.3884V24.0304C50.0225 23.8604 50.0838 23.7147 50.2043 23.5934C50.3182 23.472 50.4605 23.4102 50.627 23.4102H53.9826C55.9714 23.4102 57.6711 24.1209 59.0838 25.5423C60.4944 26.9637 61.1997 28.6765 61.1997 30.6807C61.1997 32.6848 60.4944 34.3976 59.0838 35.8212C57.6733 37.2427 55.9736 37.9534 53.9826 37.9534L50.6357 37.9931H50.6248L50.627 37.9975ZM51.2315 36.7681L53.9738 36.7284C55.6341 36.7284 57.0512 36.1391 58.2274 34.9604C59.4036 33.7752 59.9906 32.3493 59.9906 30.6851C59.9906 29.0209 59.4036 27.595 58.2274 26.4097C57.0512 25.2311 55.6363 24.6418 53.9848 24.6418H51.2337V36.7703L51.2315 36.7681Z" fill="#414141"/>
<path d="M80.5693 37.5142C80.105 37.8232 79.5771 37.9688 79.0558 37.9688C78.1468 37.9688 77.2576 37.5208 76.7297 36.7019L73.8691 32.2919C75.674 31.1309 78.0154 30.5416 80.5168 32.3052C80.5168 32.3118 80.5234 32.3118 80.5234 32.3118L81.3776 33.6339C82.2187 34.9295 81.8573 36.6644 80.5715 37.512L80.5693 37.5142Z" fill="url(#paint0_linear_1186_8498)"/>
<path d="M80.5145 32.3076C78.0132 30.544 75.6739 31.1311 73.8669 32.2943C72.7695 32.9918 71.8167 33.9166 71.0019 34.9275C70.5485 35.4881 70.1674 36.0995 69.7753 36.7021C68.9343 37.9977 67.2127 38.3619 65.9269 37.5143C64.6412 36.6668 64.2798 34.9319 65.1209 33.6363L70.9209 24.6927C71.4356 23.9003 72.3096 23.4258 73.247 23.4258C74.1845 23.4258 75.0606 23.9025 75.5731 24.6927L80.5123 32.3076H80.5145Z" fill="url(#paint1_linear_1186_8498)"/>
<path d="M86.2774 37.9978C86.1087 37.9978 85.9685 37.936 85.8546 37.8146C85.7342 37.6998 85.6729 37.5563 85.6729 37.3886V24.0505C85.6729 23.8805 85.7298 23.7393 85.8437 23.6245C85.9642 23.5031 86.1087 23.4413 86.2774 23.4413L90.9231 23.4214C92.1124 23.4214 93.1178 23.7966 93.9369 24.5493C94.7561 25.3086 95.1657 26.2312 95.1657 27.3215C95.1657 27.9992 94.9971 28.6326 94.6619 29.2219C94.34 29.798 93.8931 30.2682 93.3215 30.6346C93.972 30.9745 94.4867 31.4402 94.8635 32.0361C95.2468 32.6453 95.4373 33.3119 95.4373 34.0381C95.4373 35.1284 95.0212 36.0599 94.1866 36.8324C93.3609 37.6115 92.3577 38 91.1837 38H86.2752L86.2774 37.9978ZM86.8841 30.1357L90.9252 30.1247C91.7641 30.1247 92.4804 29.851 93.0718 29.3014C93.6632 28.7518 93.9589 28.0919 93.9589 27.3215C93.9589 26.5512 93.6675 25.9332 93.0827 25.4123C92.4979 24.898 91.7795 24.6398 90.9252 24.6398L86.8841 24.6597V30.1335V30.1357ZM86.8841 36.7794H91.1881C92.027 36.7794 92.7476 36.5123 93.3456 35.976C93.937 35.4418 94.2326 34.7951 94.2326 34.0358C94.2326 33.2766 93.9413 32.6409 93.3565 32.1266C92.7717 31.6057 92.0555 31.3453 91.21 31.3453H86.8863V36.7794H86.8841ZM102.884 23.4634C103.047 23.4634 103.187 23.5252 103.307 23.6466C103.421 23.7613 103.478 23.9048 103.478 24.0725V36.7882H110.021C110.189 36.7882 110.329 36.8456 110.443 36.9604C110.564 37.0818 110.625 37.2253 110.625 37.3864C110.625 37.5475 110.564 37.702 110.443 37.8234C110.329 37.9382 110.187 37.9956 110.021 37.9956H102.884C102.716 37.9956 102.571 37.9382 102.451 37.8234C102.337 37.702 102.28 37.5563 102.28 37.3864V24.0725C102.28 23.9026 102.337 23.7613 102.451 23.6466C102.571 23.5252 102.716 23.4634 102.884 23.4634ZM117.244 37.9978C117.076 37.9978 116.935 37.936 116.821 37.8146C116.701 37.6998 116.64 37.5563 116.64 37.3886V24.0218C116.64 23.8518 116.701 23.7106 116.821 23.5958C116.942 23.4678 117.084 23.406 117.244 23.4126L125.248 23.4325C125.416 23.4325 125.556 23.4943 125.67 23.6157C125.791 23.737 125.852 23.8805 125.852 24.0416C125.852 24.2028 125.791 24.3573 125.67 24.4787C125.556 24.5934 125.414 24.6508 125.248 24.6508L117.849 24.631V30.096H123.381C123.55 30.096 123.69 30.1578 123.804 30.2792C123.925 30.394 123.986 30.5374 123.986 30.7052C123.986 30.8729 123.925 31.0164 123.804 31.1312C123.69 31.2526 123.548 31.3144 123.381 31.3144H117.849V36.7794H125.248C125.416 36.7794 125.556 36.8412 125.67 36.9626C125.791 37.0774 125.852 37.2208 125.852 37.3886C125.852 37.5563 125.791 37.6998 125.67 37.8146C125.556 37.936 125.414 37.9978 125.248 37.9978H117.244Z" fill="#F69220"/>
<path d="M130.156 24.2359H129.712V25.0481H129.291V22.9756H130.301C130.445 22.9778 130.557 22.9955 130.634 23.0286C130.71 23.0617 130.778 23.1102 130.831 23.1742C130.875 23.2272 130.912 23.2846 130.936 23.3486C130.962 23.4126 130.975 23.4854 130.975 23.5671C130.975 23.6664 130.951 23.7613 130.901 23.8585C130.853 23.9534 130.769 24.0218 130.656 24.0593C130.75 24.0968 130.818 24.152 130.857 24.2227C130.897 24.2933 130.916 24.4014 130.916 24.5471V24.6862C130.916 24.7811 130.921 24.8451 130.927 24.8782C130.938 24.9312 130.964 24.9709 131.006 24.9974V25.0504H130.533C130.52 25.004 130.511 24.9665 130.504 24.94C130.493 24.8826 130.487 24.823 130.487 24.7612V24.5692C130.483 24.4368 130.458 24.3485 130.412 24.3043C130.366 24.2602 130.281 24.2381 130.154 24.2381L130.156 24.2359ZM130.417 23.8585C130.502 23.8187 130.546 23.7415 130.546 23.6245C130.546 23.4987 130.504 23.4148 130.421 23.3707C130.375 23.3464 130.305 23.3332 130.211 23.3332H129.712V23.8894H130.198C130.294 23.8894 130.366 23.8783 130.415 23.8563L130.417 23.8585Z" fill="black"/>
<path d="M130.025 25.9818C128.934 25.9818 128.049 25.0879 128.049 23.9909C128.049 22.8939 128.936 22 130.025 22C131.113 22 132 22.8939 132 23.9909C132 25.0879 131.113 25.9818 130.025 25.9818ZM130.025 22.2185C129.056 22.2185 128.268 23.0131 128.268 23.9887C128.268 24.9643 129.056 25.7589 130.025 25.7589C130.993 25.7589 131.781 24.9643 131.781 23.9887C131.781 23.0131 130.993 22.2185 130.025 22.2185Z" fill="#231F20"/>
</g>
<defs>
<linearGradient id="paint0_linear_1186_8498" x1="81.6404" y1="39.6816" x2="77.31" y2="32.5553" gradientUnits="userSpaceOnUse">
<stop stop-color="#F59120"/>
<stop offset="0.49" stop-color="#F7961F"/>
<stop offset="1" stop-color="#414141"/>
</linearGradient>
<linearGradient id="paint1_linear_1186_8498" x1="64.6675" y1="30.6985" x2="80.5145" y2="30.6985" gradientUnits="userSpaceOnUse">
<stop stop-color="#FBED1F"/>
<stop offset="0.49" stop-color="#F7961F"/>
<stop offset="1" stop-color="#F59120"/>
</linearGradient>
<clipPath id="clip0_1186_8498">
<rect width="132" height="60" fill="white"/>
</clipPath>
</defs>
</svg>
