<svg width="132" height="60" viewBox="0 0 132 60" fill="none" xmlns="http://www.w3.org/2000/svg">
<mask id="mask0_1352_37694" style="mask-type:luminance" maskUnits="userSpaceOnUse" x="11" y="19" width="111" height="22">
<path d="M122 19H11V40.2737H122V19Z" fill="white"/>
</mask>
<g mask="url(#mask0_1352_37694)">
<path d="M12.3128 38.6763C11.4032 37.4688 10.9384 35.9836 10.9973 34.4721C10.9494 32.2289 11.5732 30.0226 12.7884 28.1376C13.3267 27.2853 14.0701 26.5821 14.9503 26.0923C15.8305 25.6026 16.8194 25.342 17.8263 25.3346C19.8135 25.3346 21.2685 26.3438 21.6882 27.8853L22.9478 25.6712H27.5654L25.8861 35.285C25.836 35.4289 25.8169 35.5818 25.8302 35.7336C25.8302 36.1539 25.9979 36.3502 26.4176 36.3502C26.6775 36.3397 26.9334 36.2828 27.1734 36.1822L26.586 39.6018C25.7251 39.9948 24.7891 40.1956 23.843 40.1901C21.7441 40.1901 20.3167 38.9846 20.3167 37.2751V37.0511C19.9998 37.9894 19.3975 38.8048 18.5944 39.3828C17.7913 39.961 16.8276 40.2727 15.8385 40.2744C15.168 40.2958 14.5014 40.1629 13.8902 39.8858C13.2789 39.6087 12.7393 39.195 12.3128 38.6763ZM18.442 35.9299C19.5333 35.9299 20.2891 34.9767 20.6252 33.2673C20.7754 32.5469 20.8688 31.8158 20.9047 31.0809C20.9047 29.988 20.3733 29.3991 19.3655 29.3991C18.5821 29.3991 17.9382 29.8753 17.4067 30.8002C16.969 31.7575 16.7583 32.8032 16.791 33.8555C16.7936 35.1724 17.4093 35.9293 18.4453 35.9293L18.442 35.9299ZM36.329 25.3346C39.9948 25.3346 42.1503 27.4643 42.1503 30.9122L37.2827 31.5288C37.3669 30.1836 36.919 29.3984 36.0231 29.3984C35.2673 29.3984 34.7635 29.7937 34.232 30.7996C33.8309 31.8085 33.613 32.8812 33.5887 33.9669C33.5887 35.4247 34.1202 36.1809 35.1279 36.1809C35.9955 36.1809 36.5552 35.48 36.8631 34.2192L41.509 35.7606C40.4736 38.7593 38.2346 40.2731 34.7924 40.2731C33.0173 40.3553 31.2802 39.7408 29.9505 38.5603C29.3363 37.9797 28.8537 37.2739 28.535 36.4907C28.2164 35.7073 28.0693 34.8647 28.1035 34.0196C28.0731 32.1507 28.578 30.3123 29.5585 28.7219C30.3046 27.6256 31.3184 26.7387 32.5035 26.1457C33.6886 25.5529 35.0056 25.2736 36.329 25.3346ZM50.4903 25.3346C52.2737 25.2482 54.0203 25.8628 55.3578 27.0473C55.9763 27.6246 56.462 28.3298 56.7809 29.1139C57.0999 29.898 57.2445 30.7423 57.2049 31.5881C57.257 33.4636 56.7398 35.3108 55.7216 36.8858C54.2383 39.1255 51.915 40.277 48.9767 40.277C47.2016 40.3593 45.4645 39.7448 44.1348 38.5643C43.5207 37.9837 43.0379 37.2779 42.7193 36.4946C42.4007 35.7113 42.2535 34.8686 42.2878 34.0235C42.2575 32.1547 42.7624 30.3162 43.7428 28.7258C44.483 27.6288 45.4923 26.7407 46.6738 26.1468C47.8555 25.553 49.1696 25.2733 50.4903 25.3346ZM49.2872 36.1816C50.043 36.1816 50.5462 35.7863 51.0783 34.8081C51.4797 33.7992 51.6978 32.7266 51.7223 31.6408C51.7223 30.1836 51.1908 29.401 50.2094 29.401C49.4536 29.401 48.9497 29.7963 48.4183 30.8022C48.0168 31.8111 47.7988 32.8837 47.7743 33.9695C47.7756 35.4247 48.2795 36.1816 49.2872 36.1816ZM59.7136 25.6705H65.3672L63.9681 33.7422C63.903 33.9984 63.8746 34.2626 63.8839 34.5268C63.8839 35.3957 64.2477 35.816 65.0311 35.816C66.0388 35.816 66.7413 34.9471 67.0459 33.3496L68.3891 25.6699H74.0427L72.364 35.2844C72.3139 35.4282 72.2948 35.5811 72.3081 35.733C72.3081 36.1532 72.4758 36.3496 72.8955 36.3496C73.1554 36.339 73.4113 36.2822 73.6513 36.1816L73.0639 39.6012C72.2063 40.0042 71.2681 40.2054 70.321 40.1894C68.222 40.1894 66.7946 38.9839 66.7946 37.2744V37.0498C66.4426 38.0043 65.8045 38.8263 64.9676 39.4034C64.1309 39.9804 63.1364 40.2842 62.1204 40.2731C59.6577 40.2731 58.0067 38.6196 58.0067 36.0406C58.0022 35.5897 58.0397 35.1394 58.1185 34.6954L59.7136 25.6705ZM75.9331 39.0682C75.3614 38.7252 74.8786 38.2521 74.5236 37.6873C74.1686 37.1225 73.9516 36.4818 73.8901 35.8173L78.8721 35.1724C78.9142 35.6214 79.1325 36.0355 79.4785 36.3243C79.8245 36.613 80.2705 36.753 80.7191 36.7138C81.5025 36.7138 81.9788 36.3496 81.9788 35.7046C81.9788 35.256 81.6709 35.0321 79.9074 34.5848C78.8319 34.3962 77.7992 34.017 76.8566 33.4649C76.3933 33.1651 76.0172 32.7481 75.7666 32.256C75.5159 31.7639 75.3995 31.2142 75.4293 30.6625C75.4122 29.9218 75.5707 29.1877 75.8917 28.5202C76.2128 27.8527 76.6873 27.271 77.2763 26.8227C78.6339 25.7941 80.3054 25.2691 82.0064 25.3372C86.0083 25.3372 88.3592 27.1027 88.3592 30.0183L83.6291 30.2706C83.6357 30.0689 83.5982 29.8682 83.5199 29.6823C83.4417 29.4965 83.3239 29.3298 83.1746 29.1939C83.0259 29.0581 82.8496 28.9561 82.6576 28.8952C82.4655 28.8343 82.2623 28.8159 82.0623 28.8411C81.3065 28.8411 80.8309 29.2054 80.8309 29.7943C80.8309 30.2429 81.1388 30.4952 83.0141 30.9715C84.8052 31.448 86.0083 31.9805 86.6246 32.569C86.9384 32.8553 87.1864 33.2069 87.3508 33.5991C87.5153 33.9913 87.5922 34.4147 87.5764 34.8397C87.5942 35.6052 87.4278 36.3638 87.0917 37.0516C86.7555 37.7394 86.2596 38.3364 85.6452 38.7922C84.177 39.834 82.405 40.3566 80.6073 40.2777C78.9642 40.3446 77.3381 39.9238 75.9331 39.0682ZM98.4344 35.0321L98.4627 38.8996C97.2208 39.8494 95.6862 40.3352 94.1246 40.2731C91.1304 40.2731 89.4511 38.8436 89.4511 36.2929C89.4511 35.9286 89.507 35.5083 89.5353 35.088L90.4864 29.7904H88.7762L89.4761 25.6699H91.2389L91.7704 22.6396L97.5076 22.023L96.8643 25.6666H100.139L99.4112 29.7871H96.1091L95.3251 34.2995C95.2968 34.5518 95.2691 34.6638 95.2691 34.7765C95.2691 35.449 95.6638 35.7857 96.3604 35.7857C97.1155 35.7693 97.8444 35.5044 98.4344 35.0321ZM101.766 25.6712H107.42L105.74 35.285C105.69 35.4289 105.671 35.5818 105.684 35.7336C105.684 36.1539 105.882 36.3502 106.244 36.3502C106.513 36.3428 106.779 36.2859 107.028 36.1822L106.412 39.6018C105.532 39.9975 104.577 40.1981 103.613 40.1901C101.262 40.1901 99.919 38.9286 99.919 36.7145C99.919 36.3779 99.9749 36.0419 100.003 35.7053L101.766 25.6712ZM105.318 19.0007C107.109 19.0007 108.425 20.0935 108.425 21.7753C108.425 23.4571 107.026 24.6343 105.234 24.6343C103.443 24.6343 102.128 23.5414 102.128 21.8596C102.128 20.1778 103.529 19 105.321 19L105.318 19.0007ZM116.18 25.3346C119.846 25.3346 122.001 27.4643 122.001 30.9122L117.134 31.5288C117.218 30.1836 116.77 29.3984 115.875 29.3984C115.119 29.3984 114.615 29.7937 114.084 30.7996C113.682 31.8085 113.464 32.8811 113.44 33.9669C113.44 35.4247 113.971 36.1809 114.979 36.1809C115.846 36.1809 116.406 35.48 116.714 34.2192L121.36 35.7606C120.325 38.7593 118.085 40.2731 114.643 40.2731C112.868 40.3553 111.131 39.7408 109.801 38.5603C109.187 37.9797 108.705 37.2739 108.386 36.4907C108.068 35.7073 107.92 34.8647 107.954 34.0196C107.924 32.1507 108.429 30.3123 109.409 28.7219C110.155 27.6256 111.17 26.7387 112.354 26.1457C113.54 25.5529 114.856 25.2736 116.18 25.3346Z" fill="#13163C"/>
</g>
</svg>
