<svg width="116" height="23" viewBox="0 0 116 23" fill="none" xmlns="http://www.w3.org/2000/svg">
<mask id="mask0_261_4005" style="mask-type:luminance" maskUnits="userSpaceOnUse" x="0" y="0" width="116" height="23">
<path d="M115.095 0H0V22.0587H115.095V0Z" fill="white"/>
</mask>
<g mask="url(#mask0_261_4005)">
<path d="M1.36144 20.4023C0.418225 19.1503 -0.063702 17.6102 -0.00264931 16.043C-0.0523416 13.717 0.594505 11.4293 1.85457 9.47469C2.41273 8.59102 3.1835 7.86186 4.0962 7.354C5.0089 6.84622 6.03431 6.57604 7.07837 6.56828C9.13883 6.56828 10.6475 7.61473 11.0827 9.21308L12.3888 6.91733H17.1768L15.4355 16.8859C15.3835 17.035 15.3637 17.1936 15.3775 17.351C15.3775 17.7868 15.5514 17.9904 15.9866 17.9904C16.2561 17.9795 16.5214 17.9205 16.7703 17.8162L16.1612 21.3619C15.2685 21.7695 14.298 21.9776 13.3171 21.9719C11.1406 21.9719 9.6606 20.7219 9.6606 18.9494V18.7171C9.33199 19.69 8.7075 20.5355 7.87472 21.1349C7.04201 21.7344 6.04274 22.0576 5.01722 22.0593C4.3219 22.0815 3.63075 21.9437 2.99697 21.6564C2.36319 21.3691 1.80366 20.9401 1.36144 20.4023ZM7.71676 17.5546C8.84828 17.5546 9.63195 16.5662 9.98048 14.7937C10.1362 14.0467 10.2331 13.2887 10.2703 12.5266C10.2703 11.3934 9.71925 10.7827 8.67436 10.7827C7.86204 10.7827 7.19431 11.2766 6.64322 12.2356C6.18945 13.2282 5.97096 14.3125 6.00482 15.4036C6.00755 16.7691 6.64595 17.5539 7.72017 17.5539L7.71676 17.5546ZM26.2637 6.56828C30.0647 6.56828 32.2998 8.77661 32.2998 12.3517L27.2526 12.9911C27.3399 11.5963 26.8755 10.7821 25.9465 10.7821C25.1628 10.7821 24.6404 11.1919 24.0893 12.2349C23.6734 13.2811 23.4475 14.3933 23.4223 15.5191C23.4223 17.0307 23.9734 17.8148 25.0183 17.8148C25.9179 17.8148 26.4983 17.0881 26.8175 15.7807L31.6348 17.379C30.5613 20.4883 28.2396 22.058 24.6704 22.058C22.8298 22.1432 21.0286 21.5061 19.6499 20.282C19.013 19.68 18.5125 18.9482 18.1822 18.136C17.8518 17.3238 17.6992 16.45 17.7347 15.5737C17.7032 13.6359 18.2268 11.7297 19.2434 10.0806C20.017 8.94382 21.0682 8.02422 22.2971 7.4094C23.5259 6.79463 24.8915 6.50507 26.2637 6.56828ZM40.9475 6.56828C42.7967 6.47875 44.6077 7.11603 45.9946 8.34423C46.636 8.9428 47.1395 9.67401 47.4702 10.4871C47.801 11.3001 47.9509 12.1756 47.9098 13.0525C47.9639 14.9973 47.4276 16.9126 46.3718 18.5457C44.8338 20.8681 42.4248 22.0621 39.3781 22.0621C37.5375 22.1473 35.7363 21.5102 34.3575 20.2861C33.7207 19.6842 33.2201 18.9523 32.8898 18.1401C32.5594 17.3279 32.4068 16.4541 32.4423 15.5778C32.4109 13.64 32.9344 11.7338 33.951 10.0847C34.7185 8.94717 35.7651 8.02627 36.9902 7.41049C38.2155 6.79475 39.5781 6.50472 40.9475 6.56828ZM39.7 17.8155C40.4837 17.8155 41.0054 17.4057 41.5572 16.3913C41.9734 15.3452 42.1995 14.233 42.2249 13.1072C42.2249 11.5963 41.6739 10.7848 40.6562 10.7848C39.8726 10.7848 39.3501 11.1946 38.799 12.2377C38.3828 13.2838 38.1567 14.396 38.1313 15.5218C38.1327 17.0307 38.6551 17.8155 39.7 17.8155ZM50.5111 6.91664H56.3733L54.9226 15.2861C54.855 15.5518 54.8256 15.8257 54.8353 16.0997C54.8353 17.0006 55.2125 17.4364 56.0248 17.4364C57.0697 17.4364 57.7981 16.5355 58.1139 14.879L59.5067 6.91596H65.3689L63.6283 16.8852C63.5763 17.0344 63.5565 17.1929 63.5703 17.3503C63.5703 17.7861 63.7442 17.9897 64.1794 17.9897C64.4488 17.9788 64.7142 17.9198 64.963 17.8155L64.354 21.3613C63.4648 21.7792 62.4919 21.9878 61.5098 21.9712C59.3334 21.9712 57.8534 20.7212 57.8534 18.9487V18.7158C57.4883 19.7055 56.8267 20.5579 55.959 21.1562C55.0914 21.7545 54.0602 22.0695 53.0068 22.058C50.4532 22.058 48.7412 20.3435 48.7412 17.6693C48.7366 17.2018 48.7754 16.7348 48.8572 16.2745L50.5111 6.91664ZM67.3291 20.8087C66.7363 20.453 66.2356 19.9624 65.8676 19.3768C65.4995 18.7911 65.2745 18.1268 65.2106 17.4378L70.3764 16.7691C70.4201 17.2347 70.6465 17.664 71.0053 17.9635C71.3641 18.2628 71.8265 18.4081 72.2916 18.3674C73.104 18.3674 73.5978 17.9897 73.5978 17.321C73.5978 16.8558 73.2786 16.6236 71.45 16.1598C70.3348 15.9643 69.264 15.5711 68.2867 14.9986C67.8062 14.6878 67.4163 14.2553 67.1564 13.7451C66.8964 13.2349 66.7758 12.6648 66.8066 12.0929C66.7889 11.3248 66.9533 10.5636 67.2862 9.87148C67.6191 9.17934 68.1111 8.57613 68.7218 8.11131C70.1296 7.04478 71.8626 6.50039 73.6264 6.57102C77.776 6.57102 80.2136 8.40161 80.2136 11.4248L75.309 11.6864C75.3158 11.4773 75.277 11.2692 75.1958 11.0765C75.1146 10.8838 74.9925 10.711 74.8377 10.57C74.6836 10.4292 74.5008 10.3235 74.3016 10.2603C74.1025 10.1972 73.8917 10.178 73.6844 10.2042C72.9007 10.2042 72.4076 10.5819 72.4076 11.1926C72.4076 11.6577 72.7268 11.9194 74.6713 12.4132C76.5285 12.9073 77.776 13.4594 78.4151 14.0696C78.7404 14.3665 78.9975 14.7311 79.168 15.1377C79.3386 15.5444 79.4184 15.9834 79.402 16.4241C79.4204 17.2179 79.2478 18.0044 78.8993 18.7176C78.5508 19.4308 78.0365 20.0498 77.3995 20.5225C75.8772 21.6027 74.0397 22.1446 72.1757 22.0628C70.4719 22.1321 68.7859 21.6958 67.3291 20.8087ZM90.6605 16.6236L90.6899 20.6338C89.4022 21.6187 87.8109 22.1224 86.1918 22.058C83.0871 22.058 81.3458 20.5757 81.3458 17.9309C81.3458 17.5532 81.4038 17.1174 81.4331 16.6816L82.4194 11.1885H80.646L81.3717 6.91596H83.1996L83.7507 3.77389L89.6995 3.13455L89.0325 6.91254H92.4277L91.6734 11.1851H88.2495L87.4365 15.864C87.4072 16.1256 87.3785 16.2417 87.3785 16.3585C87.3785 17.056 87.7878 17.405 88.51 17.405C89.293 17.388 90.0487 17.1134 90.6605 16.6236ZM94.1151 6.91733H99.9773L98.236 16.8859C98.1842 17.035 98.1644 17.1936 98.1781 17.351C98.1781 17.7868 98.3827 17.9904 98.7585 17.9904C99.0374 17.9827 99.313 17.9236 99.5708 17.8162L98.9324 21.3619C98.0205 21.7722 97.0302 21.9803 96.0303 21.9719C93.5927 21.9719 92.1999 20.6639 92.1999 18.3681C92.1999 18.0191 92.2579 17.6707 92.2872 17.3217L94.1151 6.91733ZM97.7982 0.000683058C99.6554 0.000683058 101.019 1.13388 101.019 2.87772C101.019 4.62157 99.5688 5.84219 97.7115 5.84219C95.8543 5.84219 94.4902 4.709 94.4902 2.96515C94.4902 1.22131 95.943 0 97.8009 0L97.7982 0.000683058ZM109.061 6.56828C112.862 6.56828 115.097 8.77661 115.097 12.3517L110.05 12.9911C110.137 11.5963 109.673 10.7821 108.744 10.7821C107.961 10.7821 107.438 11.1919 106.887 12.2349C106.471 13.2811 106.245 14.3933 106.219 15.5191C106.219 17.0307 106.77 17.8148 107.815 17.8148C108.715 17.8148 109.295 17.0881 109.615 15.7807L114.432 17.379C113.358 20.4883 111.037 22.058 107.468 22.058C105.627 22.1432 103.826 21.5061 102.447 20.282C101.81 19.68 101.31 18.9482 100.979 18.136C100.649 17.3238 100.496 16.45 100.532 15.5737C100.5 13.6359 101.024 11.7297 102.04 10.0806C102.814 8.94382 103.866 8.02422 105.094 7.4094C106.323 6.79463 107.689 6.50507 109.061 6.56828Z" fill="#13163C"/>
</g>
</svg>
