<svg width="132" height="60" viewBox="0 0 132 60" fill="none" xmlns="http://www.w3.org/2000/svg">
<path d="M37.009 26.8188C35.4287 27.1384 33.9449 27.6709 32.5784 28.3867C28.4077 32.2721 25.2639 37.1929 23.4531 42.6504C26.6933 40.3796 29.837 37.8958 32.8676 35.1905C35.9443 32.4425 38.8114 29.5455 41.4773 26.5206C40.0144 26.4226 38.5138 26.5164 37.009 26.8231V26.8188Z" fill="#231F20"/>
<path d="M31.7487 28.0458C28.0013 23.8323 23.2606 20.637 18 18.7539C18.3186 22.699 18.8551 26.6654 19.6389 30.6361C20.4312 34.6664 21.4497 38.5945 22.6737 42.4075C24.4845 36.9329 27.6115 31.9909 31.7487 28.0458Z" fill="#231F20"/>
<path d="M32.4029 27.556C33.782 26.8573 35.27 26.3333 36.8503 26.0138C38.2 25.7368 39.5413 25.6261 40.8617 25.6644C37.4078 24.0114 33.8323 22.5373 30.131 21.2677C26.2202 19.9214 22.2842 18.8393 18.3398 18C23.7261 19.9427 28.5717 23.2317 32.4029 27.556Z" fill="#231F20"/>
<path d="M112.774 18.0078L104.424 39.4844C104.227 39.8976 103.729 39.7826 103.59 39.4759L95.1524 18.0078H92.9434V42.5859H94.5865V22.0978C94.5865 22.1404 94.5865 22.183 94.5907 22.2213C94.5655 21.6632 94.9763 21.6291 95.1859 21.9827L103.226 42.5859H104.793L112.757 21.9529C112.971 21.6291 113.361 21.676 113.336 22.2213C113.336 22.2 113.336 22.1787 113.336 22.1574V42.5859H114.979V18.0078H112.77H112.774Z" fill="#231F20"/>
<path d="M82.5141 18.0078H80.8165L71.5654 42.5859H73.3217L76.2266 34.7809H86.9782L89.8495 42.5859H91.6058L82.5141 18.0078ZM76.7631 33.2429C76.7631 33.2429 81.3111 20.875 81.2733 21.0029C81.3949 20.5811 81.944 20.5768 82.074 20.9858L86.4459 33.2429H76.7631Z" fill="#231F20"/>
<path d="M47.3001 42.5859V18.7789C47.3001 18.3529 47.6396 18.0078 48.0588 18.0078H54.887C64.1548 18.0078 65.5381 25.685 65.5381 30.2607C65.5381 37.9762 61.5308 42.5817 54.82 42.5817H48.8175H47.2959L47.3001 42.5859ZM54.9499 41.0479C57.0499 41.0479 63.8949 40.2683 63.8949 30.2607C63.8949 23.0478 60.8727 19.5415 54.6607 19.5415H48.939V41.0437H54.9499V41.0479Z" fill="#231F20"/>
<path d="M70.233 18.0078H68.5898V42.5859H70.233V18.0078Z" fill="#231F20"/>
</svg>
