<svg width="79" height="30" viewBox="0 0 79 30" fill="none" xmlns="http://www.w3.org/2000/svg">
<g clip-path="url(#clip0_285_731)">
<path d="M12.711 0L0 29.4029H6.06258L8.15742 24.3494H18.9422L16.6788 19.1622H10.3055L15.0721 7.68271L24.0817 29.4029H30.1354L17.4333 0H12.711Z" fill="#EB0017"/>
<path d="M73.4442 4.19727V19.1616L61.4255 4.19727H56.5879V29.4023H62.1445V13.8586L74.6336 29.4023H79.0008V4.19727H73.4442Z" fill="#EB0017"/>
<path d="M41.239 3.56445C33.9692 3.56445 28.0753 9.47354 28.0664 16.773C28.0664 24.0725 33.9515 29.9905 41.2212 29.9994C48.491 29.9994 54.3849 24.0992 54.3938 16.7997C54.3938 9.50028 48.5088 3.57337 41.239 3.56445ZM41.239 24.4022C37.0404 24.4112 33.6319 21.0065 33.623 16.7908C33.6142 12.5751 37.0049 9.15269 41.2035 9.14378C45.402 9.13486 48.8106 12.5395 48.8194 16.7552C48.8194 16.773 48.8194 16.7819 48.8194 16.7997C48.8194 21.0065 45.4287 24.4112 41.239 24.429V24.4022Z" fill="#EB0017"/>
</g>
<defs>
<clipPath id="clip0_285_731">
<rect width="79" height="30" fill="white"/>
</clipPath>
</defs>
</svg>
