<svg width="133" height="60" viewBox="0 0 133 60" fill="none" xmlns="http://www.w3.org/2000/svg">
<path d="M79.3893 33.4258H70.5118V35.3471H73.7874V43.5569H76.1128V35.3471H79.3893V33.4258Z" fill="black"/>
<path d="M85.3895 33.1016C82.3639 33.1016 79.9124 35.5061 79.9124 38.4712C79.9124 41.4367 82.3639 43.8403 85.3895 43.8403C88.4125 43.8403 90.8644 41.4367 90.8644 38.4712C90.8644 35.5059 88.4125 33.1016 85.3895 33.1016ZM88.0724 40.096C87.7171 40.983 86.9084 41.6506 85.9284 41.8187C85.7539 41.8482 85.5735 41.865 85.3897 41.865C85.2051 41.865 85.026 41.8482 84.8504 41.8187C83.8702 41.6506 83.0611 40.983 82.7072 40.096C82.5034 39.5925 82.3941 39.0442 82.3941 38.4712C82.3941 37.8985 82.5034 37.3473 82.7072 36.8453C83.0611 35.9581 83.8702 35.2917 84.8504 35.1231C85.026 35.0941 85.2051 35.0768 85.3897 35.0768C85.5735 35.0768 85.7539 35.0941 85.9284 35.1231C86.9086 35.2917 87.7173 35.9579 88.0724 36.8453C88.2733 37.3471 88.3853 37.8985 88.3853 38.4712C88.3851 39.044 88.2731 39.5925 88.0724 40.096Z" fill="black"/>
<path d="M90.9216 33.4043H93.6609L96.2156 37.7611L98.7748 33.4043H101.511L97.3783 39.7861V43.5354H95.0534V39.7861L90.9216 33.4043Z" fill="black"/>
<path d="M107.032 33.1016C104.01 33.1016 101.557 35.5071 101.557 38.4712C101.557 41.4381 104.01 43.8403 107.032 43.8403C110.058 43.8403 112.508 41.4379 112.508 38.4712C112.508 35.5071 110.058 33.1016 107.032 33.1016ZM109.716 40.096C109.362 40.9848 108.551 41.6506 107.572 41.8187C107.397 41.8504 107.217 41.865 107.032 41.865C106.85 41.865 106.669 41.8504 106.495 41.8187C105.514 41.6506 104.705 40.9848 104.349 40.096C104.149 39.5925 104.036 39.0442 104.036 38.4712C104.036 37.8985 104.149 37.3473 104.349 36.8453C104.705 35.9581 105.514 35.2927 106.495 35.1231C106.669 35.0941 106.85 35.0768 107.032 35.0768C107.217 35.0768 107.397 35.0941 107.572 35.1231C108.551 35.2927 109.362 35.9579 109.716 36.8453C109.918 37.3471 110.029 37.8985 110.029 38.4712C110.029 39.044 109.918 39.5925 109.716 40.096Z" fill="black"/>
<path d="M128.316 33.4062H125.422L121.238 43.5363H123.822L124.67 41.3085H129.068L129.918 43.5363H132.5L128.316 33.4062ZM125.347 39.5343L126.869 35.533L128.393 39.5343H125.347Z" fill="black"/>
<path d="M121.883 33.4258H113.006V35.3471H116.281V43.5583H118.606V35.3471H121.883V33.4258Z" fill="black"/>
<path d="M54.6935 36.3066C53.7195 36.3066 52.9345 36.6605 52.4828 37.3032L52.3449 37.4994V37.2611V32.9629H50.2377V43.5603H52.3449V42.7058V42.4472L52.4846 42.6665C52.9044 43.3255 53.6989 43.7032 54.6643 43.7032C55.6553 43.7032 56.5516 43.3329 57.1879 42.6607C57.8232 41.9893 58.1731 41.0462 58.1731 40.005C58.1731 38.9601 57.8244 38.0151 57.1915 37.3441C56.5606 36.6749 55.6733 36.3066 54.6935 36.3066ZM54.1544 41.8364C53.6556 41.8364 53.1932 41.6596 52.8525 41.3388C52.497 41.0037 52.3012 40.5299 52.3012 40.0044C52.3012 38.9264 53.0866 38.1442 54.1688 38.1442C55.2599 38.1442 55.993 38.8917 55.993 40.0044C55.993 41.1175 55.2713 41.8364 54.1544 41.8364Z" fill="black"/>
<path d="M64.5043 36.4492L63.0206 40.9136L62.9511 41.1229L62.8773 40.915L61.2921 36.4492H58.9957L61.853 43.349L61.8642 43.3763L61.8534 43.4038L61.6787 43.8469C61.4245 44.4561 60.9632 44.7515 60.2677 44.7515C60.0044 44.7515 59.7854 44.702 59.6018 44.6463L59.3601 46.3454C59.7533 46.4999 60.194 46.5751 60.705 46.5751C62.1653 46.5751 63.0286 45.9316 63.5918 44.4231L66.6714 36.4492H64.5043Z" fill="black"/>
<path d="M57.953 15.3867L54.9993 25.0408L52.1003 15.3867H48.5286L53.0459 28.9124H56.4136L59.2581 19.8325L62.1843 28.9124H65.5517L69.8553 15.3867H66.4982L63.7085 24.9595L60.6726 15.3867H57.953Z" fill="black"/>
<path d="M86.9407 15.3867L92.2336 28.9124H95.5252L100.764 15.3867H97.4372L93.9736 25.1498L90.5105 15.3867H86.9407Z" fill="black"/>
<path d="M108.812 15.1172C104.862 15.1172 101.995 18.0859 101.995 22.1765C101.995 26.3012 104.942 29.182 109.162 29.182C111.32 29.182 113.276 28.6204 114.676 27.5999L113.876 25.0739C112.693 25.9589 111.108 26.4654 109.513 26.4654C107.053 26.4654 105.519 25.1595 105.305 22.8826L105.299 22.8205H115.305V22.3653C115.305 18.03 112.696 15.1172 108.812 15.1172ZM105.398 20.643L105.414 20.5732C105.835 18.7505 107.137 17.6181 108.812 17.6181C110.467 17.6181 111.746 18.8078 111.995 20.578L112.004 20.6428L105.398 20.643Z" fill="black"/>
<path d="M126.596 15.0898C124.552 15.0898 122.84 16.0031 121.9 17.5956L121.794 17.7579V15.3863H118.539V28.9117H121.794V21.6907C121.794 19.4278 123.118 18.0219 125.248 18.0219C127.199 18.0219 128.108 19.162 128.108 21.6099V28.9117H131.364V20.316C131.364 16.897 129.715 15.0898 126.596 15.0898Z" fill="black"/>
<path d="M78.5862 15.1035C74.6236 15.1035 71.4128 18.2528 71.4128 22.1364C71.4128 26.0204 74.6236 29.1685 78.5862 29.1685C82.5455 29.1685 85.7568 26.0204 85.7568 22.1364C85.7568 18.2528 82.5453 15.1035 78.5862 15.1035ZM82.0998 24.2644C81.6345 25.426 80.5753 26.3004 79.2916 26.5207C79.063 26.5593 78.8269 26.5814 78.5862 26.5814C78.3443 26.5814 78.1098 26.5595 77.8799 26.5207C76.5959 26.3006 75.5365 25.4262 75.0727 24.2644C74.806 23.605 74.6627 22.8868 74.6627 22.1364C74.6627 21.3861 74.8058 20.6644 75.0727 20.007C75.5365 18.8448 76.5959 17.9722 77.8799 17.7516C78.1098 17.7135 78.3445 17.6909 78.5862 17.6909C78.8271 17.6909 79.063 17.7133 79.2916 17.7516C80.5753 17.9722 81.6347 18.8448 82.0998 20.007C82.3628 20.6644 82.5095 21.3863 82.5095 22.1364C82.5097 22.8868 82.3628 23.6048 82.0998 24.2644Z" fill="black"/>
<path d="M21.3267 42.0614C22.8831 42.9833 23.2395 43.8108 23.2395 45.0394C23.2395 46.7908 21.8089 48.0736 19.9054 48.0736H31.7408V36.0488L21.3267 42.0614Z" fill="#575A60"/>
<path d="M31.741 12L23.4288 19.2257L31.7412 24.025C31.7614 22.2163 32.2999 21.4938 33.3637 20.8795C34.88 20.0041 36.7058 20.6011 37.6578 22.2485L31.741 12Z" fill="#D30C28"/>
<path d="M31.7399 24.1377C31.7401 24.7229 31.7405 25.1719 31.7405 25.1719V48.0755L41.467 31.2289C41.8923 30.4922 41.8923 29.5846 41.467 28.8478L37.6583 22.2512C36.7066 20.6026 34.8802 20.005 33.3633 20.8808C32.2778 21.5075 31.7389 22.246 31.7399 24.1377Z" fill="#6F7278"/>
<path d="M22.7066 43.1953L22.7058 43.1963C23.1178 43.7394 23.2399 44.3204 23.2399 45.0387C23.2399 46.7901 21.8091 48.0732 19.9056 48.0732H18.6803H26.9467L22.7066 43.1953Z" fill="#414449"/>
<path d="M6.67388 23.6317C5.76601 22.6531 5.63655 21.1494 6.41014 19.7988L0.499756 30.0361L10.9134 36.0485V28.5094L6.67328 23.6317H6.67388Z" fill="#A5A5A5"/>
<path d="M7.37736 24.192C7.10621 24.0354 6.87172 23.8465 6.67351 23.6328H6.67291L10.9131 28.5105V24.0244C9.336 24.9114 8.44116 24.8062 7.37736 24.192Z" fill="#838688"/>
<path d="M11.0101 23.9695C11.5167 23.6767 11.9053 23.4518 11.9053 23.4518L31.7408 12H12.2875C11.437 12 10.6509 12.4537 10.2257 13.1905L6.41701 19.7873C5.46525 21.4359 5.86087 23.3163 7.37759 24.1919C8.46323 24.8188 9.37251 24.9162 11.0101 23.9695Z" fill="#E60A1E"/>
<path d="M21.3272 18.0124L23.4289 19.2257L31.7411 12L21.3272 18.0124Z" fill="#A1192E"/>
<path d="M21.2307 42.0054C20.7238 41.713 20.3348 41.4889 20.3348 41.4889L0.499756 30.0371L10.2262 46.8838C10.6515 47.6206 11.4375 48.0743 12.2881 48.0743H19.9054C21.8089 48.0743 23.2396 46.7914 23.2396 45.04C23.2396 43.7865 22.8695 42.9503 21.2307 42.0054Z" fill="#C7C7C7"/>
</svg>
