<svg width="84" height="66" viewBox="0 0 84 66" fill="none" xmlns="http://www.w3.org/2000/svg">
<path d="M74.853 26.1169C75.3197 27.8141 77.093 28.8512 78.773 28.3798C80.453 27.9084 81.4797 26.1169 81.0131 24.4198C80.5464 22.7226 78.773 21.6855 77.093 22.1569C75.413 22.5341 74.3864 24.3255 74.853 26.1169Z" fill="#2A4C87"/>
<path d="M70.4671 29.512C71.5871 29.2292 72.3338 28.0035 72.0538 26.7777C71.7738 25.6463 70.5605 24.892 69.3471 25.1749C68.2271 25.4577 67.4805 26.6835 67.7605 27.9092C68.0405 29.1349 69.2538 29.8892 70.4671 29.512Z" fill="#2A4C87"/>
<path d="M64.0272 30.642C64.8672 30.3592 65.4272 29.5106 65.1472 28.662C64.8672 27.8135 64.0272 27.2478 63.1872 27.5306C62.3472 27.8135 61.7872 28.662 62.0672 29.5106C62.2539 30.3592 63.1872 30.9249 64.0272 30.642Z" fill="#2A4C87"/>
<path d="M58.9888 31.492C59.5488 31.3034 59.8288 30.7377 59.7355 30.2663C59.6422 29.7006 58.9888 29.4177 58.5222 29.512C57.9622 29.7006 57.6822 30.2663 57.7755 30.7377C57.8688 31.2091 58.4288 31.5863 58.9888 31.492Z" fill="#2E4E88"/>
<path d="M72.4275 19.5166C73.2675 20.9309 75.0408 21.4023 76.4408 20.648C77.8408 19.7995 78.3075 18.008 77.5608 16.5937C76.7208 15.1795 74.9475 14.708 73.5475 15.4623C72.1475 16.2166 71.6808 18.1023 72.4275 19.5166Z" fill="#1F3D70"/>
<path d="M65.9858 23.1931C66.5458 24.2303 67.7591 24.5131 68.7858 23.9474C69.8124 23.3817 70.0924 22.156 69.5324 21.1189C68.9724 20.0817 67.7591 19.7989 66.7324 20.3646C65.7991 20.9303 65.4258 22.2503 65.9858 23.1931Z" fill="#1F3D70"/>
<path d="M61.4127 24.2315C60.666 24.6087 60.4793 25.5515 60.8527 26.2115C61.226 26.9658 62.1594 27.1544 62.8127 26.7773C63.5594 26.4001 63.746 25.4573 63.3727 24.7973C62.9994 24.043 62.066 23.8544 61.4127 24.2315Z" fill="#1F3D70"/>
<path d="M57.3057 27.2481C56.839 27.531 56.6523 28.0967 56.9323 28.5681C57.2123 29.0396 57.7723 29.2281 58.239 28.9453C58.7057 28.6624 58.8923 28.0967 58.6123 27.6253C58.3323 27.1538 57.679 26.9653 57.3057 27.2481Z" fill="#1F3D70"/>
<path d="M72.1479 13.6723C73.1745 12.6352 73.1745 10.938 72.1479 9.9009C71.1212 8.86376 69.4412 8.86376 68.4145 9.9009C67.3879 10.938 67.3879 12.6352 68.4145 13.6723C69.4412 14.7095 71.1212 14.7095 72.1479 13.6723Z" fill="#194C88"/>
<path d="M65.7081 16.4056C64.9614 15.6513 63.7481 15.6513 63.0014 16.4056C62.2547 17.1598 62.2547 18.3856 63.0014 19.1398C63.7481 19.8941 64.9614 19.8941 65.7081 19.1398C66.4547 18.3856 66.4547 17.1598 65.7081 16.4056Z" fill="#194C88"/>
<path d="M58.8009 21.4966C58.2409 22.0623 58.2409 22.9108 58.8009 23.3823C59.3609 23.948 60.2009 23.948 60.6675 23.3823C61.2275 22.8166 61.2275 21.968 60.6675 21.4966C60.2009 20.9308 59.3609 20.9308 58.8009 21.4966Z" fill="#194C88"/>
<path d="M55.5342 26.5887C55.9076 26.9658 56.4676 26.9658 56.7476 26.5887C57.1209 26.2115 57.1209 25.6458 56.7476 25.3629C56.3742 24.9858 55.8142 24.9858 55.5342 25.3629C55.2542 25.7401 55.2542 26.3058 55.5342 26.5887Z" fill="#194C88"/>
<path d="M62.9062 9.23858C64.1195 9.89858 65.6129 9.52143 66.2662 8.29572C66.9195 7.07 66.5462 5.56143 65.3329 4.90143C64.1195 4.24143 62.6262 4.61858 61.9729 5.84429C61.2262 6.97572 61.6929 8.48429 62.9062 9.23858Z" fill="#3468A3"/>
<path d="M58.4279 13.4817C57.9613 14.3303 58.2413 15.4617 59.0813 15.9332C59.9213 16.4046 61.0413 16.1217 61.5079 15.2732C61.9746 14.4246 61.6946 13.2932 60.8546 12.8217C59.9213 12.256 58.8946 12.6332 58.4279 13.4817Z" fill="#3468A3"/>
<path d="M57.2131 18.9503C56.6531 18.6674 55.9064 18.856 55.6264 19.4217C55.3464 19.9874 55.5331 20.7417 56.0931 21.0246C56.6531 21.3074 57.3998 21.1188 57.6798 20.5531C57.9598 20.0817 57.7731 19.3274 57.2131 18.9503Z" fill="#3468A3"/>
<path d="M54.5063 23.7583C54.133 23.5698 53.6663 23.6641 53.3863 24.0412C53.1996 24.4183 53.293 24.8898 53.6663 25.1726C54.0396 25.4555 54.5063 25.2669 54.7863 24.8898C55.0663 24.4183 54.8796 23.9469 54.5063 23.7583Z" fill="#3468A3"/>
<path d="M56.28 6.31744C57.4934 6.69459 58.8 5.9403 59.1734 4.6203C59.5467 3.39459 58.8 2.07459 57.4934 1.69744C56.28 1.41459 54.9734 2.07459 54.6 3.39459C54.32 4.71459 55.0667 5.9403 56.28 6.31744Z" fill="#4C8DCB"/>
<path d="M54.321 13.767C55.161 14.0499 56.0943 13.4842 56.281 12.6356C56.561 11.787 56.001 10.8442 55.161 10.6556C54.321 10.3728 53.3877 10.9385 53.201 11.787C53.0143 12.6356 53.481 13.4842 54.321 13.767Z" fill="#4C8DCB"/>
<path d="M52.8269 19.6116C53.3869 19.8002 54.0402 19.423 54.1335 18.8573C54.3202 18.2916 53.9469 17.6316 53.3869 17.5373C52.8269 17.3488 52.1735 17.7259 52.0802 18.2916C51.8935 18.8573 52.1735 19.423 52.8269 19.6116Z" fill="#4C8DCB"/>
<path d="M51.0546 23.2891C50.9613 23.6662 51.1479 24.1376 51.6146 24.2319C51.9879 24.3262 52.4546 24.1376 52.5479 23.6662C52.6412 23.2891 52.4546 22.8176 51.9879 22.7234C51.6146 22.6291 51.1479 22.9119 51.0546 23.2891Z" fill="#4C8DCB"/>
<path d="M49.1875 5.18558C50.4008 5.18558 51.4275 4.14844 51.4275 2.92272C51.4275 1.69701 50.4008 0.75415 49.1875 0.75415C47.9742 0.75415 46.9475 1.79129 46.9475 3.01701C47.0408 4.24272 48.0675 5.18558 49.1875 5.18558Z" fill="#3498B3"/>
<path d="M49.1867 9.99414C48.3467 9.99414 47.6934 10.6541 47.6934 11.5027C47.6934 12.3513 48.3467 13.0113 49.1867 13.0113C50.0267 13.0113 50.68 12.3513 50.68 11.5027C50.68 10.6541 50.0267 9.99414 49.1867 9.99414Z" fill="#3498B3"/>
<path d="M50.2135 18.0078C50.2135 17.4421 49.7468 16.9707 49.1868 16.9707C48.6268 16.9707 48.1602 17.4421 48.1602 18.0078C48.1602 18.5736 48.6268 19.045 49.1868 19.045C49.8402 19.045 50.2135 18.5736 50.2135 18.0078Z" fill="#3498B3"/>
<path d="M49.1885 22.4414C48.8152 22.4414 48.5352 22.7243 48.5352 23.1014C48.5352 23.4785 48.8152 23.7614 49.1885 23.7614C49.5618 23.7614 49.8418 23.4785 49.8418 23.1014C49.9352 22.7243 49.5618 22.4414 49.1885 22.4414Z" fill="#3498B3"/>
<path d="M42.0942 6.03529C43.2142 5.75243 43.8675 4.621 43.4942 3.48957C43.2142 2.35815 42.0942 1.69815 40.9742 2.07529C39.8542 2.45243 39.2009 3.48957 39.5742 4.621C39.8542 5.65815 40.9742 6.31815 42.0942 6.03529Z" fill="#0AA496"/>
<path d="M42.4675 12.5396C42.6542 13.2939 43.4008 13.671 44.0542 13.4824C44.8008 13.2939 45.1742 12.5396 44.9875 11.8796C44.8008 11.1253 44.0542 10.7482 43.4008 10.9367C42.6542 11.1253 42.2808 11.7853 42.4675 12.5396Z" fill="#0AA496"/>
<path d="M44.428 18.7619C44.5214 19.3276 45.0814 19.6104 45.548 19.4219C46.108 19.3276 46.388 18.7619 46.2014 18.2904C46.108 17.7247 45.548 17.4419 45.0814 17.6304C44.6147 17.7247 44.3347 18.2904 44.428 18.7619Z" fill="#0AA496"/>
<path d="M46.1063 23.6655C46.1996 23.9484 46.4796 24.137 46.853 24.0427C47.133 23.9484 47.3196 23.6655 47.2263 23.2884C47.133 23.0055 46.853 22.817 46.4796 22.9112C46.1996 23.0055 46.013 23.2884 46.1063 23.6655Z" fill="#0AA496"/>
<path d="M35.3741 8.76862C36.3074 8.20291 36.5874 7.07148 36.1207 6.12862C35.6541 5.18577 34.4407 4.90291 33.5074 5.37434C32.5741 5.94005 32.2941 7.07148 32.7607 8.01434C33.2274 8.9572 34.4407 9.24005 35.3741 8.76862Z" fill="#00AA75"/>
<path d="M39.1059 15.3683C39.6659 15.0854 39.8526 14.3312 39.5726 13.7654C39.2926 13.1997 38.5459 13.0112 37.9859 13.294C37.4259 13.5769 37.2393 14.3312 37.5193 14.8969C37.8926 15.4626 38.5459 15.6512 39.1059 15.3683Z" fill="#00AA75"/>
<path d="M42.281 20.8356C42.7477 20.5528 42.841 20.0814 42.561 19.6099C42.281 19.1385 41.8143 19.0442 41.3477 19.3271C40.881 19.6099 40.7877 20.0814 41.0677 20.5528C41.2543 20.9299 41.8143 21.0242 42.281 20.8356Z" fill="#00AA75"/>
<path d="M44.8 24.2332C44.6134 23.9504 44.3334 23.9504 44.0534 24.0447C43.8667 24.139 43.7734 24.5161 43.8667 24.7047C44.0534 24.9875 44.3334 24.9875 44.52 24.8932C44.8 24.799 44.8934 24.4218 44.8 24.2332Z" fill="#00AA75"/>
<path d="M29.4944 13.1071C30.1477 12.4471 30.1477 11.3157 29.4944 10.5614C28.841 9.90141 27.721 9.90141 26.9744 10.5614C26.321 11.2214 26.321 12.3528 26.9744 13.1071C27.721 13.7671 28.841 13.7671 29.4944 13.1071Z" fill="#4FBA6A"/>
<path d="M34.9066 17.0661C34.5332 16.6889 33.8799 16.6889 33.5066 17.0661C33.1332 17.4432 33.1332 18.1032 33.5066 18.4803C33.8799 18.8575 34.5332 18.8575 34.9066 18.4803C35.2799 18.1032 35.2799 17.4432 34.9066 17.0661Z" fill="#4FBA6A"/>
<path d="M39.2948 21.8743C39.0148 21.5914 38.4548 21.5914 38.1748 21.8743C37.8948 22.1571 37.8948 22.7228 38.1748 23.0057C38.4548 23.2885 39.0148 23.2885 39.2948 23.0057C39.5748 22.7228 39.5748 22.1571 39.2948 21.8743Z" fill="#4FBA6A"/>
<path d="M42.6531 25.7391C42.4665 25.5505 42.1865 25.5505 42.0931 25.7391C41.9065 25.9277 41.9065 26.2105 42.0931 26.3048C42.2798 26.3991 42.5598 26.4934 42.6531 26.3048C42.8398 26.2105 42.8398 25.9277 42.6531 25.7391Z" fill="#4FBA6A"/>
<path d="M22.6788 19.4243C23.4254 19.8957 24.4521 19.6129 24.9188 18.8586C25.3854 18.1043 25.1054 17.0671 24.3588 16.5957C23.6121 16.1243 22.5854 16.4071 22.1188 17.1614C21.6521 17.9157 21.9321 18.9529 22.6788 19.4243Z" fill="#7EC45F"/>
<path d="M31.1724 21.4956C30.7057 21.2127 30.239 21.4013 29.959 21.7784C29.679 22.2499 29.8657 22.7213 30.239 23.0041C30.7057 23.287 31.1724 23.0984 31.4524 22.7213C31.7324 22.2499 31.5457 21.7784 31.1724 21.4956Z" fill="#7EC45F"/>
<path d="M36.7723 24.8912C36.399 24.7026 35.9323 24.7969 35.7457 25.174C35.559 25.5512 35.6523 26.0226 36.0257 26.2112C36.399 26.3997 36.8657 26.3054 37.0523 25.9283C37.239 25.5512 37.0523 25.0797 36.7723 24.8912Z" fill="#7EC45F"/>
<path d="M78.9607 29.416C77.0007 29.416 75.4141 31.0189 75.4141 32.9989C75.4141 34.9789 77.0007 36.5817 78.9607 36.5817C80.9207 36.5817 82.5074 34.9789 82.5074 32.9989C82.5074 31.0189 80.9207 29.416 78.9607 29.416Z" fill="#4C609B"/>
<path d="M73.1728 32.9988C73.1728 31.5846 72.0528 30.4531 70.6528 30.4531C69.2528 30.4531 68.1328 31.5846 68.1328 32.9988C68.1328 34.4131 69.2528 35.5446 70.6528 35.5446C72.0528 35.5446 73.1728 34.4131 73.1728 32.9988Z" fill="#4C609B"/>
<path d="M64.1214 31.3027C63.1881 31.3027 62.4414 32.057 62.4414 32.9999C62.4414 33.9427 63.1881 34.697 64.1214 34.697C65.0547 34.697 65.8014 33.9427 65.8014 32.9999C65.8947 32.057 65.0547 31.3027 64.1214 31.3027Z" fill="#4C609B"/>
<path d="M60.2009 32.9986C60.2009 32.3386 59.7343 31.8672 59.0809 31.8672C58.4276 31.8672 57.9609 32.3386 57.9609 32.9986C57.9609 33.6586 58.4276 34.13 59.0809 34.13C59.7343 34.13 60.2009 33.6586 60.2009 32.9986Z" fill="#54669F"/>
<path d="M78.775 37.6198C77.095 37.1484 75.3217 38.1855 74.855 39.8827C74.3883 41.5798 75.415 43.3712 77.095 43.8427C78.775 44.3141 80.5483 43.277 81.015 41.5798C81.575 39.8827 80.455 38.0913 78.775 37.6198Z" fill="#746FA7"/>
<path d="M69.3463 40.7322C70.4663 41.0151 71.6796 40.3551 72.053 39.1293C72.333 37.9979 71.6796 36.7722 70.4663 36.3951C69.3463 36.1122 68.133 36.7722 67.7596 37.9979C67.4796 39.2236 68.133 40.3551 69.3463 40.7322Z" fill="#746FA7"/>
<path d="M63.187 38.4682C64.027 38.7511 64.9603 38.1854 65.147 37.3368C65.427 36.4882 64.867 35.5454 64.027 35.3568C63.187 35.0739 62.2536 35.6396 62.067 36.4882C61.787 37.3368 62.347 38.1854 63.187 38.4682Z" fill="#746FA7"/>
<path d="M58.4271 36.5818C58.9871 36.7704 59.5471 36.3932 59.6404 35.8275C59.8271 35.2618 59.4537 34.6961 58.8937 34.6018C58.3337 34.4132 57.7737 34.7904 57.6804 35.3561C57.5871 35.8275 57.9604 36.3932 58.4271 36.5818Z" fill="#746FA7"/>
<path d="M76.4393 45.4456C75.0393 44.597 73.2659 45.1627 72.4259 46.577C71.5859 47.9913 72.1459 49.7827 73.5459 50.6313C74.9459 51.4799 76.7193 50.9141 77.5593 49.4999C78.3059 48.0856 77.8393 46.2941 76.4393 45.4456Z" fill="#99558E"/>
<path d="M69.5333 44.7869C70.0933 43.7498 69.8133 42.524 68.7867 41.9583C67.76 41.3926 66.5467 41.6755 65.9867 42.7126C65.4267 43.7498 65.7067 44.9755 66.7334 45.5412C67.76 46.2012 68.9734 45.824 69.5333 44.7869Z" fill="#99558E"/>
<path d="M63.3727 41.2037C63.746 40.4494 63.5594 39.6009 62.8127 39.2237C62.066 38.8466 61.226 39.0352 60.8527 39.7894C60.4793 40.5437 60.666 41.3923 61.4127 41.7694C62.066 42.1466 62.9994 41.958 63.3727 41.2037Z" fill="#99558E"/>
<path d="M58.6123 38.3748C58.8923 37.9033 58.7057 37.3376 58.239 37.0548C57.7723 36.7719 57.2123 36.9605 56.9323 37.4319C56.6523 37.9033 56.839 38.4691 57.3057 38.7519C57.7723 39.0348 58.3323 38.8462 58.6123 38.3748Z" fill="#99558E"/>
<path d="M68.4145 52.3267C67.3879 53.3638 67.3879 55.061 68.4145 56.0981C69.4412 57.1353 71.1212 57.1353 72.1479 56.0981C73.1745 55.061 73.1745 53.3638 72.1479 52.3267C71.1212 51.2895 69.4412 51.2895 68.4145 52.3267Z" fill="#AF3379"/>
<path d="M65.7081 49.5949C66.4547 48.8406 66.4547 47.6149 65.7081 46.8606C64.9614 46.1064 63.7481 46.1064 63.0014 46.8606C62.2547 47.6149 62.2547 48.8406 63.0014 49.5949C63.7481 50.3492 64.9614 50.3492 65.7081 49.5949Z" fill="#AF3379"/>
<path d="M60.6673 44.5031C61.2273 43.9374 61.2273 43.0888 60.6673 42.6174C60.1073 42.0517 59.2673 42.0517 58.8006 42.6174C58.2406 43.1831 58.2406 44.0317 58.8006 44.5031C59.3606 45.0688 60.2006 45.0688 60.6673 44.5031Z" fill="#AF3379"/>
<path d="M55.5342 40.6355C55.9076 41.0127 56.4676 41.0127 56.7476 40.6355C57.1209 40.2584 57.1209 39.6927 56.7476 39.4098C56.3742 39.0327 55.8142 39.0327 55.5342 39.4098C55.2542 39.6927 55.2542 40.2584 55.5342 40.6355Z" fill="#AF3379"/>
<path d="M62.9077 56.7608C61.6944 57.4208 61.321 59.0237 61.9744 60.1551C62.6277 61.3808 64.2144 61.758 65.3344 61.098C66.4544 60.438 66.921 58.8351 66.2677 57.7037C65.6144 56.478 64.0277 56.1008 62.9077 56.7608Z" fill="#BE266A"/>
<path d="M61.4142 50.8187C60.9475 49.9702 59.8275 49.6873 58.9875 50.1587C58.1475 50.6302 57.8675 51.7616 58.3342 52.6102C58.8009 53.4587 59.9208 53.7416 60.7608 53.2702C61.6008 52.7045 61.9742 51.6673 61.4142 50.8187Z" fill="#BE266A"/>
<path d="M57.2134 47.048C57.7734 46.7651 57.96 46.0108 57.68 45.4451C57.4 44.8794 56.6534 44.6908 56.0934 44.9737C55.5334 45.2566 55.3467 46.0108 55.6267 46.5766C56 47.1423 56.6534 47.3308 57.2134 47.048Z" fill="#BE266A"/>
<path d="M53.7608 40.8265C53.3874 41.015 53.2008 41.5808 53.4808 41.9579C53.6674 42.335 54.2274 42.5236 54.6008 42.2407C54.9741 42.0522 55.1608 41.4865 54.8808 41.1093C54.6008 40.7322 54.1341 40.6379 53.7608 40.8265Z" fill="#BE266A"/>
<path d="M56.2798 59.6811C55.0665 60.0582 54.3198 61.2839 54.5998 62.6039C54.9731 63.8296 56.1865 64.5839 57.4931 64.3011C58.7065 63.9239 59.4531 62.6982 59.1731 61.3782C58.8931 60.0582 57.5865 59.3039 56.2798 59.6811Z" fill="#D4525C"/>
<path d="M55.1617 55.3452C56.0017 55.0623 56.5617 54.2137 56.2817 53.3652C56.0017 52.5166 55.1617 51.9509 54.3217 52.2337C53.4817 52.5166 52.9217 53.3652 53.2017 54.2137C53.4817 55.1566 54.3217 55.628 55.1617 55.3452C55.1617 55.4394 55.1617 55.4394 55.1617 55.3452Z" fill="#D4525C"/>
<path d="M54.1331 47.1429C53.9465 46.5772 53.3865 46.2001 52.8265 46.3887C52.2665 46.5772 51.8931 47.1429 52.0798 47.7087C52.2665 48.2744 52.8265 48.6515 53.3865 48.4629C53.9465 48.3687 54.3198 47.8029 54.1331 47.1429C54.1331 47.2372 54.1331 47.2372 54.1331 47.1429Z" fill="#D4525C"/>
<path d="M52.4528 42.334C52.3595 41.9568 51.8928 41.674 51.5195 41.7683C51.1462 41.8626 50.8662 42.334 50.9595 42.7111C51.0528 43.0883 51.4262 43.3711 51.8928 43.2768C52.3595 43.1826 52.5462 42.7111 52.4528 42.334Z" fill="#D4525C"/>
<path d="M49.1873 60.8145C47.9739 60.8145 46.9473 61.8516 46.9473 63.0773C46.9473 64.303 47.9739 65.3402 49.1873 65.3402C50.4006 65.3402 51.4273 64.3973 51.4273 63.0773C51.4273 61.7573 50.4939 60.8145 49.1873 60.8145Z" fill="#E0654F"/>
<path d="M47.7871 54.5926C47.7871 55.4411 48.4404 56.1011 49.2804 56.1011C50.1204 56.1011 50.7738 55.4411 50.7738 54.5926C50.7738 53.744 50.1204 53.084 49.2804 53.084C48.4404 53.084 47.7871 53.744 47.7871 54.5926Z" fill="#E0654F"/>
<path d="M49.1868 49.0274C49.7468 49.0274 50.2135 48.556 50.2135 47.9903C50.2135 47.4246 49.7468 46.9531 49.1868 46.9531C48.6268 46.9531 48.1602 47.4246 48.1602 47.9903C48.2535 48.556 48.6268 49.0274 49.1868 49.0274Z" fill="#E0654F"/>
<path d="M49.1885 42.2402C48.8152 42.2402 48.5352 42.5231 48.5352 42.9002C48.5352 43.2774 48.8152 43.5602 49.1885 43.5602C49.5618 43.5602 49.8418 43.2774 49.8418 42.9002C49.9352 42.5231 49.5618 42.2402 49.1885 42.2402Z" fill="#E0654F"/>
<path d="M42.0928 59.9661C40.9728 59.6832 39.8528 60.3432 39.5728 61.3804C39.2928 62.5118 39.9462 63.6432 40.9728 63.9261C42.0928 64.2089 43.2128 63.5489 43.4928 62.5118C43.7728 61.3804 43.1195 60.2489 42.0928 59.9661Z" fill="#F57F2A"/>
<path d="M44.0539 52.5185C43.3073 52.3299 42.6539 52.8013 42.4673 53.4613C42.2806 54.2156 42.7473 54.8756 43.4006 55.0642C44.1473 55.2527 44.8006 54.7813 44.9873 54.1213C45.1739 53.4613 44.7073 52.707 44.0539 52.5185Z" fill="#F57F2A"/>
<path d="M45.6418 46.4829C45.0818 46.3886 44.6151 46.6715 44.5218 47.1429C44.4285 47.7086 44.7085 48.1801 45.1751 48.2743C45.7351 48.3686 46.2018 48.0858 46.2951 47.6143C46.4818 47.2372 46.1085 46.6715 45.6418 46.4829Z" fill="#F57F2A"/>
<path d="M47.2263 42.7124C47.3196 42.4295 47.133 42.0524 46.853 41.9581C46.573 41.8638 46.1996 42.0524 46.1063 42.3353C46.013 42.6181 46.1996 42.9953 46.4796 43.0895C46.853 43.1838 47.2263 42.9953 47.2263 42.7124Z" fill="#F57F2A"/>
<path d="M35.3738 57.2299C34.4404 56.6642 33.3204 57.0414 32.7604 57.8899C32.2004 58.8328 32.5738 59.9642 33.4138 60.5299C34.3471 61.0956 35.4671 60.7185 36.0271 59.8699C36.5871 59.0214 36.2138 57.7956 35.3738 57.2299Z" fill="#F89828"/>
<path d="M39.1059 50.6319C38.5459 50.349 37.7993 50.5376 37.5193 51.1033C37.2393 51.669 37.4259 52.4233 37.9859 52.7062C38.5459 52.9891 39.2926 52.8005 39.5726 52.2348C39.8526 51.6691 39.6659 50.9148 39.1059 50.6319Z" fill="#F89828"/>
<path d="M41.3484 46.7659C41.8151 47.0487 42.2817 46.8601 42.5617 46.483C42.8417 46.1059 42.6551 45.5401 42.2817 45.2573C41.8151 44.9744 41.3484 45.163 41.0684 45.5401C40.7884 45.9173 40.9751 46.483 41.3484 46.7659Z" fill="#F89828"/>
<path d="M44.6137 41.1079C44.3337 40.9193 44.0537 41.0136 43.9604 41.2964C43.7737 41.5793 43.8671 41.8622 44.1471 41.9564C44.4271 42.145 44.7071 42.0507 44.8004 41.7679C44.8937 41.5793 44.8004 41.2022 44.6137 41.1079Z" fill="#F89828"/>
<path d="M26.9724 52.8934C26.3191 53.5534 26.3191 54.6849 26.9724 55.4392C27.6258 56.1934 28.7458 56.0992 29.4924 55.4392C30.1458 54.7792 30.1458 53.6477 29.4924 52.8934C28.8391 52.2334 27.7191 52.2334 26.9724 52.8934Z" fill="#FEC127"/>
<path d="M33.4128 47.5196C33.0395 47.8967 33.0395 48.5567 33.4128 48.9339C33.7861 49.311 34.4395 49.311 34.8128 48.9339C35.1861 48.5567 35.1861 47.8967 34.8128 47.5196C34.4395 47.0482 33.7861 47.0482 33.4128 47.5196Z" fill="#FEC127"/>
<path d="M38.1748 42.9938C37.8948 43.2767 37.8948 43.8424 38.1748 44.1252C38.4548 44.4081 39.0148 44.4081 39.2948 44.1252C39.5748 43.8424 39.5748 43.2767 39.2948 42.9938C39.0148 42.6167 38.4548 42.6167 38.1748 42.9938Z" fill="#FEC127"/>
<path d="M42.6531 39.6004C42.4665 39.4118 42.1865 39.4118 42.0931 39.6004C41.9065 39.789 41.9065 40.0718 42.0931 40.1661C42.2798 40.3547 42.5598 40.3547 42.6531 40.1661C42.8398 40.0718 42.8398 39.789 42.6531 39.6004Z" fill="#FEC127"/>
<path d="M22.6788 46.5762C21.9321 47.0476 21.6521 47.9905 22.1188 48.839C22.5854 49.5933 23.5188 49.8762 24.3588 49.4048C25.1054 48.9333 25.3854 47.9905 24.9188 47.1419C24.4521 46.3876 23.5188 46.1048 22.6788 46.5762Z" fill="#FED627"/>
<path d="M30.3328 42.9936C29.9594 43.2765 29.7728 43.7479 30.0528 44.2193C30.3328 44.5965 30.7994 44.785 31.2661 44.5022C31.6394 44.2193 31.8261 43.7479 31.5461 43.2765C31.2661 42.8993 30.7061 42.7108 30.3328 42.9936Z" fill="#FED627"/>
<path d="M36.0257 39.7896C35.6523 39.9782 35.559 40.4496 35.7457 40.8267C35.9323 41.2039 36.399 41.2982 36.7723 41.1096C37.1457 40.921 37.239 40.4496 37.0523 40.0725C36.7723 39.6953 36.399 39.601 36.0257 39.7896Z" fill="#FED627"/>
<path d="M19.4122 27.8129H22.0255V37.8071H19.4122V27.8129ZM20.9989 23.3814C20.1589 23.1929 19.4122 23.6643 19.1322 24.4186C18.8522 25.1729 19.4122 26.0214 20.1589 26.3043C20.9055 26.5871 21.7455 26.0214 22.0255 25.2671C22.3055 24.4186 21.8389 23.57 20.9989 23.3814ZM29.9589 38.09C29.3055 38.09 28.7455 37.9957 28.0922 37.7129C27.5322 37.43 27.1589 37.1471 26.7855 36.6757V42.8986H24.2655V27.8129H26.7855V29.2271C27.0655 28.7557 27.5322 28.3786 28.0922 28.0957C28.6522 27.8129 29.3055 27.6243 29.9589 27.6243C30.6122 27.6243 31.1722 27.7186 31.7322 28.0014C32.2922 28.2843 32.8522 28.5671 33.2255 29.0386C33.6922 29.51 34.0655 30.0757 34.2522 30.7357C34.5322 31.3957 34.6255 32.15 34.6255 32.9043C34.6255 33.6586 34.5322 34.4129 34.2522 35.0729C33.9722 35.6386 33.5989 36.2043 33.1322 36.77C32.3855 37.6186 31.2655 38.09 29.9589 38.09ZM29.4922 35.6386C29.8655 35.6386 30.2389 35.5443 30.6122 35.45C30.8922 35.2614 31.2655 35.0729 31.4522 34.8843C31.7322 34.6014 31.9189 34.3186 32.0122 34.0357C32.2922 33.2814 32.2922 32.5271 32.0122 31.7729C31.9189 31.49 31.6389 31.1129 31.4522 30.9243C31.1722 30.6414 30.8922 30.4529 30.6122 30.3586C30.2389 30.17 29.8655 30.17 29.4922 30.17C28.7455 30.17 28.0922 30.4529 27.5322 31.0186C27.2522 31.3014 27.0655 31.5843 26.9722 31.8671C26.6922 32.6214 26.6922 33.3757 26.9722 34.0357C27.0655 34.3186 27.2522 34.6957 27.5322 34.8843C27.9989 35.3557 28.7455 35.6386 29.4922 35.6386ZM36.5855 27.8129H39.1055V29.3214C39.2922 28.7557 39.6655 28.2843 40.2255 28.0014C40.7855 27.7186 41.3455 27.53 41.9055 27.6243C42.1855 27.6243 42.5589 27.6243 42.8389 27.7186C43.1189 27.8129 43.3989 27.9071 43.5855 28.0014L42.6522 30.5471C42.4655 30.4529 42.2789 30.3586 42.0922 30.2643C41.8122 30.17 41.5322 30.17 41.3455 30.17C40.7855 30.17 40.2255 30.3586 39.7589 30.7357C39.3855 31.1129 39.1989 31.6786 39.1989 32.5271V37.8071H36.6789L36.5855 27.8129ZM49.0922 38.09C48.3455 38.09 47.6922 37.9957 47.0389 37.7129C46.3855 37.43 45.8255 37.0529 45.3589 36.5814C44.4255 35.6386 43.8655 34.3186 43.8655 32.9043C43.8655 32.2443 43.9589 31.49 44.2389 30.83C44.5189 30.17 44.8922 29.6043 45.3589 29.1329C47.4122 27.0586 50.7722 27.0586 52.8255 29.1329C53.7589 30.0757 54.3189 31.3957 54.3189 32.81C54.3189 33.47 54.2255 34.2243 53.9455 34.79C53.6655 35.45 53.2922 36.0157 52.8255 36.4871C52.3589 36.9586 51.7989 37.3357 51.1455 37.6186C50.5855 37.9014 49.8389 38.09 49.0922 38.09ZM49.1855 35.6386C49.5589 35.6386 49.9322 35.5443 50.3055 35.45C50.5855 35.2614 50.8655 35.0729 51.1455 34.8843C51.4255 34.6014 51.6122 34.3186 51.7055 34.0357C51.9855 33.2814 51.9855 32.5271 51.7055 31.8671C51.6122 31.5843 51.4255 31.2071 51.1455 31.0186C50.8655 30.7357 50.5855 30.5471 50.3055 30.4529C49.6522 30.17 48.8122 30.17 48.1589 30.4529C47.8789 30.6414 47.5989 30.83 47.3189 31.0186C47.0389 31.3014 46.8522 31.5843 46.7589 31.8671C46.4789 32.6214 46.4789 33.3757 46.7589 34.0357C46.8522 34.3186 47.0389 34.6957 47.3189 34.8843C47.5989 35.0729 47.8789 35.3557 48.1589 35.45C48.4389 35.5443 48.8122 35.6386 49.1855 35.6386ZM1.49219 27.8129H4.10552L6.06552 34.2243L8.39885 27.8129H10.6389L12.9722 34.2243L15.0255 27.8129H17.6389L14.2789 37.8071H11.8522L9.51885 31.3014L7.09219 37.8071H4.66552L1.49219 27.8129Z" fill="#351A55"/>
</svg>
