<svg width="132" height="60" viewBox="0 0 132 60" fill="none" xmlns="http://www.w3.org/2000/svg">
<path d="M96.0479 23.7427C96.4722 25.2855 98.0843 26.2284 99.6116 25.7998C101.139 25.3712 102.072 23.7427 101.648 22.1998C101.224 20.657 99.6116 19.7141 98.0843 20.1427C96.557 20.4855 95.6237 22.1141 96.0479 23.7427Z" fill="#2A4C87"/>
<path d="M92.0609 26.8291C93.079 26.572 93.7578 25.4577 93.5033 24.3434C93.2487 23.3148 92.1457 22.6291 91.0427 22.8863C90.0245 23.1434 89.3457 24.2577 89.6002 25.372C89.8548 26.4863 90.9578 27.172 92.0609 26.8291Z" fill="#2A4C87"/>
<path d="M86.2064 27.8564C86.97 27.5993 87.4791 26.8278 87.2246 26.0564C86.97 25.285 86.2064 24.7707 85.4427 25.0278C84.6791 25.285 84.17 26.0564 84.4246 26.8278C84.5942 27.5993 85.4427 28.1135 86.2064 27.8564Z" fill="#2A4C87"/>
<path d="M81.6264 28.6287C82.1355 28.4573 82.3901 27.943 82.3052 27.5145C82.2204 27.0002 81.6264 26.743 81.2022 26.8287C80.6931 27.0002 80.4386 27.5145 80.5234 27.943C80.6083 28.3716 81.1173 28.7145 81.6264 28.6287Z" fill="#2E4E88"/>
<path d="M93.843 17.7435C94.6067 19.0292 96.2188 19.4578 97.4915 18.7721C98.7643 18.0007 99.1885 16.3721 98.5097 15.0864C97.7461 13.8007 96.134 13.3721 94.8612 14.0578C93.5885 14.7435 93.1643 16.4578 93.843 17.7435Z" fill="#1F3D70"/>
<path d="M87.9871 21.0857C88.4962 22.0286 89.5992 22.2857 90.5326 21.7715C91.4659 21.2572 91.7205 20.1429 91.2114 19.2C90.7023 18.2572 89.5992 18 88.6659 18.5143C87.8174 19.0286 87.478 20.2286 87.9871 21.0857Z" fill="#1F3D70"/>
<path d="M83.8297 22.0289C83.1509 22.3717 82.9812 23.2288 83.3206 23.8288C83.66 24.5146 84.5085 24.686 85.1024 24.3431C85.7812 24.0003 85.9509 23.1431 85.6115 22.5431C85.2721 21.8574 84.4236 21.686 83.8297 22.0289Z" fill="#1F3D70"/>
<path d="M80.0958 24.7693C79.6716 25.0264 79.5019 25.5407 79.7564 25.9693C80.011 26.3978 80.5201 26.5693 80.9443 26.3121C81.3686 26.055 81.5383 25.5407 81.2837 25.1121C81.0292 24.6835 80.4352 24.5121 80.0958 24.7693Z" fill="#1F3D70"/>
<path d="M93.5888 12.4316C94.5221 11.4888 94.5221 9.9459 93.5888 9.00304C92.6555 8.06018 91.1282 8.06018 90.1949 9.00304C89.2615 9.9459 89.2615 11.4888 90.1949 12.4316C91.1282 13.3745 92.6555 13.3745 93.5888 12.4316Z" fill="#194C88"/>
<path d="M87.7345 14.9157C87.0557 14.2299 85.9527 14.2299 85.2739 14.9157C84.5951 15.6014 84.5951 16.7157 85.2739 17.4014C85.9527 18.0871 87.0557 18.0871 87.7345 17.4014C88.4133 16.7157 88.4133 15.6014 87.7345 14.9157Z" fill="#194C88"/>
<path d="M81.4552 19.5439C80.9462 20.0582 80.9462 20.8296 81.4552 21.2582C81.9643 21.7725 82.728 21.7725 83.1522 21.2582C83.6613 20.7439 83.6613 19.9725 83.1522 19.5439C82.728 19.0296 81.9643 19.0296 81.4552 19.5439Z" fill="#194C88"/>
<path d="M78.4856 24.1722C78.825 24.5151 79.3341 24.5151 79.5886 24.1722C79.928 23.8294 79.928 23.3151 79.5886 23.0579C79.2492 22.7151 78.7401 22.7151 78.4856 23.0579C78.231 23.4008 78.231 23.9151 78.4856 24.1722Z" fill="#194C88"/>
<path d="M85.1874 8.40004C86.2904 9.00004 87.648 8.65718 88.2419 7.54289C88.8359 6.42861 88.4965 5.05718 87.3935 4.45718C86.2904 3.85718 84.9329 4.20004 84.3389 5.31432C83.6601 6.34289 84.0844 7.71432 85.1874 8.40004Z" fill="#3468A3"/>
<path d="M81.1162 12.2586C80.6919 13.03 80.9465 14.0586 81.7101 14.4872C82.4738 14.9157 83.4919 14.6586 83.9162 13.8872C84.3404 13.1157 84.0859 12.0872 83.3222 11.6586C82.4738 11.1443 81.5404 11.4872 81.1162 12.2586Z" fill="#3468A3"/>
<path d="M80.0121 17.2275C79.503 16.9704 78.8242 17.1418 78.5696 17.6561C78.3151 18.1704 78.4848 18.8561 78.9939 19.1132C79.503 19.3704 80.1818 19.1989 80.4363 18.6847C80.6909 18.2561 80.5212 17.5704 80.0121 17.2275Z" fill="#3468A3"/>
<path d="M77.551 21.6004C77.2116 21.4289 76.7873 21.5146 76.5328 21.8575C76.3631 22.2004 76.4479 22.6289 76.7873 22.8861C77.1267 23.1432 77.551 22.9718 77.8055 22.6289C78.0601 22.2004 77.8904 21.7718 77.551 21.6004Z" fill="#3468A3"/>
<path d="M79.1634 5.74411C80.2664 6.08696 81.4543 5.40125 81.7937 4.20125C82.1331 3.08696 81.4543 1.88696 80.2664 1.54411C79.1634 1.28696 77.9755 1.88696 77.6361 3.08696C77.3816 4.28696 78.0604 5.40125 79.1634 5.74411Z" fill="#4C8DCB"/>
<path d="M77.3825 12.5156C78.1461 12.7727 78.9946 12.2584 79.1643 11.487C79.4188 10.7156 78.9097 9.85844 78.1461 9.68701C77.3825 9.42986 76.534 9.94415 76.3643 10.7156C76.1946 11.487 76.6188 12.2584 77.3825 12.5156Z" fill="#4C8DCB"/>
<path d="M76.0242 17.8297C76.5332 18.0011 77.1272 17.6583 77.212 17.144C77.3817 16.6297 77.0423 16.0297 76.5333 15.944C76.0242 15.7726 75.4302 16.1154 75.3454 16.6297C75.1757 17.144 75.4302 17.6583 76.0242 17.8297Z" fill="#4C8DCB"/>
<path d="M74.4132 21.1745C74.3283 21.5173 74.498 21.9459 74.9223 22.0316C75.2617 22.1173 75.6859 21.9459 75.7708 21.5173C75.8556 21.1745 75.6859 20.7459 75.2617 20.6602C74.9223 20.5745 74.498 20.8316 74.4132 21.1745Z" fill="#4C8DCB"/>
<path d="M72.7157 4.71509C73.8188 4.71509 74.7521 3.77224 74.7521 2.65795C74.7521 1.54367 73.8188 0.686523 72.7157 0.686523C71.6127 0.686523 70.6794 1.62938 70.6794 2.74367C70.7642 3.85795 71.6976 4.71509 72.7157 4.71509Z" fill="#3498B3"/>
<path d="M72.715 9.08691C71.9514 9.08691 71.3574 9.68691 71.3574 10.4583C71.3574 11.2298 71.9514 11.8298 72.715 11.8298C73.4786 11.8298 74.0726 11.2298 74.0726 10.4583C74.0726 9.68691 73.4786 9.08691 72.715 9.08691Z" fill="#3498B3"/>
<path d="M73.6482 16.3725C73.6482 15.8583 73.224 15.4297 72.7149 15.4297C72.2058 15.4297 71.7816 15.8583 71.7816 16.3725C71.7816 16.8868 72.2058 17.3154 72.7149 17.3154C73.3088 17.3154 73.6482 16.8868 73.6482 16.3725Z" fill="#3498B3"/>
<path d="M72.7169 20.4014C72.3775 20.4014 72.1229 20.6585 72.1229 21.0014C72.1229 21.3442 72.3775 21.6014 72.7169 21.6014C73.0563 21.6014 73.3108 21.3442 73.3108 21.0014C73.3957 20.6585 73.0563 20.4014 72.7169 20.4014Z" fill="#3498B3"/>
<path d="M66.2673 5.48689C67.2855 5.22975 67.8794 4.20118 67.54 3.17261C67.2855 2.14404 66.2673 1.54404 65.2491 1.88689C64.2309 2.22975 63.637 3.17261 63.9764 4.20118C64.2309 5.14404 65.2491 5.74404 66.2673 5.48689Z" fill="#0AA496"/>
<path d="M66.6066 11.4002C66.7763 12.086 67.4551 12.4288 68.049 12.2574C68.7278 12.086 69.0672 11.4002 68.8975 10.8002C68.7278 10.1145 68.049 9.77167 67.4551 9.9431C66.7763 10.1145 66.4369 10.7145 66.6066 11.4002Z" fill="#0AA496"/>
<path d="M68.3891 17.057C68.4739 17.5713 68.983 17.8285 69.4072 17.657C69.9163 17.5713 70.1709 17.057 70.0012 16.6285C69.9163 16.1142 69.4072 15.857 68.983 16.0285C68.5588 16.1142 68.3042 16.6285 68.3891 17.057Z" fill="#0AA496"/>
<path d="M69.9148 21.5127C69.9996 21.7698 70.2542 21.9413 70.5936 21.8556C70.8481 21.7698 71.0178 21.5127 70.933 21.1698C70.8481 20.9127 70.5936 20.7413 70.2542 20.827C69.9996 20.9127 69.8299 21.1698 69.9148 21.5127Z" fill="#0AA496"/>
<path d="M60.1581 7.9729C61.0066 7.45861 61.2611 6.43004 60.8369 5.5729C60.4126 4.71575 59.3096 4.45861 58.4611 4.88718C57.6126 5.40147 57.3581 6.43004 57.7823 7.28718C58.2066 8.14433 59.3096 8.40147 60.1581 7.9729Z" fill="#00AA75"/>
<path d="M63.5509 13.9706C64.06 13.7135 64.2297 13.0278 63.9752 12.5135C63.7206 11.9992 63.0419 11.8278 62.5328 12.0849C62.0237 12.3421 61.854 13.0278 62.1085 13.5421C62.4479 14.0564 63.0419 14.2278 63.5509 13.9706Z" fill="#00AA75"/>
<path d="M66.4371 18.9448C66.8614 18.6876 66.9462 18.2591 66.6917 17.8305C66.4371 17.4019 66.0129 17.3162 65.5886 17.5734C65.1644 17.8305 65.0796 18.2591 65.3341 18.6876C65.5038 19.0305 66.0129 19.1162 66.4371 18.9448Z" fill="#00AA75"/>
<path d="M68.7273 22.0313C68.5576 21.7741 68.303 21.7741 68.0485 21.8599C67.8788 21.9456 67.794 22.2884 67.8788 22.4599C68.0485 22.717 68.303 22.717 68.4727 22.6313C68.7273 22.5456 68.8121 22.2027 68.7273 22.0313Z" fill="#00AA75"/>
<path d="M54.8131 11.9166C55.4071 11.3166 55.4071 10.2881 54.8131 9.60234C54.2192 9.00234 53.201 9.00234 52.5222 9.60234C51.9283 10.2023 51.9283 11.2309 52.5222 11.9166C53.201 12.5166 54.2192 12.5166 54.8131 11.9166Z" fill="#4FBA6A"/>
<path d="M59.7331 15.515C59.3937 15.1721 58.7997 15.1721 58.4604 15.515C58.121 15.8578 58.121 16.4578 58.4604 16.8007C58.7997 17.1435 59.3937 17.1435 59.7331 16.8007C60.0725 16.4578 60.0725 15.8578 59.7331 15.515Z" fill="#4FBA6A"/>
<path d="M63.7226 19.8862C63.468 19.6291 62.9589 19.6291 62.7044 19.8862C62.4499 20.1434 62.4499 20.6576 62.7044 20.9148C62.9589 21.1719 63.468 21.1719 63.7226 20.9148C63.9771 20.6576 63.9771 20.1434 63.7226 19.8862Z" fill="#4FBA6A"/>
<path d="M66.7756 23.401C66.6059 23.2296 66.3513 23.2296 66.2665 23.401C66.0968 23.5725 66.0968 23.8296 66.2665 23.9153C66.4362 24.001 66.6907 24.0867 66.7756 23.9153C66.9453 23.8296 66.9453 23.5725 66.7756 23.401Z" fill="#4FBA6A"/>
<path d="M48.6169 17.6608C49.2957 18.0894 50.229 17.8323 50.6533 17.1465C51.0775 16.4608 50.8229 15.518 50.1442 15.0894C49.4654 14.6608 48.532 14.918 48.1078 15.6037C47.6836 16.2894 47.9381 17.2323 48.6169 17.6608Z" fill="#7EC45F"/>
<path d="M56.3384 19.5447C55.9141 19.2876 55.4899 19.459 55.2354 19.8019C54.9808 20.2304 55.1505 20.659 55.4899 20.9161C55.9141 21.1733 56.3384 21.0019 56.5929 20.659C56.8475 20.2304 56.6778 19.8019 56.3384 19.5447Z" fill="#7EC45F"/>
<path d="M61.4292 22.6287C61.0898 22.4573 60.6656 22.543 60.4959 22.8858C60.3262 23.2287 60.411 23.6573 60.7504 23.8287C61.0898 24.0001 61.514 23.9144 61.6837 23.5715C61.8534 23.2287 61.6837 22.8001 61.4292 22.6287Z" fill="#7EC45F"/>
<path d="M99.7825 26.7422C98.0007 26.7422 96.5583 28.1993 96.5583 29.9993C96.5583 31.7993 98.0007 33.2565 99.7825 33.2565C101.564 33.2565 103.007 31.7993 103.007 29.9993C103.007 28.1993 101.564 26.7422 99.7825 26.7422Z" fill="#4C609B"/>
<path d="M94.5207 29.9998C94.5207 28.7141 93.5025 27.6855 92.2298 27.6855C90.9571 27.6855 89.9389 28.7141 89.9389 29.9998C89.9389 31.2855 90.9571 32.3141 92.2298 32.3141C93.5025 32.3141 94.5207 31.2855 94.5207 29.9998Z" fill="#4C609B"/>
<path d="M86.2921 28.457C85.4436 28.457 84.7648 29.1427 84.7648 29.9999C84.7648 30.857 85.4436 31.5427 86.2921 31.5427C87.1406 31.5427 87.8194 30.857 87.8194 29.9999C87.9042 29.1427 87.1406 28.457 86.2921 28.457Z" fill="#4C609B"/>
<path d="M82.7278 30.0012C82.7278 29.4012 82.3036 28.9727 81.7096 28.9727C81.1157 28.9727 80.6915 29.4012 80.6915 30.0012C80.6915 30.6012 81.1157 31.0298 81.7096 31.0298C82.3036 31.0298 82.7278 30.6012 82.7278 30.0012Z" fill="#54669F"/>
<path d="M99.6136 34.2013C98.0864 33.7727 96.4742 34.7155 96.05 36.2584C95.6258 37.8013 96.5591 39.4298 98.0864 39.8584C99.6136 40.287 101.226 39.3441 101.65 37.8013C102.159 36.2584 101.141 34.6298 99.6136 34.2013Z" fill="#746FA7"/>
<path d="M91.042 37.0293C92.0602 37.2864 93.1632 36.6864 93.5026 35.5721C93.7572 34.5436 93.1632 33.4293 92.0602 33.0864C91.042 32.8293 89.939 33.4293 89.5996 34.5436C89.3451 35.6578 89.939 36.6864 91.042 37.0293Z" fill="#746FA7"/>
<path d="M85.4427 34.9716C86.2064 35.2288 87.0549 34.7145 87.2246 33.9431C87.4791 33.1716 86.97 32.3145 86.2064 32.1431C85.4427 31.8859 84.5942 32.4002 84.4246 33.1716C84.17 33.9431 84.6791 34.7145 85.4427 34.9716Z" fill="#746FA7"/>
<path d="M81.1155 33.2567C81.6246 33.4281 82.1336 33.0853 82.2185 32.571C82.3882 32.0567 82.0488 31.5424 81.5397 31.4567C81.0306 31.2853 80.5215 31.6281 80.4367 32.1424C80.3518 32.571 80.6912 33.0853 81.1155 33.2567Z" fill="#746FA7"/>
<path d="M97.4901 41.3156C96.2174 40.5441 94.6053 41.0584 93.8416 42.3441C93.078 43.6299 93.5871 45.2584 94.8598 46.0299C96.1326 46.8013 97.7447 46.287 98.5083 45.0013C99.1871 43.7156 98.7629 42.087 97.4901 41.3156Z" fill="#99558E"/>
<path d="M91.2119 40.7156C91.721 39.7728 91.4664 38.6585 90.5331 38.1442C89.5998 37.6299 88.4967 37.8871 87.9876 38.8299C87.4785 39.7728 87.7331 40.8871 88.6664 41.4013C89.5998 42.0013 90.7028 41.6585 91.2119 40.7156Z" fill="#99558E"/>
<path d="M85.6115 37.4587C85.9509 36.773 85.7812 36.0016 85.1024 35.6587C84.4236 35.3159 83.66 35.4873 83.3206 36.173C82.9812 36.8587 83.1509 37.6302 83.8297 37.973C84.4236 38.3159 85.2721 38.1444 85.6115 37.4587Z" fill="#99558E"/>
<path d="M81.2837 34.8862C81.5383 34.4577 81.3686 33.9434 80.9443 33.6862C80.5201 33.4291 80.011 33.6005 79.7564 34.0291C79.5019 34.4577 79.6716 34.972 80.0958 35.2291C80.5201 35.4862 81.0292 35.3148 81.2837 34.8862Z" fill="#99558E"/>
<path d="M90.1949 47.5714C89.2615 48.5143 89.2615 50.0571 90.1949 51C91.1282 51.9428 92.6555 51.9428 93.5888 51C94.5221 50.0571 94.5221 48.5143 93.5888 47.5714C92.6555 46.6285 91.1282 46.6285 90.1949 47.5714Z" fill="#AF3379"/>
<path d="M87.7345 45.0898C88.4133 44.4041 88.4133 43.2898 87.7345 42.6041C87.0557 41.9184 85.9527 41.9184 85.2739 42.6041C84.5951 43.2898 84.5951 44.4041 85.2739 45.0898C85.9527 45.7756 87.0557 45.7756 87.7345 45.0898Z" fill="#AF3379"/>
<path d="M83.1517 40.4574C83.6608 39.9431 83.6608 39.1717 83.1517 38.7431C82.6426 38.2289 81.879 38.2289 81.4548 38.7431C80.9457 39.2574 80.9457 40.0289 81.4548 40.4574C81.9638 40.9717 82.7275 40.9717 83.1517 40.4574Z" fill="#AF3379"/>
<path d="M78.4856 36.9417C78.825 37.2846 79.3341 37.2846 79.5886 36.9417C79.928 36.5989 79.928 36.0846 79.5886 35.8275C79.2492 35.4846 78.7401 35.4846 78.4856 35.8275C78.231 36.0846 78.231 36.5989 78.4856 36.9417Z" fill="#AF3379"/>
<path d="M85.1885 51.6007C84.0855 52.2007 83.7461 53.6579 84.34 54.6864C84.934 55.8007 86.3764 56.1436 87.3946 55.5436C88.4128 54.9436 88.837 53.4864 88.2431 52.4579C87.6491 51.3436 86.2067 51.0007 85.1885 51.6007Z" fill="#BE266A"/>
<path d="M83.8311 46.1981C83.4069 45.4266 82.3887 45.1695 81.625 45.5981C80.8614 46.0266 80.6069 47.0552 81.0311 47.8266C81.4553 48.5981 82.4735 48.8552 83.2372 48.4266C84.0008 47.9123 84.3402 46.9695 83.8311 46.1981Z" fill="#BE266A"/>
<path d="M80.0123 42.7734C80.5214 42.5162 80.6911 41.8305 80.4366 41.3162C80.182 40.802 79.5032 40.6305 78.9941 40.8877C78.485 41.1448 78.3153 41.8305 78.5699 42.3448C78.9093 42.8591 79.5032 43.0305 80.0123 42.7734Z" fill="#BE266A"/>
<path d="M76.8737 37.115C76.5343 37.2864 76.3646 37.8007 76.6191 38.1436C76.7888 38.4864 77.2979 38.6579 77.6373 38.4007C77.9767 38.2293 78.1464 37.715 77.8919 37.3722C77.6373 37.0293 77.2131 36.9436 76.8737 37.115Z" fill="#BE266A"/>
<path d="M79.1632 54.2562C78.0601 54.5991 77.3813 55.7134 77.6359 56.9134C77.9753 58.0277 79.0783 58.7134 80.2662 58.4562C81.3692 58.1134 82.048 56.9991 81.7935 55.7991C81.5389 54.5991 80.351 53.9134 79.1632 54.2562Z" fill="#D4525C"/>
<path d="M78.147 50.3164C78.9107 50.0592 79.4198 49.2878 79.1652 48.5164C78.9107 47.7449 78.147 47.2306 77.3834 47.4878C76.6198 47.7449 76.1107 48.5164 76.3652 49.2878C76.6198 50.1449 77.3834 50.5735 78.147 50.3164C78.147 50.4021 78.147 50.4021 78.147 50.3164Z" fill="#D4525C"/>
<path d="M77.2118 42.8592C77.0421 42.3449 76.533 42.0021 76.024 42.1735C75.5149 42.3449 75.1755 42.8592 75.3452 43.3735C75.5149 43.8878 76.024 44.2306 76.533 44.0592C77.0421 43.9735 77.3815 43.4592 77.2118 42.8592C77.2118 42.9449 77.2118 42.9449 77.2118 42.8592Z" fill="#D4525C"/>
<path d="M75.6843 38.487C75.5994 38.1441 75.1752 37.887 74.8358 37.9727C74.4964 38.0584 74.2418 38.487 74.3267 38.8298C74.4115 39.1727 74.7509 39.4298 75.1752 39.3441C75.5994 39.2584 75.7691 38.8298 75.6843 38.487Z" fill="#D4525C"/>
<path d="M72.7155 55.2871C71.6125 55.2871 70.6791 56.23 70.6791 57.3443C70.6791 58.4585 71.6125 59.4014 72.7155 59.4014C73.8185 59.4014 74.7519 58.5443 74.7519 57.3443C74.7519 56.1443 73.9034 55.2871 72.7155 55.2871Z" fill="#E0654F"/>
<path d="M71.4428 49.6302C71.4428 50.4016 72.0367 51.0016 72.8004 51.0016C73.564 51.0016 74.158 50.4016 74.158 49.6302C74.158 48.8588 73.564 48.2588 72.8004 48.2588C72.0367 48.2588 71.4428 48.8588 71.4428 49.6302Z" fill="#E0654F"/>
<path d="M72.7149 44.5713C73.224 44.5713 73.6482 44.1427 73.6482 43.6284C73.6482 43.1141 73.224 42.6855 72.7149 42.6855C72.2058 42.6855 71.7816 43.1141 71.7816 43.6284C71.8664 44.1427 72.2058 44.5713 72.7149 44.5713Z" fill="#E0654F"/>
<path d="M72.7169 38.4023C72.3775 38.4023 72.1229 38.6595 72.1229 39.0023C72.1229 39.3452 72.3775 39.6023 72.7169 39.6023C73.0563 39.6023 73.3108 39.3452 73.3108 39.0023C73.3957 38.6595 73.0563 38.4023 72.7169 38.4023Z" fill="#E0654F"/>
<path d="M66.2662 54.5168C65.248 54.2596 64.2299 54.8596 63.9753 55.8025C63.7208 56.831 64.3147 57.8596 65.248 58.1168C66.2662 58.3739 67.2844 57.7739 67.539 56.831C67.7935 55.8025 67.1996 54.7739 66.2662 54.5168Z" fill="#F57F2A"/>
<path d="M68.0489 47.7441C67.3701 47.5727 66.7762 48.0013 66.6065 48.6013C66.4368 49.287 66.861 49.887 67.455 50.0584C68.1338 50.2299 68.7277 49.8013 68.8974 49.2013C69.0671 48.6013 68.6429 47.9156 68.0489 47.7441Z" fill="#F57F2A"/>
<path d="M69.4926 42.2586C68.9835 42.1729 68.5593 42.43 68.4744 42.8586C68.3896 43.3729 68.6441 43.8015 69.0684 43.8872C69.5775 43.9729 70.0017 43.7158 70.0866 43.2872C70.2563 42.9443 69.9169 42.43 69.4926 42.2586Z" fill="#F57F2A"/>
<path d="M70.933 38.8291C71.0178 38.572 70.8481 38.2291 70.5936 38.1434C70.339 38.0577 69.9996 38.2291 69.9148 38.4862C69.8299 38.7434 69.9996 39.0862 70.2542 39.172C70.5936 39.2577 70.933 39.0862 70.933 38.8291Z" fill="#F57F2A"/>
<path d="M60.1577 52.0287C59.3093 51.5144 58.2911 51.8573 57.782 52.6287C57.2729 53.4859 57.6123 54.5144 58.3759 55.0287C59.2244 55.543 60.2426 55.2001 60.7517 54.4287C61.2608 53.6573 60.9214 52.543 60.1577 52.0287Z" fill="#F89828"/>
<path d="M63.5509 46.0312C63.0419 45.7741 62.3631 45.9455 62.1085 46.4598C61.854 46.9741 62.0237 47.6598 62.5328 47.9169C63.0419 48.1741 63.7206 48.0027 63.9752 47.4884C64.2297 46.9741 64.06 46.2884 63.5509 46.0312Z" fill="#F89828"/>
<path d="M65.5894 42.5148C66.0137 42.7719 66.4379 42.6005 66.6925 42.2576C66.947 41.9148 66.7773 41.4005 66.4379 41.1433C66.0137 40.8862 65.5894 41.0576 65.3349 41.4005C65.0804 41.7433 65.2501 42.2576 65.5894 42.5148Z" fill="#F89828"/>
<path d="M68.558 37.3743C68.3035 37.2029 68.0489 37.2886 67.9641 37.5458C67.7944 37.8029 67.8792 38.0601 68.1338 38.1458C68.3883 38.3172 68.6429 38.2315 68.7277 37.9743C68.8126 37.8029 68.7277 37.4601 68.558 37.3743Z" fill="#F89828"/>
<path d="M52.5204 48.0857C51.9265 48.6857 51.9265 49.7143 52.5204 50.4C53.1143 51.0857 54.1325 51 54.8113 50.4C55.4053 49.8 55.4053 48.7715 54.8113 48.0857C54.2174 47.4857 53.1992 47.4857 52.5204 48.0857Z" fill="#FEC127"/>
<path d="M58.3755 43.2033C58.0361 43.5461 58.0361 44.1461 58.3755 44.489C58.7149 44.8318 59.3089 44.8318 59.6482 44.489C59.9876 44.1461 59.9876 43.5461 59.6482 43.2033C59.3089 42.7747 58.7149 42.7747 58.3755 43.2033Z" fill="#FEC127"/>
<path d="M62.7044 39.0862C62.4499 39.3434 62.4499 39.8577 62.7044 40.1148C62.9589 40.372 63.468 40.372 63.7226 40.1148C63.9771 39.8577 63.9771 39.3434 63.7226 39.0862C63.468 38.7434 62.9589 38.7434 62.7044 39.0862Z" fill="#FEC127"/>
<path d="M66.7756 35.9987C66.6059 35.8273 66.3513 35.8273 66.2665 35.9987C66.0968 36.1701 66.0968 36.4273 66.2665 36.513C66.4362 36.6844 66.6907 36.6844 66.7756 36.513C66.9453 36.4273 66.9453 36.1701 66.7756 35.9987Z" fill="#FEC127"/>
<path d="M48.6169 42.3423C47.9381 42.7709 47.6836 43.628 48.1078 44.3995C48.532 45.0852 49.3805 45.3423 50.1442 44.9138C50.8229 44.4852 51.0775 43.628 50.6533 42.8566C50.229 42.1709 49.3805 41.9138 48.6169 42.3423Z" fill="#FED627"/>
<path d="M55.575 39.0847C55.2356 39.3419 55.0659 39.7705 55.3204 40.199C55.575 40.5419 55.9992 40.7133 56.4235 40.4562C56.7629 40.199 56.9326 39.7705 56.678 39.3419C56.4235 38.999 55.9144 38.8276 55.575 39.0847Z" fill="#FED627"/>
<path d="M60.7504 36.1756C60.411 36.347 60.3262 36.7756 60.4959 37.1184C60.6656 37.4613 61.0898 37.547 61.4292 37.3756C61.7686 37.2041 61.8534 36.7756 61.6837 36.4327C61.4292 36.0898 61.0898 36.0041 60.7504 36.1756Z" fill="#FED627"/>
<path d="M45.6472 25.2832H48.023V34.3689H45.6472V25.2832ZM47.0897 21.2546C46.326 21.0832 45.6472 21.5117 45.3927 22.1975C45.1381 22.8832 45.6472 23.6546 46.326 23.9117C47.0048 24.1689 47.7684 23.6546 48.023 22.9689C48.2775 22.1975 47.8533 21.426 47.0897 21.2546ZM55.2351 34.626C54.6412 34.626 54.1321 34.5403 53.5381 34.2832C53.0291 34.026 52.6897 33.7689 52.3503 33.3403V38.9975H50.0594V25.2832H52.3503V26.5689C52.6048 26.1403 53.0291 25.7975 53.5381 25.5403C54.0472 25.2832 54.6412 25.1117 55.2351 25.1117C55.8291 25.1117 56.3381 25.1975 56.8472 25.4546C57.3563 25.7117 57.8654 25.9689 58.2048 26.3975C58.6291 26.826 58.9684 27.3403 59.1381 27.9403C59.3927 28.5403 59.4775 29.226 59.4775 29.9117C59.4775 30.5975 59.3927 31.2832 59.1381 31.8832C58.8836 32.3975 58.5442 32.9117 58.12 33.426C57.4412 34.1975 56.423 34.626 55.2351 34.626ZM54.8109 32.3975C55.1503 32.3975 55.4897 32.3117 55.8291 32.226C56.0836 32.0546 56.423 31.8832 56.5927 31.7117C56.8472 31.4546 57.0169 31.1975 57.1018 30.9403C57.3563 30.2546 57.3563 29.5689 57.1018 28.8832C57.0169 28.626 56.7624 28.2832 56.5927 28.1117C56.3381 27.8546 56.0836 27.6832 55.8291 27.5975C55.4897 27.426 55.1503 27.426 54.8109 27.426C54.1321 27.426 53.5381 27.6832 53.0291 28.1975C52.7745 28.4546 52.6048 28.7117 52.52 28.9689C52.2654 29.6546 52.2654 30.3403 52.52 30.9403C52.6048 31.1975 52.7745 31.5403 53.0291 31.7117C53.4533 32.1403 54.1321 32.3975 54.8109 32.3975ZM61.2594 25.2832H63.5503V26.6546C63.72 26.1403 64.0594 25.7117 64.5684 25.4546C65.0775 25.1975 65.5866 25.026 66.0957 25.1117C66.3503 25.1117 66.6897 25.1117 66.9442 25.1975C67.1988 25.2832 67.4533 25.3689 67.623 25.4546L66.7745 27.7689C66.6048 27.6832 66.4351 27.5975 66.2654 27.5117C66.0109 27.426 65.7563 27.426 65.5866 27.426C65.0775 27.426 64.5684 27.5975 64.1442 27.9403C63.8048 28.2832 63.6351 28.7975 63.6351 29.5689V34.3689H61.3442L61.2594 25.2832ZM72.6291 34.626C71.9503 34.626 71.3563 34.5403 70.7624 34.2832C70.1684 34.026 69.6594 33.6832 69.2351 33.2546C68.3866 32.3975 67.8775 31.1975 67.8775 29.9117C67.8775 29.3117 67.9624 28.626 68.2169 28.026C68.4715 27.426 68.8109 26.9117 69.2351 26.4832C71.1018 24.5975 74.1563 24.5975 76.023 26.4832C76.8715 27.3403 77.3806 28.5403 77.3806 29.826C77.3806 30.426 77.2957 31.1117 77.0412 31.626C76.7866 32.226 76.4472 32.7403 76.023 33.1689C75.5988 33.5975 75.0897 33.9403 74.4957 34.1975C73.9866 34.4546 73.3078 34.626 72.6291 34.626ZM72.7139 32.3975C73.0533 32.3975 73.3927 32.3117 73.7321 32.226C73.9866 32.0546 74.2412 31.8832 74.4957 31.7117C74.7503 31.4546 74.92 31.1975 75.0048 30.9403C75.2594 30.2546 75.2594 29.5689 75.0048 28.9689C74.92 28.7117 74.7503 28.3689 74.4957 28.1975C74.2412 27.9403 73.9866 27.7689 73.7321 27.6832C73.1381 27.426 72.3745 27.426 71.7806 27.6832C71.526 27.8546 71.2715 28.026 71.0169 28.1975C70.7624 28.4546 70.5927 28.7117 70.5078 28.9689C70.2533 29.6546 70.2533 30.3403 70.5078 30.9403C70.5927 31.1975 70.7624 31.5403 71.0169 31.7117C71.2715 31.8832 71.526 32.1403 71.7806 32.226C72.0351 32.3117 72.3745 32.3975 72.7139 32.3975ZM29.3563 25.2832H31.7321L33.5139 31.1117L35.6351 25.2832H37.6715L39.7927 31.1117L41.6594 25.2832H44.0351L40.9806 34.3689H38.7745L36.6533 28.4546L34.4472 34.3689H32.2412L29.3563 25.2832Z" fill="#351A55"/>
</svg>
