<svg width="132" height="60" viewBox="0 0 132 60" fill="none" xmlns="http://www.w3.org/2000/svg">
<g clip-path="url(#clip0_1415_13212)">
<path d="M12.6264 13.6127C11.982 14.0116 11.5524 14.564 11.3376 15.3618C11.1227 16.0983 11 21.4378 11 29.8154C11 44.5451 11 44.6372 12.9333 45.6498C13.7925 46.1101 14.8359 46.1715 21.4029 46.0794L28.8598 45.9874L29.6883 45.0054L30.4862 44.0234L31.8671 44.944C33.8004 46.2329 36.194 46.8773 39.232 46.8466C43.6509 46.8466 47.5481 45.5578 49.328 43.5017C50.1258 42.6425 50.2793 42.1822 50.2793 40.9547C50.2793 39.7579 50.1258 39.3283 49.4814 38.6532C48.346 37.5485 46.9037 37.6098 44.2646 38.8373C42.4541 39.6966 41.8097 39.85 39.8457 39.85C37.176 39.85 35.8564 39.2669 34.9358 37.7633C34.5983 37.2109 34.3221 36.6892 34.3221 36.5358C34.3221 36.4131 37.6056 36.321 41.6562 36.321C48.5608 36.321 49.0211 36.2903 49.7576 35.7073C50.7703 34.9094 51.0158 33.6205 50.6168 31.1349C49.9417 26.8694 47.4868 23.5245 43.835 21.7754C42.0552 20.9162 41.5642 20.8241 39.0785 20.8548C36.9611 20.8548 35.8871 21.0389 34.5369 21.5606C31.2227 22.8801 28.5222 25.6113 27.172 29.0789C26.3742 31.1656 26.1593 35.339 26.7424 37.4564L27.172 39.0828H22.9372H18.6717V27.2683C18.6717 18.7988 18.5797 15.2698 18.3035 14.6867C17.5363 13.0296 14.529 12.4466 12.6264 13.6127ZM40.6743 27.6059C41.7176 28.1276 43.2213 29.9381 43.2213 30.7053C43.2213 31.0122 42.1472 31.1042 38.7717 31.1042H34.3221L34.6596 30.245C35.3041 28.5572 37.2066 27.1456 38.8637 27.1149C39.2627 27.1149 40.0912 27.3297 40.6743 27.6059Z" fill="#154096"/>
<path d="M62.2473 21.131C61.4494 21.3765 60.4981 21.9289 60.1299 22.3278L59.3934 23.095L58.35 22.2051C57.4908 21.4379 57.0612 21.2844 55.6496 21.2844C54.238 21.2844 53.8697 21.4072 53.1026 22.1744C52.6116 22.696 52.1206 23.5246 51.9978 24.077C51.9058 24.5986 51.8137 29.1096 51.8137 34.0809C51.8137 43.6245 51.9058 44.4224 53.3174 45.6499C53.6856 45.9874 54.5755 46.2943 55.4041 46.3557C56.6009 46.4784 57.0305 46.3864 57.767 45.8033C59.332 44.5758 59.4855 43.7166 59.4855 36.5972C59.4855 31.4418 59.5775 29.9075 59.9458 29.1403C60.8357 27.2991 63.1065 26.5933 65.0091 27.5753C66.6969 28.4345 66.8503 29.2017 66.8503 36.229C66.8503 39.7273 67.0038 43.1029 67.1572 43.7166C68.0471 46.9694 72.6502 47.399 74.0617 44.3917C74.4914 43.5018 74.5527 42.2129 74.4607 35.0015C74.3379 25.4579 74.2152 24.9055 71.883 22.8495C69.6121 20.8548 65.5001 20.149 62.2473 21.131Z" fill="#154096"/>
<path d="M105.301 21.1313C100.667 22.4201 97.3529 25.7957 96.1561 30.3374C94.1615 38.1012 98.8259 45.6808 106.344 46.7549C110.917 47.3993 116.778 45.8036 118.834 43.3793C119.969 41.9984 119.969 39.8196 118.834 38.6535C117.729 37.5488 116.256 37.6102 113.617 38.8377C111.837 39.6662 111.131 39.8196 109.198 39.8196C106.528 39.8503 105.209 39.298 104.288 37.7636C103.951 37.2112 103.674 36.6896 103.674 36.5668C103.674 36.4441 107.05 36.3213 111.162 36.26C117.913 36.1679 118.711 36.1065 119.263 35.6155C121.227 33.8357 119.662 27.2073 116.532 24.0772C113.74 21.2847 109.075 20.0573 105.301 21.1313ZM110.027 27.6062C111.07 28.1279 112.574 29.9384 112.574 30.7056C112.574 31.0125 111.5 31.1045 108.124 31.1045C105.669 31.1045 103.674 30.9818 103.674 30.8284C103.674 30.276 105.117 28.4655 106.099 27.821C107.326 26.9925 108.554 26.9311 110.027 27.6062Z" fill="#154096"/>
<path d="M76.8848 21.9286C76.1483 22.3583 75.4425 23.8312 75.4425 24.9666C75.4425 26.1327 76.1483 27.575 76.8848 27.9126C77.1917 28.066 79.1863 28.2501 81.3344 28.3422L85.2317 28.4956L80.3525 35.2161C77.6827 38.8985 75.3812 42.3048 75.2891 42.7651C75.0436 43.8084 75.5346 45.0359 76.4245 45.6496C77.0076 46.0793 78.3578 46.1406 85.9682 46.1406C95.3584 46.1406 96.1562 46.0179 96.9234 44.637C97.5064 43.5015 97.2916 41.3535 96.4938 40.4022C95.7573 39.5429 95.7573 39.5429 90.9701 39.3895L86.2137 39.2361L91.4304 32.2394C96.0335 26.01 96.6165 25.0894 96.6165 24.046C96.6165 23.1254 96.4324 22.7265 95.8187 22.2355C95.0208 21.6218 94.6526 21.5911 86.2137 21.5911C80.8128 21.5911 77.2224 21.7445 76.8848 21.9286Z" fill="#154096"/>
</g>
<defs>
<clipPath id="clip0_1415_13212">
<rect width="109.245" height="34.0625" fill="white" transform="translate(11 13)"/>
</clipPath>
</defs>
</svg>
