<svg width="133" height="60" viewBox="0 0 133 60" fill="none" xmlns="http://www.w3.org/2000/svg">
<path d="M79.3892 33.4238H70.5117V35.3452H73.7873V43.5549H76.1127V35.3452H79.3892V33.4238Z" fill="black"/>
<path d="M85.3892 33.0996C82.3636 33.0996 79.9121 35.5042 79.9121 38.4693C79.9121 41.4348 82.3636 43.8383 85.3892 43.8383C88.4122 43.8383 90.8641 41.4348 90.8641 38.4693C90.8641 35.504 88.4122 33.0996 85.3892 33.0996ZM88.0721 40.094C87.7168 40.9811 86.9081 41.6486 85.9281 41.8168C85.7536 41.8462 85.5732 41.8631 85.3894 41.8631C85.2048 41.8631 85.0257 41.8462 84.8501 41.8168C83.8699 41.6486 83.0608 40.9811 82.7069 40.094C82.5031 39.5906 82.3938 39.0423 82.3938 38.4693C82.3938 37.8965 82.5031 37.3454 82.7069 36.8433C83.0608 35.9561 83.8699 35.2897 84.8501 35.1212C85.0257 35.0921 85.2048 35.0749 85.3894 35.0749C85.5732 35.0749 85.7536 35.0921 85.9281 35.1212C86.9083 35.2897 87.717 35.9559 88.0721 36.8433C88.2729 37.3452 88.385 37.8965 88.385 38.4693C88.3848 39.0421 88.2727 39.5906 88.0721 40.094Z" fill="black"/>
<path d="M90.9209 33.4023H93.6602L96.2148 37.7591L98.7741 33.4023H101.51L97.3776 39.7841V43.5334H95.0526V39.7841L90.9209 33.4023Z" fill="black"/>
<path d="M107.031 33.0996C104.01 33.0996 101.557 35.5052 101.557 38.4693C101.557 41.4362 104.01 43.8383 107.031 43.8383C110.057 43.8383 112.508 41.436 112.508 38.4693C112.508 35.5052 110.057 33.0996 107.031 33.0996ZM109.716 40.094C109.362 40.9829 108.551 41.6486 107.572 41.8168C107.397 41.8484 107.216 41.8631 107.031 41.8631C106.85 41.8631 106.668 41.8484 106.495 41.8168C105.514 41.6486 104.704 40.9829 104.349 40.094C104.148 39.5906 104.035 39.0423 104.035 38.4693C104.035 37.8965 104.148 37.3454 104.349 36.8433C104.704 35.9561 105.514 35.2907 106.495 35.1212C106.668 35.0921 106.85 35.0749 107.031 35.0749C107.216 35.0749 107.397 35.0921 107.572 35.1212C108.551 35.2907 109.362 35.9559 109.716 36.8433C109.918 37.3452 110.029 37.8965 110.029 38.4693C110.029 39.0421 109.918 39.5906 109.716 40.094Z" fill="black"/>
<path d="M128.315 33.4043H125.421L121.237 43.5344H123.822L124.67 41.3066H129.068L129.917 43.5344H132.5L128.315 33.4043ZM125.346 39.5323L126.869 35.5311L128.392 39.5323H125.346Z" fill="black"/>
<path d="M121.883 33.4238H113.006V35.3452H116.281V43.5563H118.606V35.3452H121.883V33.4238Z" fill="black"/>
<path d="M54.6931 36.3046C53.7191 36.3046 52.9341 36.6586 52.4823 37.3013L52.3445 37.4975V37.2592V32.9609H50.2373V43.5584H52.3445V42.7038V42.4453L52.4841 42.6645C52.904 43.3235 53.6984 43.7013 54.6638 43.7013C55.6549 43.7013 56.5511 43.3309 57.1874 42.6587C57.8227 41.9873 58.1727 41.0442 58.1727 40.0031C58.1727 38.9581 57.8239 38.0132 57.191 37.3422C56.5601 36.673 55.6729 36.3046 54.6931 36.3046ZM54.154 41.8344C53.6552 41.8344 53.1928 41.6577 52.8521 41.3368C52.4966 41.0017 52.3008 40.5279 52.3008 40.0025C52.3008 38.9244 53.0862 38.1422 54.1684 38.1422C55.2595 38.1422 55.9926 38.8898 55.9926 40.0025C55.9926 41.1155 55.2709 41.8344 54.154 41.8344Z" fill="black"/>
<path d="M64.5037 36.4473L63.02 40.9117L62.9505 41.1209L62.8767 40.9131L61.2915 36.4473H58.9951L61.8524 43.3471L61.8636 43.3743L61.8528 43.4018L61.678 43.8449C61.4239 44.4542 60.9626 44.7496 60.2671 44.7496C60.0038 44.7496 59.7847 44.7001 59.6012 44.6444L59.3595 46.3435C59.7527 46.498 60.1934 46.5731 60.7044 46.5731C62.1646 46.5731 63.028 45.9296 63.5912 44.4211L66.6707 36.4473H64.5037Z" fill="black"/>
<path d="M57.9527 15.3848L54.9991 25.0389L52.1001 15.3848H48.5283L53.0456 28.9104H56.4134L59.2578 19.8305L62.1841 28.9104H65.5514L69.8551 15.3848H66.498L63.7082 24.9575L60.6724 15.3848H57.9527Z" fill="black"/>
<path d="M86.9404 15.3848L92.2333 28.9104H95.5249L100.764 15.3848H97.4369L93.9733 25.1479L90.5102 15.3848H86.9404Z" fill="black"/>
<path d="M108.812 15.1152C104.862 15.1152 101.995 18.084 101.995 22.1746C101.995 26.2993 104.942 29.18 109.162 29.18C111.321 29.18 113.276 28.6185 114.676 27.598L113.876 25.072C112.693 25.957 111.108 26.4634 109.513 26.4634C107.053 26.4634 105.519 25.1575 105.305 22.8806L105.299 22.8185H115.305V22.3634C115.305 18.028 112.696 15.1152 108.812 15.1152ZM105.398 20.641L105.414 20.5713C105.835 18.7485 107.137 17.6162 108.812 17.6162C110.467 17.6162 111.746 18.8058 111.995 20.5761L112.004 20.6408L105.398 20.641Z" fill="black"/>
<path d="M126.596 15.0889C124.552 15.0889 122.84 16.0021 121.9 17.5946L121.795 17.757V15.3853H118.539V28.9108H121.795V21.6897C121.795 19.4268 123.118 18.0209 125.248 18.0209C127.199 18.0209 128.108 19.1611 128.108 21.6089V28.9108H131.364V20.315C131.364 16.896 129.715 15.0889 126.596 15.0889Z" fill="black"/>
<path d="M78.5855 15.1035C74.6229 15.1035 71.4121 18.2528 71.4121 22.1364C71.4121 26.0204 74.6229 29.1685 78.5855 29.1685C82.5449 29.1685 85.7561 26.0204 85.7561 22.1364C85.7561 18.2528 82.5447 15.1035 78.5855 15.1035ZM82.0991 24.2644C81.6338 25.426 80.5746 26.3004 79.291 26.5207C79.0623 26.5593 78.8262 26.5814 78.5855 26.5814C78.3436 26.5814 78.1091 26.5595 77.8792 26.5207C76.5952 26.3006 75.5358 25.4262 75.0721 24.2644C74.8053 23.605 74.662 22.8868 74.662 22.1364C74.662 21.3861 74.8051 20.6644 75.0721 20.007C75.5358 18.8448 76.5952 17.9722 77.8792 17.7516C78.1091 17.7135 78.3438 17.6909 78.5855 17.6909C78.8264 17.6909 79.0623 17.7133 79.291 17.7516C80.5746 17.9722 81.634 18.8448 82.0991 20.007C82.3621 20.6644 82.5088 21.3863 82.5088 22.1364C82.509 22.8868 82.3621 23.6048 82.0991 24.2644Z" fill="black"/>
<path d="M21.3266 42.0614C22.883 42.9833 23.2393 43.8108 23.2393 45.0394C23.2393 46.7908 21.8088 48.0736 19.9053 48.0736H31.7407V36.0488L21.3266 42.0614Z" fill="#575A60"/>
<path d="M31.7408 12L23.4287 19.2257L31.741 24.025C31.7613 22.2163 32.2998 21.4938 33.3636 20.8795C34.8799 20.0041 36.7057 20.6011 37.6576 22.2485L31.7408 12Z" fill="#D30C28"/>
<path d="M31.7402 24.1377C31.7404 24.7229 31.7408 25.1719 31.7408 25.1719V48.0755L41.4673 31.2289C41.8926 30.4922 41.8926 29.5846 41.4673 28.8478L37.6586 22.2512C36.7069 20.6026 34.8805 20.005 33.3636 20.8808C32.2781 21.5075 31.7392 22.246 31.7402 24.1377Z" fill="#6F7278"/>
<path d="M22.707 43.1963L22.7062 43.1973C23.1182 43.7404 23.2403 44.3214 23.2403 45.0397C23.2403 46.7911 21.8095 48.0741 19.906 48.0741H18.6807H26.9471L22.707 43.1963Z" fill="#414449"/>
<path d="M6.67413 23.6317C5.76626 22.6531 5.63679 21.1494 6.41039 19.7988L0.5 30.0361L10.9137 36.0485V28.5094L6.67353 23.6317H6.67413Z" fill="#A5A5A5"/>
<path d="M7.3773 24.191C7.10614 24.0345 6.87166 23.8455 6.67345 23.6318H6.67285L10.913 28.5095V24.0234C9.33594 24.9105 8.4411 24.8053 7.3773 24.191Z" fill="#838688"/>
<path d="M11.0101 23.9695C11.5167 23.6767 11.9053 23.4518 11.9053 23.4518L31.7408 12H12.2875C11.437 12 10.6509 12.4537 10.2257 13.1905L6.41701 19.7873C5.46525 21.4359 5.86087 23.3163 7.37759 24.1919C8.46323 24.8188 9.37251 24.9162 11.0101 23.9695Z" fill="#E60A1E"/>
<path d="M21.3271 18.0124L23.4289 19.2257L31.741 12L21.3271 18.0124Z" fill="#A1192E"/>
<path d="M21.2309 42.0054C20.7241 41.713 20.3351 41.4889 20.3351 41.4889L0.5 30.0371L10.2265 46.8838C10.6517 47.6206 11.4377 48.0743 12.2883 48.0743H19.9056C21.8091 48.0743 23.2399 46.7914 23.2399 45.04C23.2399 43.7865 22.8697 42.9503 21.2309 42.0054Z" fill="#C7C7C7"/>
</svg>
