<svg width="132" height="60" viewBox="0 0 132 60" fill="none" xmlns="http://www.w3.org/2000/svg">
<g clip-path="url(#clip0_1415_13196)">
<path d="M3 29.4614V43.5117L5.26619 41.9578L7.53237 40.3822V27.9074V15.4326H5.26619H3V29.4614Z" fill="#EC1515"/>
<path d="M116.05 25.3389C115.036 25.6842 114.216 26.3964 113.849 27.3029C112.964 29.5043 113.892 30.9288 117.324 32.677C118.705 33.3676 119.094 34.4252 118.252 35.1806C117.691 35.6986 116.029 35.6986 115.058 35.2022C114.108 34.7058 114 34.7489 113.504 35.7202L113.072 36.5835L113.978 37.0583C114.734 37.4468 115.252 37.5547 116.741 37.5547C119.633 37.5547 121.014 36.5835 121.23 34.4252C121.403 32.5475 120.54 31.4684 117.669 30.0223C114.691 28.5331 116.288 26.4827 119.547 27.6266C120.043 27.7993 120.496 27.9504 120.54 27.9504C120.583 27.9504 120.626 27.454 120.626 26.8712C120.626 25.8784 120.561 25.7489 120.043 25.5547C119.245 25.2309 116.784 25.1014 116.05 25.3389Z" fill="#EC1515"/>
<path d="M99.259 31.3806V37.4453H100.446H101.633V35.1791C101.633 32.9345 101.633 32.9129 102.151 32.9129C102.777 32.9129 103.166 33.3662 104.439 35.6755L105.41 37.4453H106.77C107.504 37.4453 108.108 37.4021 108.108 37.3158C108.108 37.1647 105.777 33.1503 105.302 32.5029C104.935 31.9849 104.935 31.9633 105.604 31.5101C107.007 30.582 107.46 28.4237 106.554 27.0856C105.561 25.6396 105.13 25.4669 102.043 25.4021L99.259 25.3158V31.3806ZM103.878 27.7547C104.309 28.1 104.439 28.3806 104.439 29.028C104.439 30.0856 103.683 30.7547 102.475 30.7547H101.633V29.028V27.3014H102.475C102.993 27.3014 103.511 27.4741 103.878 27.7547Z" fill="#EC1515"/>
<path d="M109.187 31.4021V37.4453H110.374H111.561V31.4021V25.359H110.374H109.187V31.4021Z" fill="#EC1515"/>
<path d="M123 31.4021V37.4453H126.345H129.691V36.4741V35.5029H127.532H125.374V33.8842V32.2655H127.317H129.259V31.2942V30.323H127.317H125.374V28.8122V27.3014H127.273H129.194L129.432 26.4597C129.583 26.0065 129.691 25.5748 129.691 25.4885C129.691 25.4237 128.18 25.359 126.345 25.359H123V31.4021Z" fill="#EC1515"/>
<path d="M5.76252 42.9065C4.38122 43.8777 3.17259 44.741 3.08626 44.8273C2.99993 44.9353 20.374 45 41.7194 45H80.5035L80.4388 43.1007L80.374 41.223L44.3309 41.1799L8.2877 41.1367L5.76252 42.9065Z" fill="#EC1515"/>
<path d="M66.9928 15.2158C61.8129 15.8417 58.0791 18.9496 56.9784 23.5251C56.3957 25.9208 56.7841 30.2373 57.7554 32.1582C59.6762 35.9136 63.7122 38.1366 68.6115 38.1582C75.4532 38.1582 80.0719 34.187 80.6115 27.8201C80.9136 24.1078 79.7913 20.7194 77.5036 18.4748C75 16.0359 70.8561 14.7409 66.9928 15.2158ZM71.4388 19.2517C72.7769 19.856 74.1367 21.1078 74.7626 22.3165C76.0359 24.8632 76.0359 28.446 74.7626 30.9712C72.4964 35.4172 65.9568 35.892 63 31.7913C61.1007 29.1798 61.1654 23.9136 63.1079 21.3453C64.964 18.928 68.6115 17.9999 71.4388 19.2517Z" fill="#154096"/>
<path d="M12.2805 15.5397C12.2805 15.626 12.4532 15.9713 12.669 16.3598C12.9927 16.9857 13.0575 18.0433 13.1438 26.6979L13.2517 36.367L15.5827 34.7267L17.892 33.108V30.4102V27.7339H20.3309C25.2949 27.7339 27.151 28.7915 26.9136 31.4461C26.7841 32.6548 26.3525 33.2375 25.1222 33.7987C24.41 34.1224 23.6978 34.2087 21.2374 34.2087H18.1942L15.6474 35.9785L13.1007 37.7699L18.9496 37.8346C26.4388 37.8994 28.1222 37.5541 30.0863 35.6116C31.2302 34.4461 31.5539 33.6476 31.6618 31.6836C31.7481 30.0864 31.705 29.7843 31.187 28.7267C30.5179 27.367 29.2877 26.331 27.8848 25.9425C27.0431 25.7267 26.6115 25.3598 27.1726 25.3598C27.7122 25.3598 29.3093 23.5684 29.633 22.6188C30.3237 20.6116 29.9784 18.9929 28.5539 17.3958C26.8704 15.5397 26.3956 15.4318 18.7553 15.4318C15.1942 15.4318 12.2805 15.4749 12.2805 15.5397ZM24.7122 19.813C25.0791 20.2447 25.2302 20.6764 25.2302 21.2807C25.2302 23.4389 23.8057 24.3238 20.223 24.4533L17.892 24.5397V21.7987V19.0792L21.0431 19.144C24.1942 19.2087 24.1942 19.2087 24.7122 19.813Z" fill="#154096"/>
<path d="M33.6475 15.539C33.6475 15.6254 33.8201 15.9707 34.036 16.3592C34.3597 16.9851 34.4244 18.0426 34.5108 26.7189L34.6187 36.388L36.9496 34.7477L39.259 33.1074V26.093V19.057L41.9136 19.1218C44.3957 19.2081 44.6547 19.2513 45.9928 19.9203C48.3021 21.0426 49.5324 22.9635 49.7698 25.7693C50.0719 29.4599 48.7338 32.2657 46.0359 33.5606C45.1511 33.9923 44.5036 34.1002 42.1726 34.2081L39.3669 34.316L36.928 36.0426L34.4892 37.7693L39.928 37.834C45.8849 37.8988 46.8129 37.7693 49.1439 36.647C53.6978 34.4239 55.8993 28.3376 54.1726 22.7477C53.1151 19.4024 50.1798 16.6613 46.6618 15.7549C45.7122 15.4959 44.0719 15.4311 39.5395 15.4311C36.3021 15.4311 33.6475 15.4743 33.6475 15.539Z" fill="#154096"/>
<path d="M77.1149 36.367C76.4243 36.6476 75.7336 37.6404 75.7336 38.3527C75.7336 39.734 76.6833 40.662 78.0646 40.6836C79.3811 40.6836 80.266 39.7987 80.266 38.4822C80.2444 36.734 78.7336 35.7196 77.1149 36.367ZM79.4027 37.662C79.9423 38.6548 79.1869 40.0361 78.1077 40.0361C76.338 40.0361 75.9063 37.6404 77.5682 37.0145C78.1293 36.8203 79.1437 37.1656 79.4027 37.662Z" fill="#154096"/>
<path d="M77.2446 38.4165C77.2446 39.0639 77.3525 39.6035 77.4605 39.6035C77.59 39.6035 77.6763 39.4093 77.6763 39.1719C77.6763 38.9345 77.8058 38.7402 77.9784 38.7402C78.1511 38.7402 78.3669 38.9345 78.4317 39.1719C78.6691 39.9273 78.9281 39.6251 78.9281 38.5891C78.9281 37.4668 78.7554 37.2294 77.8489 37.2294C77.2662 37.2294 77.2446 37.2726 77.2446 38.4165ZM78.3238 38.0927C78.3238 38.2006 78.1727 38.3086 78 38.3086C77.8274 38.3086 77.6763 38.2006 77.6763 38.0927C77.6763 37.9632 77.8274 37.8769 78 37.8769C78.1727 37.8769 78.3238 37.9632 78.3238 38.0927Z" fill="#154096"/>
</g>
<defs>
<clipPath id="clip0_1415_13196">
<rect width="126.691" height="30" fill="white" transform="translate(3 15)"/>
</clipPath>
</defs>
</svg>
