<svg width="132" height="29" viewBox="0 0 132 29" fill="none" xmlns="http://www.w3.org/2000/svg">
<path d="M37.3319 9.93652C39.1003 9.93652 40.026 10.7822 40.026 12.3268C40.026 12.5499 40.0142 12.7966 39.9726 13.0432L39.5098 15.9679C39.1774 17.9529 38.1508 19.0746 35.878 19.0746H25.0244C24.7336 19.0746 24.6149 18.9337 24.6565 18.6459L25.9917 10.3711C26.0332 10.0833 26.1875 9.9424 26.4783 9.9424H37.3319V9.93652ZM27.6948 11.5927L26.7572 17.4126H35.6407C36.7622 17.4126 37.4506 16.8253 37.6345 15.7271L38.0321 13.2723C38.0559 13.1255 38.0559 12.9963 38.0559 12.8788C38.0559 12.0331 37.5515 11.5868 36.5783 11.5868H27.6948V11.5927Z" fill="#1D1D1B"/>
<path d="M43.0646 19.0688C41.5455 19.0688 40.7266 18.3229 40.7266 17.0074C40.7266 16.8136 40.7384 16.6022 40.78 16.379L41.3734 12.6204C41.6523 10.9114 42.5365 9.93066 44.5185 9.93066H55.4611C55.7519 9.93066 55.8706 10.0716 55.8291 10.3594L55.6985 11.1698C55.657 11.4459 55.4849 11.5868 55.2 11.5868H44.7559C43.9132 11.5868 43.3673 12.0449 43.2486 12.8788L43.1062 13.6893H53.5385C53.8292 13.6893 53.9479 13.8302 53.9064 14.118L53.7758 14.8756C53.7343 15.1633 53.5622 15.3043 53.2892 15.3043H42.8569L42.7264 16.1147C42.7145 16.2205 42.7026 16.3262 42.7026 16.4143C42.7026 17.0661 43.0884 17.4068 43.8242 17.4068H54.2684C54.5591 17.4068 54.6778 17.5477 54.6363 17.8237L54.5057 18.6342C54.4642 18.922 54.3099 19.0629 54.0191 19.0629H43.0765L43.0646 19.0688Z" fill="#1D1D1B"/>
<path d="M70.0355 16.7607C69.7685 18.4697 68.8309 19.0688 66.8429 19.0688H55.9477C55.6688 19.0688 55.5383 18.9278 55.5798 18.64L55.7104 17.8296C55.7638 17.5536 55.924 17.4126 56.2148 17.4126H66.8548C67.644 17.4126 68.0713 17.1248 68.1722 16.4495L68.1959 16.2792C68.2078 16.2028 68.2078 16.1206 68.2078 16.0442C68.2078 15.5333 67.8755 15.316 67.1752 15.316H58.7368C57.1939 15.316 56.2148 14.8462 56.2148 13.5424C56.2148 13.3839 56.2267 13.2135 56.2682 13.0197L56.3987 12.2504C56.6895 10.5414 57.6153 9.94238 59.5913 9.94238H70.35C70.6408 9.94238 70.7595 10.0833 70.7179 10.3711L70.5874 11.1815C70.5458 11.4576 70.3737 11.5985 70.083 11.5985H59.5735C58.7843 11.5985 58.3452 11.898 58.2383 12.5617L58.2146 12.7202C58.2027 12.7966 58.1909 12.8905 58.1909 12.9669C58.1909 13.4778 58.535 13.6951 59.2353 13.6951H67.6737C69.2284 13.6951 70.1839 14.1649 70.1839 15.4687C70.1839 15.6273 70.172 15.8093 70.1423 15.9914L70.0236 16.7607H70.0355Z" fill="#1D1D1B"/>
<path d="M78.3429 18.64C78.3014 18.9278 78.1293 19.0688 77.8563 19.0688H76.8119C76.5211 19.0688 76.3905 18.9278 76.4262 18.64L77.5596 11.5927H71.7382C71.4592 11.5927 71.3406 11.4458 71.3821 11.1757L71.5127 10.3652C71.5542 10.0775 71.7085 9.93652 71.9993 9.93652H85.5589C85.8496 9.93652 85.9683 10.0775 85.9268 10.3652L85.7962 11.1757C85.7547 11.4517 85.5826 11.5927 85.2918 11.5927H79.4585L78.337 18.64H78.3429Z" fill="#1D1D1B"/>
<path d="M99.8367 18.64C99.7952 18.9278 99.6409 19.0688 99.3501 19.0688H98.3057C98.0149 19.0688 97.8963 18.9278 97.9378 18.64L98.3235 16.2674H87.7191L87.3334 18.64C87.2919 18.9278 87.1198 19.0688 86.8468 19.0688H85.7905C85.5116 19.0688 85.3811 18.9278 85.4226 18.64L86.3839 12.6263C86.6629 10.9173 87.547 9.93652 89.5291 9.93652H98.5194C100.039 9.93652 100.857 10.6824 100.857 12.0096C100.857 12.1917 100.846 12.4031 100.804 12.6204L99.8427 18.6342L99.8367 18.64ZM89.7605 11.5927C88.9178 11.5927 88.3897 12.0507 88.2532 12.8847L87.9624 14.6054H98.5668L98.8576 12.8847C98.8695 12.779 98.8813 12.6733 98.8813 12.5852C98.8813 11.945 98.4956 11.5927 97.7479 11.5927H89.7605Z" fill="#1D1D1B"/>
<path d="M102.234 12.6263C102.513 10.9173 103.397 9.93652 105.379 9.93652H116.072C116.351 9.93652 116.482 10.0775 116.44 10.3652L116.298 11.1757C116.256 11.4517 116.084 11.5927 115.811 11.5927H105.616C104.773 11.5927 104.228 12.0507 104.109 12.8847L103.581 16.1206C103.569 16.2263 103.557 16.332 103.557 16.4201C103.557 17.072 103.943 17.4126 104.679 17.4126H114.873C115.152 17.4126 115.283 17.5536 115.241 17.8296L115.111 18.64C115.069 18.9278 114.897 19.0688 114.624 19.0688H103.931C102.412 19.0688 101.593 18.3229 101.593 17.0074C101.593 16.8136 101.605 16.6022 101.646 16.379L102.24 12.6204L102.234 12.6263Z" fill="#1D1D1B"/>
<path d="M117.194 12.6263C117.473 10.9173 118.357 9.93652 120.339 9.93652H129.661C131.181 9.93652 131.999 10.6824 131.999 12.0096C131.999 12.1917 131.988 12.4031 131.946 12.6204L131.353 16.379C131.074 18.088 130.19 19.0688 128.208 19.0688H118.885C117.366 19.0688 116.547 18.3229 116.547 17.0074C116.547 16.8136 116.559 16.6022 116.6 16.379L117.194 12.6204V12.6263ZM120.576 11.5927C119.734 11.5927 119.188 12.0507 119.069 12.8847L118.541 16.1206C118.529 16.2263 118.517 16.332 118.517 16.4201C118.517 17.072 118.903 17.4126 119.639 17.4126H127.958C128.801 17.4126 129.347 16.9545 129.477 16.1206L130.006 12.8847C130.017 12.7907 130.017 12.6909 130.017 12.6087C130.017 11.945 129.632 11.5927 128.896 11.5927H120.576Z" fill="#1D1D1B"/>
<path d="M30.5967 28.5243C30.5017 28.5243 30.4127 28.5243 30.3177 28.5243L30.294 24.0903L37.4091 21.2185L30.0982 23.7556L18.2773 17.871L17.4346 17.454L11.7556 14.6233L18.4375 11.0233L18.5621 10.9587L30.1041 4.74524L35.6941 7.04739L30.3177 4.50446V0.481571C30.4127 0.481571 30.5076 0.481571 30.6026 0.481571C33.7655 0.481571 36.7979 0.763467 39.6225 1.28615C36.0976 0.463953 32.187 0 28.0628 0C12.5627 0 0 6.48947 0 14.5C0 22.5105 12.5627 29 28.0568 29C32.1751 29 36.0917 28.5419 39.6166 27.7139C36.7979 28.2365 33.7596 28.5184 30.5967 28.5184V28.5243ZM20.2296 19.9617L29.0953 23.7379H21.1791C20.3424 22.6221 19.654 21.3477 19.1496 19.9617H20.2296ZM19.1437 19.4978H18.9894C18.9894 19.4978 18.9716 19.4449 18.9657 19.4214L19.1437 19.4978ZM20.3127 23.7379H14.9601C13.702 22.6221 12.6695 21.3477 11.9099 19.9617H18.1645C18.6986 21.3477 19.4285 22.6162 20.3127 23.7379ZM17.8085 18.934C17.8678 19.1278 17.9272 19.3157 17.9924 19.5036H11.6666C11.0969 18.3526 10.7171 17.1252 10.5569 15.8507L17.8026 18.9399L17.8085 18.934ZM17.7788 10.0132L10.545 13.3137C10.6815 12.0099 11.0554 10.7531 11.6191 9.5727H17.9212C17.8738 9.71952 17.8263 9.86634 17.7847 10.0132H17.7788ZM18.0815 9.10875H11.8506C12.6992 7.51721 13.9157 6.07837 15.417 4.83921H20.5382C19.5057 6.07837 18.6689 7.52309 18.0815 9.10875ZM19.7668 9.10875H19.0784C19.6303 7.51721 20.4255 6.07837 21.4046 4.83921H29.1309L19.7668 9.10875ZM28.4307 0.522681C28.9173 0.505063 29.4098 0.493317 29.9024 0.487444V4.39874H21.7666C23.5409 2.355 25.8493 0.95727 28.4247 0.522681H28.4307ZM27.1074 0.599028C24.7218 1.21567 22.5914 2.56055 20.918 4.40462H15.9748C18.0399 2.84245 20.5798 1.65614 23.4163 0.986634C24.615 0.816322 25.8493 0.68712 27.1074 0.599028ZM19.8024 1.65026C17.939 2.34913 16.2478 3.28291 14.7999 4.39874H11.8921C14.1768 3.25354 16.8531 2.31977 19.8024 1.65026ZM11.0495 4.83921H14.2539C12.7763 6.07837 11.5895 7.52309 10.7587 9.10875H5.69682C6.97267 7.51721 8.8004 6.0725 11.0495 4.83921ZM5.34077 9.5727H10.5213C9.89228 10.9058 9.5125 12.3329 9.43535 13.8188L9.38195 13.8422H3.65546C3.78601 12.3447 4.37349 10.9117 5.34077 9.5727ZM3.65546 15.1578H8.94875L9.45909 15.3751C9.58371 16.8198 9.98723 18.2058 10.6281 19.4978H5.38824C4.3913 18.1412 3.78601 16.6788 3.64952 15.1578H3.65546ZM5.75022 19.9617H10.8714C11.6369 21.3477 12.6814 22.6162 13.9453 23.7379H10.3136C8.43248 22.6221 6.88365 21.3477 5.75616 19.9617H5.75022ZM11.0613 24.1667H14.4497C16.2597 25.6407 18.4731 26.8212 20.9536 27.5964C17.1735 26.8447 13.8029 25.6642 11.0613 24.1667ZM23.8495 28.078C20.5976 27.3791 17.7135 26.0049 15.4645 24.1667H20.6628C22.5796 26.3983 25.1491 27.9488 28.0331 28.4597C26.6029 28.3892 25.2025 28.26 23.8495 28.078ZM21.5174 24.1667H29.8727L29.8964 28.4773C26.6089 28.401 23.6418 26.7625 21.5233 24.1667H21.5174Z" fill="#B42222"/>
</svg>
