<svg width="132" height="60" viewBox="0 0 132 60" fill="none" xmlns="http://www.w3.org/2000/svg">
<g clip-path="url(#clip0_1352_37629)">
<path d="M34.9636 12L20 47.2834H27.137L29.603 41.2192H42.2991L39.6345 34.9947H32.1318L37.7431 21.2193L48.3493 47.2834H55.4758L40.5227 12H34.9636Z" fill="#EB0017"/>
<path d="M106.46 17.0371V34.9943L92.3111 17.0371H86.6161V47.2831H93.1575V28.6307L107.86 47.2831H113.001V17.0371H106.46Z" fill="#EB0017"/>
<path d="M68.5471 16.2773C59.989 16.2773 53.0506 23.3683 53.0402 32.1276C53.0402 40.887 59.9681 47.9886 68.5262 47.9993C77.0843 47.9993 84.0227 40.9191 84.0332 32.1597C84.0332 23.4003 77.1052 16.288 68.5471 16.2773ZM68.5471 41.2827C63.6045 41.2934 59.592 37.2078 59.5815 32.149C59.5711 27.0902 63.5627 22.9832 68.5053 22.9725C73.4479 22.9618 77.4605 27.0474 77.4709 32.1062C77.4709 32.1276 77.4709 32.1383 77.4709 32.1597C77.4709 37.2078 73.4793 41.2934 68.5471 41.3148V41.2827Z" fill="#EB0017"/>
</g>
<defs>
<clipPath id="clip0_1352_37629">
<rect width="93" height="36" fill="white" transform="translate(20 12)"/>
</clipPath>
</defs>
</svg>
