<svg width="69" height="69" viewBox="0 0 69 69" fill="none" xmlns="http://www.w3.org/2000/svg">
<g id="Layer_2" clip-path="url(#clip0_1_1148)">
<path id="Vector" d="M69.0005 18.3021H63.9484V5.05211H48.7012V0H69.0005V18.3021Z" fill="#C82030"/>
<path id="Vector_2" d="M20.045 52.8399C20.4929 52.8399 20.8584 53.2054 20.8584 53.6533V58.8233H25.9105V53.6533C25.9105 51.0852 24.2517 48.8993 21.9496 48.1061V46.7707H36.9847V48.1061C34.6826 48.8993 33.0239 51.0852 33.0239 53.6533V58.8233H38.076V53.6533C38.076 53.2054 38.4414 52.8399 38.8894 52.8399H50.3509V39.5546C50.3509 36.8938 48.7039 34.6119 46.3749 33.6722C48.714 32.6315 50.3509 30.2856 50.3509 27.5642C50.3509 23.8796 47.3533 20.8803 43.667 20.8803C39.9806 20.8803 36.983 23.8779 36.983 27.5642C36.983 30.2856 38.6182 32.6315 40.959 33.6722C38.8927 34.5058 37.3653 36.397 37.047 38.6705V38.4633C37.047 36.498 36.2707 34.5058 34.9167 32.9969C34.1033 32.0892 33.1165 31.4005 32.0505 30.971C34.4553 29.9589 36.1494 27.5777 36.1494 24.8075C36.1494 21.1228 33.1518 18.1235 29.4655 18.1235C25.7791 18.1235 22.7816 21.1211 22.7816 24.8075C22.7816 27.5777 24.4757 29.9573 26.8805 30.971C25.8145 31.4005 24.8277 32.0892 24.0143 32.9969C22.6603 34.5058 21.884 36.4997 21.884 38.4633V38.6705C21.5657 36.3953 20.0366 34.5058 17.9719 33.6722C20.3111 32.6315 21.948 30.2856 21.948 27.5642C21.948 23.8796 18.9504 20.8803 15.264 20.8803C11.5777 20.8803 8.58008 23.8779 8.58008 27.5642C8.58008 30.2856 10.2153 32.6315 12.5561 33.6722C10.2287 34.6119 8.58008 36.8938 8.58008 39.5546V52.8399H20.0416H20.045ZM13.6356 47.7878V39.5546C13.6356 38.8439 14.2132 38.2646 14.9255 38.2646H15.6092C16.3199 38.2646 16.8992 38.8422 16.8992 39.5546V47.7878H13.6372H13.6356ZM26.9394 41.7186V38.465C26.9394 36.9763 28.1924 35.5146 29.4672 35.5146C30.742 35.5146 31.9949 36.9763 31.9949 38.465V41.7186H26.9378H26.9394ZM42.0385 47.7878V39.5546C42.0385 38.8439 42.6161 38.2646 43.3285 38.2646H44.0122C44.7229 38.2646 45.3022 38.8422 45.3022 39.5546V47.7878H42.0402H42.0385ZM43.6703 25.9341C44.5696 25.9341 45.3022 26.6666 45.3022 27.5659C45.3022 28.4652 44.5713 29.1978 43.6703 29.1978C42.7694 29.1978 42.0385 28.4652 42.0385 27.5659C42.0385 26.6666 42.7711 25.9341 43.6703 25.9341ZM29.4689 23.179C30.3681 23.179 31.1007 23.9116 31.1007 24.8108C31.1007 25.7101 30.3681 26.4427 29.4689 26.4427C28.5696 26.4427 27.837 25.7101 27.837 24.8108C27.837 23.9116 28.5696 23.179 29.4689 23.179ZM15.2674 25.9341C16.1667 25.9341 16.8992 26.6666 16.8992 27.5659C16.8992 28.4652 16.1667 29.1978 15.2674 29.1978C14.3681 29.1978 13.6356 28.4652 13.6356 27.5659C13.6356 26.6666 14.3664 25.9341 15.2674 25.9341Z" fill="#C82030"/>
<path id="Vector_3" d="M0 10.0317V68.9679H58.9362V10.0317H0ZM53.8841 63.9158H5.05211V15.0838H53.8841V63.9158Z" fill="#C82030"/>
</g>
<defs>
<clipPath id="clip0_1_1148">
<rect width="69" height="68.9663" fill="white"/>
</clipPath>
</defs>
</svg>
