<svg width="43" height="32" viewBox="0 0 43 32" fill="none" xmlns="http://www.w3.org/2000/svg">
<path d="M42.1044 -8.58307e-06L42.8244 1.98C35.0844 2.88 28.4244 8.27999 28.6044 17.1C28.6044 18.18 28.9644 18.36 29.5044 17.82C30.7644 16.92 32.9244 16.2 34.7244 16.2C38.3244 16.2 41.9244 18.72 41.9244 23.76C41.9244 28.26 37.7844 31.32 33.6444 31.32C27.8844 31.32 23.9244 26.64 23.9244 19.26C23.9244 7.02 34.0044 0.539995 42.1044 -8.58307e-06ZM18.8844 -8.58307e-06L19.6044 1.98C11.8644 2.88 4.84438 8.45999 5.20438 17.1C5.20438 18.18 5.56438 18.36 6.10438 18C7.54438 16.92 9.52438 16.2 11.5044 16.2C14.9244 16.2 18.5244 18.72 18.5244 23.76C18.5244 27.9 14.5644 31.32 10.4244 31.32C4.48438 31.32 0.524375 26.64 0.524375 19.26C0.524375 7.02 10.7844 0.539995 18.8844 -8.58307e-06Z" fill="#C72030"/>
</svg>
