<svg width="24" height="24" viewBox="0 0 24 24" fill="none" xmlns="http://www.w3.org/2000/svg">
<g clip-path="url(#clip0_1630_19612)">
<path d="M21.0683 18.2164C20.4834 16.4391 18.9289 12.1136 17.1419 10.3335L17.1261 10.3177C16.4658 9.63332 16.2155 9.13961 16.1435 8.74121C15.8377 9.18213 15.3776 9.5291 14.7145 9.5291H9.3282C8.66443 9.5291 8.20431 9.18144 7.89917 8.74121C7.82717 9.13961 7.57689 9.63401 6.91655 10.3177L6.90078 10.3335C5.11312 12.1136 3.55929 16.4391 2.97438 18.2164C2.95998 18.2603 2.94421 18.3158 2.9257 18.381C2.83381 18.706 2.66718 19.295 2.25781 19.799C2.79061 19.9362 3.44958 19.9684 3.69781 19.5275C4.50901 18.9008 4.87792 13.3334 7.71677 14.4025C8.97026 14.4395 12.0224 14.4381 12.0224 14.4381C12.0224 14.4381 15.0745 14.4395 16.328 14.4025C19.1668 13.3334 19.5357 18.9008 20.3469 19.5275C20.5945 19.9677 21.2535 19.9355 21.7869 19.799C21.3776 19.295 21.2109 18.706 21.1191 18.381C21.1005 18.3158 21.0848 18.2603 21.0704 18.2164H21.0683ZM8.18375 13.1476C7.48021 13.1476 6.91037 12.5771 6.91037 11.8743C6.91037 11.1714 7.48089 10.6009 8.18375 10.6009C8.88661 10.6009 9.45712 11.1714 9.45712 11.8743C9.45712 12.5771 8.88661 13.1476 8.18375 13.1476ZM15.8576 13.1476C15.154 13.1476 14.5842 12.5771 14.5842 11.8743C14.5842 11.1714 15.1547 10.6009 15.8576 10.6009C16.5604 10.6009 17.1309 11.1714 17.1309 11.8743C17.1309 12.5771 16.5604 13.1476 15.8576 13.1476Z" fill="#C72030"/>
<path d="M7.73155 7.34215H7.73635C7.73635 7.34215 7.74046 7.37576 7.75006 7.43199C7.7624 7.49301 7.77406 7.54993 7.78572 7.60479C7.82823 7.78719 7.90229 8.0409 8.02847 8.29187C8.32744 8.88707 8.76492 9.18878 9.32926 9.18878H14.7156C15.2799 9.18878 15.7181 8.88707 16.0163 8.29187C16.1425 8.0409 16.2166 7.78719 16.2591 7.60479C16.2708 7.54924 16.2824 7.49233 16.2948 7.43199C16.3044 7.37644 16.3085 7.34284 16.3085 7.34215H16.3133C16.4127 6.86078 16.5423 6.24364 16.6774 5.66764C16.7898 5.12044 16.953 4.74535 17.1066 4.49026C15.2147 4.33872 12.0221 4.22559 12.0221 4.22559C12.0221 4.22559 8.82939 4.33872 6.9375 4.49026C7.0911 4.74535 7.2543 5.12044 7.36676 5.66764C7.50184 6.24296 7.63143 6.86078 7.73086 7.34215H7.73155Z" fill="#C72030"/>
<path d="M7.50294 8.00365L7.45973 7.79521C7.42887 7.67658 7.40625 7.56412 7.39116 7.46126C7.29105 6.9744 7.15733 6.33531 7.01745 5.74011C6.92899 5.31085 6.81037 5.0016 6.69517 4.78217C6.49494 4.18765 4.51321 3.32571 2.70567 5.12571C0.859041 6.78651 -1.81319 18.5685 1.76281 19.6375C1.80121 19.6539 1.84304 19.6704 1.88693 19.6869C2.3155 19.2233 2.48282 18.6343 2.58019 18.288C2.60008 18.2167 2.61722 18.1563 2.633 18.109C4.34797 12.8997 5.88122 10.8501 6.64236 10.0917L6.65608 10.0786C7.70865 8.98765 7.60374 8.48708 7.50157 8.00297L7.50294 8.00365ZM3.9427 6.93532C3.9427 6.75361 4.09699 6.60549 4.28693 6.60549H4.93493C5.12487 6.60549 5.27916 6.75292 5.27916 6.93532V7.70263L4.83893 8.20937C4.70659 8.33211 4.49608 8.33006 4.36717 8.20458L4.09288 7.87612C3.9962 7.76023 3.94339 7.61624 3.94339 7.46812V6.93532H3.9427ZM3.45995 9.28732H2.92717C2.74546 9.28732 2.59734 9.13304 2.59734 8.94309V8.29508C2.59734 8.10514 2.74477 7.95085 2.92717 7.95085H3.69448L4.20122 8.39109C4.32396 8.52343 4.32191 8.73325 4.19643 8.86285L3.86797 9.13714C3.75208 9.23383 3.60807 9.28664 3.45995 9.28664V9.28732ZM5.27916 10.3029C5.27916 10.4846 5.12487 10.632 4.93493 10.632H4.28693C4.09699 10.632 3.9427 10.4846 3.9427 10.3029V9.77005C3.9427 9.62194 3.99551 9.47794 4.0922 9.36206L4.36648 9.0336C4.49608 8.9088 4.70659 8.90675 4.83825 9.02881L5.27847 9.53554V10.3029H5.27916ZM6.62454 8.94309C6.62454 9.13304 6.4771 9.28732 6.29539 9.28732H5.76259C5.61447 9.28732 5.47048 9.23451 5.35459 9.13783L5.02613 8.86354C4.90133 8.73394 4.89927 8.52343 5.02133 8.39178L5.52808 7.95154H6.29539C6.4771 7.95154 6.62454 8.10582 6.62454 8.29577V8.94378V8.94309Z" fill="#C72030"/>
<path d="M21.3196 5.12571C19.512 3.32571 17.5303 4.18765 17.3301 4.78217C17.2156 5.0016 17.0963 5.31085 17.0078 5.74011C16.8679 6.33531 16.7342 6.9744 16.6341 7.46126C16.619 7.56412 16.5964 7.67727 16.5655 7.79521L16.5223 8.00365C16.4201 8.48777 16.3152 8.98834 17.3678 10.0793L17.3815 10.0924C18.1427 10.8501 19.6759 12.8997 21.3909 18.1097C21.4066 18.157 21.4238 18.2174 21.4437 18.2887C21.5417 18.635 21.7084 19.2247 22.1369 19.6875C22.1808 19.6711 22.2233 19.6546 22.2611 19.6382C25.8377 18.5691 23.1648 6.7872 21.3182 5.1264L21.3196 5.12571ZM19.4147 6.51703C19.8247 6.51703 20.1573 6.84961 20.1573 7.25966C20.1573 7.66972 19.8247 8.00228 19.4147 8.00228C19.0046 8.00228 18.672 7.66972 18.672 7.25966C18.672 6.84961 19.0046 6.51703 19.4147 6.51703ZM18.0549 9.36206C17.6448 9.36206 17.3123 9.02948 17.3123 8.61942C17.3123 8.20937 17.6448 7.87681 18.0549 7.87681C18.4649 7.87681 18.7975 8.20937 18.7975 8.61942C18.7975 9.02948 18.4649 9.36206 18.0549 9.36206ZM19.4147 10.7218C19.0046 10.7218 18.672 10.3893 18.672 9.9792C18.672 9.56914 19.0046 9.23657 19.4147 9.23657C19.8247 9.23657 20.1573 9.56914 20.1573 9.9792C20.1573 10.3893 19.8247 10.7218 19.4147 10.7218ZM20.7744 9.36206C20.3644 9.36206 20.0318 9.02948 20.0318 8.61942C20.0318 8.20937 20.3644 7.87681 20.7744 7.87681C21.1845 7.87681 21.5171 8.20937 21.5171 8.61942C21.5171 9.02948 21.1845 9.36206 20.7744 9.36206Z" fill="#C72030"/>
</g>
<defs>
<clipPath id="clip0_1630_19612">
<rect width="24" height="24" fill="white"/>
</clipPath>
</defs>
</svg>
