<svg width="31" height="32" viewBox="0 0 31 32" fill="none" xmlns="http://www.w3.org/2000/svg">
<g id="Group">
<g id="Group_2">
<path id="Vector" d="M19.7898 14.4023C22.0502 13.466 23.1235 10.8746 22.1873 8.6143C21.251 6.35397 18.6597 5.2806 16.3993 6.21686C14.139 7.15312 13.0656 9.74447 14.0019 12.0048C14.9382 14.2651 17.5295 15.3385 19.7898 14.4023Z" stroke="#C82030" stroke-width="2" stroke-miterlimit="10"/>
<path id="Vector_2" d="M10.7695 31.1531V21.9104C10.7695 18.1744 14.0484 15.1455 18.0931 15.1455C22.1378 15.1455 25.4166 18.1744 25.4166 21.9104V31.1531" stroke="#C82030" stroke-width="2" stroke-miterlimit="10"/>
</g>
<g id="Group_3">
<path id="Vector_3" d="M7.9751 13.408C9.12902 12.254 9.12902 10.3832 7.9751 9.22925C6.82118 8.07533 4.95031 8.07533 3.79639 9.22925C2.64247 10.3832 2.64247 12.254 3.79639 13.408C4.95031 14.5619 6.82118 14.5619 7.9751 13.408Z" stroke="#C82030" stroke-width="2" stroke-miterlimit="10"/>
<path id="Vector_4" d="M1 26.3911V19.0568C1 16.5652 3.18743 14.5452 5.88466 14.5452C8.58189 14.5452 10.7693 16.5652 10.7693 19.0568V26.3911" stroke="#C82030" stroke-width="2" stroke-miterlimit="10"/>
</g>
<path id="Vector_5" d="M21.9336 1H30V8.16" stroke="#C82030" stroke-width="2" stroke-miterlimit="10"/>
</g>
</svg>
