<svg width="35" height="41" viewBox="0 0 35 41" fill="none" xmlns="http://www.w3.org/2000/svg">
<g id="Layer_2" clip-path="url(#clip0_1_1559)">
<g id="Group">
<path id="Vector" d="M17.1669 20.1604C18.7346 19.5443 19.8439 18.0182 19.8439 16.2322V15.6974C19.8439 13.3666 17.9547 11.4774 15.624 11.4774H14.5226V17.792C14.4234 17.792 14.3261 17.7979 14.2299 17.8079C13.6137 16.2401 12.0877 15.1308 10.3017 15.1308H9.76684C7.43609 15.1308 5.54688 17.02 5.54688 19.3508V20.4522H11.8614C11.8614 20.5514 11.8674 20.6486 11.8773 20.7449C10.3096 21.361 9.20027 22.8871 9.20027 24.6731V25.2079C9.20027 27.5387 11.0895 29.4279 13.4202 29.4279H14.5216V23.1133C14.6208 23.1133 14.7181 23.1074 14.8143 23.0974C15.4305 24.6652 16.9566 25.7745 18.7426 25.7745H19.2774C21.6081 25.7745 23.4973 23.8853 23.4973 21.5545V20.4531H17.1828C17.1828 20.3539 17.1768 20.2567 17.1669 20.1604Z" fill="#C82030"/>
<path id="Vector_2" d="M14.5213 5.93152C6.51401 5.93152 0 12.4455 0 20.4528C0 27.9571 5.7222 34.1506 13.033 34.8987V37.6978H7.93687V40.6745H21.1058V37.6978H16.0097V34.8987C23.3204 34.1506 29.0426 27.9581 29.0426 20.4528C29.0426 12.4455 22.5286 5.93152 14.5213 5.93152ZM14.5213 31.9975C8.15516 31.9975 2.9767 26.818 2.9767 20.4528C2.9767 14.0877 8.15615 8.90822 14.5213 8.90822C20.8865 8.90822 26.0659 14.0877 26.0659 20.4528C26.0659 26.818 20.8865 31.9975 14.5213 31.9975Z" fill="#C82030"/>
</g>
<path id="Vector_3" d="M23.041 0V2.9767H32.0237V10.7836H35.0004V0H23.041Z" fill="#C82030"/>
</g>
<defs>
<clipPath id="clip0_1_1559">
<rect width="35" height="40.6746" fill="white"/>
</clipPath>
</defs>
</svg>
