<svg width="24" height="24" viewBox="0 0 24 24" fill="none" xmlns="http://www.w3.org/2000/svg">
<path d="M22.181 9.54102H21.4653L20.1937 15.6409H3.8181L2.54523 9.54102H1.82124C1.25829 9.54102 0.800781 9.99918 0.800781 10.5615V10.6382L2.20848 16.4339C2.37078 17.1029 2.96569 17.5706 3.65389 17.5706H4.62006V19.8301H5.89806V17.5706H18.1035V19.8301H19.3815V17.5706H20.3477C21.0365 17.5706 21.6308 17.1035 21.7931 16.4339L23.2008 10.6382V10.5615C23.2008 9.99854 22.7426 9.54102 22.1803 9.54102H22.181Z" fill="#C72030"/>
<path d="M3.79264 9.53345L3.79454 9.54112L4.85144 14.363H19.1579L20.1867 9.54112H20.1816L20.9548 6.31738C21.0666 5.85155 20.9606 5.36847 20.6634 4.9921C20.3669 4.61573 19.9222 4.40039 19.4429 4.40039H19.4423L12.0037 4.40422L4.54792 4.40039H4.5473C4.06805 4.40039 3.6233 4.61573 3.32681 4.9921C3.02967 5.36847 2.92361 5.85155 3.03608 6.31866L3.79073 9.52323L3.79264 9.53345Z" fill="#C72030"/>
</svg>
