<svg width="60" height="38" viewBox="0 0 60 38" fill="none" xmlns="http://www.w3.org/2000/svg">
<path d="M33.983 20.423L29.9956 24.1242L25.8761 20.435L25.8298 20.3956C25.3515 19.9876 12.3916 8.50017 3.16016 0.314453H56.7967C49.7527 6.5236 35.363 19.2093 33.983 20.4247V20.423Z" fill="#C72030"/>
<path d="M17.2868 18.0037L0 34.9648V2.67969C4.53943 6.70483 12.0154 13.334 17.2868 18.0037Z" fill="#C72030"/>
<path d="M20.1905 20.5759C21.8722 22.0639 23.0225 23.0805 23.2968 23.3187L30.0442 29.3599L36.5602 23.3102C36.9442 22.9725 38.1802 21.8839 39.9202 20.3496L57.2431 37.6382H2.80078L20.1922 20.5742L20.1905 20.5759Z" fill="#C72030"/>
<path d="M42.8281 17.7855C48.235 13.0198 55.7556 6.38897 59.9847 2.66211V34.9078L42.8281 17.7855Z" fill="#C72030"/>
</svg>
