<svg width="60" height="60" viewBox="0 0 60 60" fill="none" xmlns="http://www.w3.org/2000/svg">
<path d="M33.984 31.423L29.9966 35.1242L25.8771 31.435L25.8308 31.3956C25.3525 30.9876 12.3926 19.5002 3.16113 11.3145H56.7977C49.7537 17.5236 35.364 30.2093 33.984 31.4247V31.423Z" fill="#C72030"/>
<path d="M17.2868 29.0037L0 45.9648V13.6797C4.53943 17.7048 12.0154 24.334 17.2868 29.0037Z" fill="#C72030"/>
<path d="M20.191 31.5759C21.8727 33.0639 23.023 34.0805 23.2973 34.3187L30.0447 40.3599L36.5607 34.3102C36.9447 33.9725 38.1807 32.8839 39.9207 31.3496L57.2436 48.6382H2.80127L20.1926 31.5742L20.191 31.5759Z" fill="#C72030"/>
<path d="M42.8296 28.7855C48.2364 24.0198 55.757 17.389 59.9862 13.6621V45.9078L42.8296 28.7855Z" fill="#C72030"/>
</svg>
