<svg width="35" height="35" viewBox="0 0 35 35" fill="none" xmlns="http://www.w3.org/2000/svg">
<g id="Layer_2" clip-path="url(#clip0_1_1567)">
<path id="Vector" d="M34.9998 9.27304H32.4401V2.55973H24.7148V0H34.9998V9.27304Z" fill="#C82030"/>
<path id="Vector_2" d="M29.8712 34.9471H0V5.07593H29.8712V34.9471ZM2.55973 32.3874H27.3114V7.63565H2.55973V32.3874Z" fill="#C82030"/>
<path id="Vector_3" d="M15.6379 12.959H9.75391V27.645H12.3102V21.8941H15.6379C18.9109 21.8941 20.8657 20.2201 20.8657 17.4155C20.8657 14.6109 18.9118 12.959 15.6379 12.959ZM12.3102 15.3182H15.5909C17.3947 15.3182 18.3085 16.0238 18.3085 17.4155C18.3085 18.8071 17.3938 19.5127 15.5909 19.5127H12.3102V15.3182Z" fill="#C82030"/>
</g>
<defs>
<clipPath id="clip0_1_1567">
<rect width="35" height="34.9471" fill="white"/>
</clipPath>
</defs>
</svg>
