<svg width="35" height="45" viewBox="0 0 35 45" fill="none" xmlns="http://www.w3.org/2000/svg">
<g id="Layer_2" clip-path="url(#clip0_1_1564)">
<path id="Vector" d="M35.0003 11.9044H31.7143V3.28608H21.7969V0H35.0003V11.9044Z" fill="#C82030"/>
<path id="Vector_2" d="M25.2765 38.5486L19.6628 29.4812H12.0424V23.6331H18.011V20.347H12.0424V16.0006C13.9275 15.3248 15.2814 13.5196 15.2814 11.4045C15.2814 8.71318 13.0917 6.52246 10.3993 6.52246C7.70694 6.52246 5.51732 8.71208 5.51732 11.4045C5.51732 13.5196 6.87009 15.3248 8.7563 16.0006V20.0523C6.47028 20.7983 4.41539 22.1927 2.87532 24.069C1.02087 26.3287 0 29.1843 0 32.1122C0 39.1061 5.68929 44.7954 12.6832 44.7954C16.518 44.7954 20.0637 43.0899 22.4439 40.2157L23.4462 41.8346H28.4103V38.5486H25.2765ZM10.3993 9.80963C11.2789 9.80963 11.9953 10.5249 11.9953 11.4056C11.9953 12.2862 11.28 13.0015 10.3993 13.0015C9.51867 13.0015 8.8034 12.2862 8.8034 11.4056C8.8034 10.5249 9.51867 9.80963 10.3993 9.80963ZM12.6832 41.5093C7.50102 41.5093 3.28608 37.2933 3.28608 32.1122C3.28608 28.4023 5.49432 25.0822 8.7563 23.5739V32.7662H17.8324L20.5807 37.2057C18.8577 39.8805 15.9079 41.5082 12.6832 41.5082V41.5093Z" fill="#C82030"/>
</g>
<defs>
<clipPath id="clip0_1_1564">
<rect width="35" height="44.7958" fill="white"/>
</clipPath>
</defs>
</svg>
